<?xml version="1.0" encoding="UTF-8"?>
<COLLADA xmlns="http://www.collada.org/2005/11/COLLADASchema" version="1.4.1">
    <asset>
        <contributor>
            <author>VCGLab</author>
            <authoring_tool>VCGLib | MeshLab</authoring_tool>
        </contributor>
        <created>Mon May 4 16:34:56 2026 GMT</created>
        <modified>Mon May 4 16:34:56 2026 GMT</modified>
        <up_axis>Y_UP</up_axis>
    </asset>
    <library_images>
        <image id="texture0" name="texture0">
            <init_from>notexture.png</init_from>
        </image>
    </library_images>
    <library_materials>
        <material id="material0" name="material0">
            <instance_effect url="#material0-fx"/>
        </material>
    </library_materials>
    <library_effects>
        <effect id="material0-fx">
            <profile_COMMON>
                <newparam sid="texture0-surface">
                    <surface type="2D">
                        <init_from>texture0</init_from>
                        <format>R8G8B8</format>
                    </surface>
                </newparam>
                <newparam sid="texture0-sampler">
                    <sampler2D>
                        <source>texture0-surface</source>
                        <minfilter>LINEAR</minfilter>
                        <magfilter>LINEAR</magfilter>
                    </sampler2D>
                </newparam>
                <technique sid="common">
                    <blinn>
                        <diffuse>
                            <texture texture="texture0-sampler" texcoord="UVSET0"/>
                        </diffuse>
                    </blinn>
                </technique>
            </profile_COMMON>
        </effect>
    </library_effects>
    <library_geometries>
        <geometry id="shape0-lib" name="shape0">
            <mesh>
                <source id="shape0-lib-positions" name="position">
                    <float_array id="shape0-lib-positions-array" count="1320">-100 38.787 24.7701 -100 38.787 24.7701 -100 -80.0139 24.7701 -100 -80.0139 24.7701 -95.1676 38.787 24.2942 -95.1676 38.787 24.2942 -95.1676 -80.0139 24.2942 -95.1676 -80.0139 24.2942 -90.5209 38.787 22.8846 -90.5209 38.787 22.8846 -90.5209 -80.0139 22.8846 -90.5209 -80.0139 22.8846 -86.2384 38.787 20.5956 -86.2384 38.787 20.5956 -86.2384 -80.0139 20.5956 -86.2384 -80.0139 20.5956 -82.4849 38.787 17.5151 -82.4849 38.787 17.5151 -82.4849 -80.0139 17.5151 -82.4849 -80.0139 17.5151 -79.4044 38.787 13.7616 -79.4044 38.787 13.7616 -79.4044 -80.0139 13.7615 -79.4044 -80.0139 13.7615 -77.1154 38.787 9.47912 -77.1154 38.787 9.47912 -77.1154 -80.0139 9.47912 -77.1154 -80.0139 9.47912 -75.7058 38.787 4.83242 -75.7058 38.787 4.83242 -75.7058 -80.0139 4.83241 -75.7058 -80.0139 4.83241 -75.2299 38.787 3.0598e-06 -75.2299 38.787 3.0598e-06 -75.2299 -80.0139 -3.0598e-06 -75.2299 -80.0139 -3.0598e-06 -124.77 38.787 3.0598e-06 -124.77 38.787 3.0598e-06 -124.77 -80.0139 -3.0598e-06 -124.77 -80.0139 -3.0598e-06 -124.294 38.787 4.83242 -124.294 38.787 4.83242 -124.294 -80.0139 4.83241 -124.294 -80.0139 4.83241 -122.885 38.787 9.47912 -122.885 38.787 9.47912 -122.885 -80.0139 9.47912 -122.885 -80.0139 9.47912 -120.596 38.787 13.7616 -120.596 38.787 13.7616 -120.596 -80.0139 13.7615 -120.596 -80.0139 13.7615 -117.515 38.787 17.5151 -117.515 38.787 17.5151 -117.515 -80.0139 17.5151 -117.515 -80.0139 17.5151 -113.762 38.787 20.5956 -113.762 38.787 20.5956 -113.762 -80.0139 20.5956 -113.762 -80.0139 20.5956 -109.479 38.787 22.8846 -109.479 38.787 22.8846 -109.479 -80.0139 22.8846 -109.479 -80.0139 22.8846 -104.832 38.787 24.2942 -104.832 38.787 24.2942 -104.832 -80.0139 24.2942 -104.832 -80.0139 24.2942 -100 38.787 30 -100 38.787 30 -100 38.787 30 -94.1473 38.787 29.4236 -94.1473 38.787 29.4236 -94.1473 38.787 29.4236 -94.1473 -80.0139 29.4236 -94.1473 -80.0139 29.4236 -94.1473 -80.0139 29.4236 -100 -80.0139 30 -100 -80.0139 30 -100 -80.0139 30 -88.5195 38.787 27.7164 -88.5195 38.787 27.7164 -88.5195 38.787 27.7164 -88.5195 -80.0139 27.7164 -88.5195 -80.0139 27.7164 -88.5195 -80.0139 27.7164 -83.3329 38.787 24.9441 -83.3329 38.787 24.9441 -83.3329 38.787 24.9441 -83.3329 -80.0139 24.9441 -83.3329 -80.0139 24.9441 -83.3329 -80.0139 24.9441 -78.7868 38.787 21.2132 -78.7868 38.787 21.2132 -78.7868 38.787 21.2132 -78.7868 -80.0139 21.2132 -78.7868 -80.0139 21.2132 -78.7868 -80.0139 21.2132 -75.0559 38.787 16.6671 -75.0559 38.787 16.6671 -75.0559 38.787 16.6671 -75.0559 -80.0139 16.6671 -75.0559 -80.0139 16.6671 -75.0559 -80.0139 16.6671 -72.2836 38.787 11.4805 -72.2836 38.787 11.4805 -72.2836 38.787 11.4805 -72.2836 -80.0139 11.4805 -72.2836 -80.0139 11.4805 -72.2836 -80.0139 11.4805 -70.5764 38.787 5.85271 -70.5764 38.787 5.85271 -70.5764 38.787 5.85271 -70.5764 -80.0139 5.85271 -70.5764 -80.0139 5.85271 -70.5764 -80.0139 5.85271 -70 38.787 3.0598e-06 -70 38.787 3.0598e-06 -70 38.787 3.0598e-06 -70 -80.0139 -3.0598e-06 -70 -80.0139 -3.0598e-06 -70 -80.0139 -3.0598e-06 -130 38.787 3.0598e-06 -130 38.787 3.0598e-06 -130 38.787 3.0598e-06 -130 -80.0139 -3.0598e-06 -130 -80.0139 -3.0598e-06 -130 -80.0139 -3.0598e-06 -129.424 38.787 5.85271 -129.424 38.787 5.85271 -129.424 38.787 5.85271 -129.424 -80.0139 5.85271 -129.424 -80.0139 5.85271 -129.424 -80.0139 5.85271 -127.716 38.787 11.4805 -127.716 38.787 11.4805 -127.716 38.787 11.4805 -127.716 -80.0139 11.4805 -127.716 -80.0139 11.4805 -127.716 -80.0139 11.4805 -124.944 38.787 16.6671 -124.944 38.787 16.6671 -124.944 38.787 16.6671 -124.944 -80.0139 16.6671 -124.944 -80.0139 16.6671 -124.944 -80.0139 16.6671 -121.213 38.787 21.2132 -121.213 38.787 21.2132 -121.213 38.787 21.2132 -121.213 -80.0139 21.2132 -121.213 -80.0139 21.2132 -121.213 -80.0139 21.2132 -116.667 38.787 24.9441 -116.667 38.787 24.9441 -116.667 38.787 24.9441 -116.667 -80.0139 24.9441 -116.667 -80.0139 24.9441 -116.667 -80.0139 24.9441 -111.48 38.787 27.7164 -111.48 38.787 27.7164 -111.48 38.787 27.7164 -111.48 -80.0139 27.7164 -111.48 -80.0139 27.7164 -111.48 -80.0139 27.7164 -105.853 38.787 29.4236 -105.853 38.787 29.4236 -105.853 38.787 29.4236 -105.853 -80.0139 29.4236 -105.853 -80.0139 29.4236 -105.853 -80.0139 29.4236 -200 -60 0 -200 -80 0 -200 -120 0 60 -20 0 60 9.29825e-06 0 60 20 0 60 40 0 80 8.42402e-06 0 80 20 0 -220.339 -100 0 -220.339 -80 0 -120 -240 0 -80 -240 0 -60 -240 0 60 -29.9853 0 80 -9.99999 0 60 -9.99999 0 69.9927 -20 0 -200 -70 0 -220.339 -70 0 -200 -50 0 -210.169 -60 0 -100 -260 0 -80 -260 0 -130 -240 0 -110 -240 0 -110 -260 0 -120 -250 0 80 10 0 60 10 0 320 10 0 340 10 0 -200 -90 0 -220.339 -90 0 -90 -240 0 -90 -260 0 -90 -244.37 0 -90 -253.811 0 -100 -256.205 0 -100 -242.099 0 -101.184 -242.099 0 -101.184 -256.205 0 -95.0911 -243.968 0 -94.2365 -244.11 0 -93.4691 -244.338 0 -92.7877 -244.646 0 -92.191 -245.027 0 -91.6778 -245.473 0 -91.2469 -245.978 0 -90.8971 -246.536 0 -90.6271 -247.139 0 -90.4358 -247.781 0 -90.3219 -248.454 0 -90.2842 -249.152 0 -90.3076 -249.62 0 -90.3836 -250.143 0 -90.5208 -250.703 0 -90.7277 -251.281 0 -91.0131 -251.859 0 -91.3856 -252.42 0 -91.8537 -252.944 0 -92.4261 -253.414 0 -93.1114 -253.812 0 -93.9182 -254.118 0 -94.8551 -254.315 0 -95.9308 -254.385 0 -99.1573 -254.385 0 -99.1573 -243.919 0 -96.0342 -243.919 0 -95.6825 -256.205 0 -94.5576 -256.135 0 -93.512 -255.934 0 -92.5494 -255.612 0 -91.6731 -255.181 0 -90.8867 -254.652 0 -90.1937 -254.036 0 -90.662 -243.74 0 -91.4402 -243.188 0 -92.3312 -242.733 0 -93.3373 -242.39 0 -94.4606 -242.174 0 -95.7032 -242.099 0 -89.5977 -253.345 0 -89.1022 -252.589 0 -88.7107 -251.781 0 -88.4267 -250.931 0 -88.2537 -250.051 0 -88.1952 -249.152 0 -88.2434 -248.314 0 -88.3894 -247.473 0 -88.6354 -246.645 0 -88.9835 -245.843 0 -89.4359 -245.083 0 -204.539 -90 0 -213.98 -90 0 -202.268 -80 0 -216.374 -80 0 -204.137 -84.9089 0 -204.279 -85.7635 0 -204.508 -86.5309 0 -204.815 -87.2123 0 -205.196 -87.8091 0 -205.642 -88.3223 0 -206.148 -88.7531 0 -206.705 -89.103 0 -207.308 -89.3729 0 -207.95 -89.5642 0 -208.623 -89.6781 0 -209.321 -89.7158 0 -209.789 -89.6924 0 -210.312 -89.6164 0 -210.872 -89.4792 0 -211.45 -89.2723 0 -212.029 -88.9868 0 -212.589 -88.6144 0 -213.114 -88.1463 0 -213.584 -87.5739 0 -213.981 -86.8886 0 -214.287 -86.0819 0 -214.484 -85.1449 0 -214.554 -84.0693 0 -214.554 -80.8427 0 -204.088 -80.8427 0 -204.088 -83.9658 0 -216.374 -84.3175 0 -216.305 -85.4424 0 -216.103 -86.488 0 -215.781 -87.4506 0 -215.35 -88.327 0 -214.821 -89.1133 0 -214.205 -89.8063 0 -203.91 -89.338 0 -203.357 -88.5598 0 -202.902 -87.6688 0 -202.559 -86.6627 0 -202.343 -85.5394 0 -202.268 -84.2968 0 -213.514 -90.4023 0 -212.759 -90.8978 0 -211.95 -91.2893 0 -211.101 -91.5734 0 -210.22 -91.7464 0 -209.321 -91.8048 0 -208.483 -91.7566 0 -207.643 -91.6106 0 -206.814 -91.3646 0 -206.013 -91.0165 0 -205.252 -90.5642 0 -202.268 -78.8157 0 -216.374 -78.8157 0 63.795 10 0 77.901 10 0 66.1888 9.02772e-06 0 75.63 8.61504e-06 0 76.032 5.09115 0 75.89 4.23654 0 75.6617 3.46912 0 75.3539 2.78766 0 74.9734 2.19094 0 74.527 1.67775 0 74.0217 1.24686 0 73.4641 0.897055 0 72.8611 0.627106 0 72.2195 0.435795 0 71.5462 0.321904 0 70.848 0.284214 0 70.3801 0.307631 0 69.8571 0.383614 0 69.2974 0.520784 0 68.7192 0.72776 0 68.1406 1.01316 0 67.58 1.3856 0 67.0557 1.85371 0 66.5857 2.42609 0 66.1884 3.11137 0 65.8821 3.91816 0 65.6849 4.85508 0 65.6151 5.93076 0 65.6151 9.15735 0 76.0809 9.15735 0 76.0809 6.03417 0 63.795 5.68256 0 63.8646 4.55763 0 64.0661 3.51206 0 64.388 2.54936 0 64.8192 1.67306 0 65.3483 0.886678 0 65.9642 0.193727 0 76.2597 0.662049 0 76.8125 1.44019 0 77.2673 2.33122 0 77.6098 3.3373 0 77.8258 4.46059 0 77.901 5.70324 0 77.901 11.1843 0 63.795 11.1843 0 66.6554 -0.402271 0 67.4107 -0.897793 0 68.219 -1.28933 0 69.0688 -1.57335 0 69.9489 -1.74635 0 70.848 -1.80479 0 71.6863 -1.75661 0 72.5267 -1.6106 0 73.3549 -1.36463 0 74.1566 -1.01653 0 74.9174 -0.564159 0 340 39 0 340 41 0 320 39 0 320 41 0 320 19 0 320 21 0 340 19 0 340 21 0 320 159 0 340 159 0 340 119 0 340 121 0 320 119 0 320 121 0 320 99 0 320 101 0 340 99 0 340 101 0 340 59 0 340 61 0 320 59 0 320 61 0 340 139 0 340 141 0 320 139 0 320 141 0 340 79 0 340 81 0 320 79 0 320 81 0 320 0.499998 0 340 0.499997 0 80 0.500009 0 -200 -104 0 -200 -96 0 -204 -100 0 -96 -240 0 -104 -240 0 -100 -242.089 0 -200 -120 0 -220.339 -100 0 -220.339 -80 0 -220.339 -70 0 -200 -50 0 -210.169 -60 0 -220.339 -90 0 340 10 0 340 39 0 340 41 0 340 19 0 340 21 0 340 159 0 340 119 0 340 121 0 340 99 0 340 101 0 340 59 0 340 61 0 340 139 0 340 141 0 340 79 0 340 81 0 340 0.499997 0</float_array>
                    <technique_common>
                        <accessor count="440" source="#shape0-lib-positions-array" stride="3">
                            <param name="X" type="float"/>
                            <param name="Y" type="float"/>
                            <param name="Z" type="float"/>
                        </accessor>
                    </technique_common>
                </source>
                <source id="shape0-lib-normals" name="normal">
                    <float_array id="shape0-lib-normals-array" count="1164">0.0980174 -6.39107e-08 0.995185 0.0980174 -6.41542e-08 0.995185 0.290284 -6.14547e-08 0.95694 0.290284 -6.14241e-08 0.95694 0.471397 -5.66369e-08 0.881921 0.471397 -5.59643e-08 0.881921 0.634393 -4.96427e-08 0.77301 0.634393 -4.91393e-08 0.77301 0.77301 -4.07407e-08 0.634394 0.77301 -4.09494e-08 0.634394 0.881922 -3.02731e-08 0.471396 0.881922 -2.32047e-08 0.471396 0.956941 -1.39815e-08 0.290284 0.956941 -1.36498e-08 0.290284 0.995185 -4.72103e-09 0.098018 0.995185 -4.77743e-09 0.098018 -0.995185 -5.04903e-09 0.098018 -0.995185 -4.77743e-09 0.098018 -0.956941 -1.39815e-08 0.290284 -0.956941 -1.36498e-08 0.290284 -0.881922 -2.27048e-08 0.471396 -0.881922 -3.00296e-08 0.471396 -0.77301 -4.07407e-08 0.634394 -0.77301 -4.09494e-08 0.634394 -0.634393 -4.96427e-08 0.77301 -0.634393 -4.91393e-08 0.77301 -0.471397 -5.66369e-08 0.881921 -0.471397 -5.73293e-08 0.881921 -0.290284 -6.14547e-08 0.95694 -0.290284 -6.14241e-08 0.95694 -0.0980174 -6.39107e-08 0.995185 -0.0980174 -6.38129e-08 0.995185 0 1 0 0 1 0 0 -1 0 0 -1 0 0 1 0 0 1 0 0 -1 0 0 -1 0 0 1 0 0 1 0 0 -1 0 0 -1 0 0 1 0 0 1 0 0 -1 0 0 -1 0 0 1 0 0 1 0 0 -1 0 0 -1 0 0 1 0 0 1 0 0 -1 0 0 -1 0 0 1 0 0 1 0 0 -1 0 0 -1 0 0 1 0 0 1 0 0 -1 0 0 -1 0 0 5.15113e-08 -1 0 5.15113e-08 -1 0 1 0 0 1 0 0 -1 0 0 -1 0 0 1 0 0 1 0 0 -1 0 0 -1 0 0 1 0 0 1 0 0 -1 0 0 -1 0 0 1 0 0 1 0 0 -1 0 0 -1 0 0 1 0 0 1 0 0 -1 0 0 -1 0 0 1 0 0 1 0 0 -1 0 0 -1 0 0 1 0 0 1 0 0 -1 0 0 -1 0 0 1 0 0 1 0 0 -1 0 0 -1 0 0 5.15113e-08 -1 0 5.15113e-08 -1 -0.995185 4.95954e-09 -0.0980173 -0.995185 4.721e-09 -0.0980173 -0.95694 1.4052e-08 -0.290284 -0.95694 1.39815e-08 -0.290284 -0.881921 2.14913e-08 -0.471397 -0.881921 2.27048e-08 -0.471397 -0.773011 3.14104e-08 -0.634393 -0.77301 4.07407e-08 -0.634393 -0.634394 5.12485e-08 -0.77301 -0.634394 4.96427e-08 -0.77301 -0.471396 5.78612e-08 -0.881921 -0.471396 5.6637e-08 -0.881921 -0.290285 6.11676e-08 -0.95694 -0.290285 6.14547e-08 -0.95694 -0.0980174 6.36474e-08 -0.995185 -0.0980174 6.39107e-08 -0.995185 0.0980174 6.40607e-08 -0.995185 0.0980174 6.39107e-08 -0.995185 0.290285 6.19942e-08 -0.95694 0.290285 6.14547e-08 -0.95694 0.471396 5.6208e-08 -0.881921 0.471396 5.6637e-08 -0.881921 0.634394 4.95954e-08 -0.77301 0.634394 4.96427e-08 -0.77301 0.773011 3.96763e-08 -0.634393 0.77301 3.05555e-08 -0.634393 0.881921 2.31445e-08 -0.471397 0.881921 2.27048e-08 -0.471397 0.995185 5.049e-09 -0.0980173 0.95694 1.4052e-08 -0.290284 0.995185 4.721e-09 -0.0980173 0.95694 1.4052e-08 -0.290284 0 0 1 0 0 1 0 0 1 0 0 1 0 0 1 0 0 1 0 0 1 0 0 1 0 0 1 0 0 1 0 0 1 0 0 1 0 0 1 0 0 1 0 0 1 0 0 1 0 0 1 0 0 1 0 0 1 0 0 1 0 0 1 0 0 1 0 0 1 0 0 1 0 0 1 0 0 1 0 0 1 0 0 1 0 0 1 0 0 1 0 0 1 0 0 1 0 0 1 0 0 1 0 0 1 0 0 1 0 0 1 0 0 1 0 0 1 0 0 1 0 0 1 0 0 1 0 0 1 0 0 1 0 0 1 0 0 1 0 0 1 0 0 1 0 0 1 0 0 1 0 0 1 0 0 1 0 0 1 0 0 1 0 0 1 0 0 1 0 0 1 0 0 1 0 0 1 0 0 1 0 0 1 0 0 1 0 0 1 0 0 1 0 0 1 0 0 1 0 0 1 0 0 1 0 0 1 0 0 1 0 0 1 0 0 1 0 0 1 0 0 1 0 0 1 0 0 1 0 0 1 0 0 1 0 0 1 0 0 1 0 0 1 0 0 1 0 0 1 0 0 1 0 0 1 0 0 1 0 0 1 0 0 1 0 0 1 0 0 1 0 0 1 0 0 1 0 0 1 0 0 1 0 0 1 0 0 1 0 0 1 0 0 1 0 0 1 0 0 1 0 0 1 0 0 1 0 0 1 0 0 1 0 0 1 0 0 1 0 0 1 0 0 1 0 0 1 0 0 1 0 0 1 0 0 1 0 0 1 0 0 1 0 0 1 0 0 1 0 0 1 0 0 1 0 0 1 0 0 1 0 0 1 0 0 1 0 0 1 0 0 1 0 0 1 0 0 1 0 0 1 0 0 1 0 0 1 0 0 1 0 0 1 0 0 1 0 0 1 0 0 1 0 0 1 0 0 1 0 0 1 0 0 1 0 0 1 0 0 1 0 0 1 0 0 1 0 0 1 0 0 1 0 0 1 0 0 1 0 0 1 0 0 1 0 0 1 0 0 1 0 0 1 0 0 1 0 0 1 0 0 1 0 0 1 0 0 1 0 0 1 0 0 1 0 0 1 0 0 1 0 0 1 0 0 1 0 0 1 0 0 1 0 0 1 0 0 1 0 0 1 0 0 1 0 0 1 0 0 1 0 0 1 0 0 1 0 0 1 0 0 1 0 0 1 0 0 1 0 0 1 0 0 1 0 0 1 0 0 1 0 0 1 0 0 1 0 0 1 0 0 1 0 0 1 0 0 1 0 0 1 0 0 1 0 0 1 0 0 1 0 0 1 0 0 1 0 0 1 0 0 1 0 0 1 0 0 1 0 0 1 0 0 1 0 0 1 0 0 1 0 0 1 0 0 1 0 0 1 0 0 1 0 0 1 0 0 1 0 0 1 0 0 1 0 0 1 0 0 1 0 0 1 0 0 1 0 0 1 0 0 1 0 0 1 0 0 1 0 0 1 0 0 1 0 0 1 0 0 1 0 0 1 0 0 1 0 0 1 0 0 1 0 0 1 0 0 1 0 0 0 0 0 0 0 0 0 0 0 0 0 0 0 0 0 0 0 0 0 0 0 0 0 0 0 0 0 0 0 0 0 0 0 0 0 0 0 0 0 0 0 0 0 0 0 0 0 0 0 0 0 0 0 0 0 0 0 0 0 0 0 0 0 0 0 0 0 0 0 0 0 0 0 0 0 0 0 0 0 0 0 0 0 0 0 0 0 0</float_array>
                    <technique_common>
                        <accessor count="388" source="#shape0-lib-normals-array" stride="3">
                            <param name="X" type="float"/>
                            <param name="Y" type="float"/>
                            <param name="Z" type="float"/>
                        </accessor>
                    </technique_common>
                </source>
                <source id="shape0-lib-vcolor" name="vcolor">
                    <float_array id="shape0-lib-vcolor-array" count="1760">0 0 1 1 0 0 1 1 0 0 1 1 0 0 1 1 0 0 1 1 0 0 1 1 0 0 1 1 0 0 1 1 0 0 1 1 0 0 1 1 0 0 1 1 0 0 1 1 0 0 1 1 0 0 1 1 0 0 1 1 0 0 1 1 0 0 1 1 0 0 1 1 0 0 1 1 0 0 1 1 0 0 1 1 0 0 1 1 0 0 1 1 0 0 1 1 0 0 1 1 0 0 1 1 0 0 1 1 0 0 1 1 0 0 1 1 0 0 1 1 0 0 1 1 0 0 1 1 0 0 1 1 0 0 1 1 0 0 1 1 0 0 1 1 0 0 1 1 0 0 1 1 0 0 1 1 0 0 1 1 0 0 1 1 0 0 1 1 0 0 1 1 0 0 1 1 0 0 1 1 0 0 1 1 0 0 1 1 0 0 1 1 0 0 1 1 0 0 1 1 0 0 1 1 0 0 1 1 0 0 1 1 0 0 1 1 0 0 1 1 0 0 1 1 0 0 1 1 0 0 1 1 0 0 1 1 0 0 1 1 0 0 1 1 0 0 1 1 0 0 1 1 0 0 1 1 0 0 1 1 0 0 1 1 0 0 1 1 0 0 1 1 0 0 1 1 0 0 1 1 0 0 1 1 0 0 1 1 0 0 1 1 0 0 1 1 0 0 1 1 0 0 1 1 0 0 1 1 0 0 1 1 0 0 1 1 0 0 1 1 0 0 1 1 0 0 1 1 0 0 1 1 0 0 1 1 0 0 1 1 0 0 1 1 0 0 1 1 0 0 1 1 0 0 1 1 0 0 1 1 0 0 1 1 0 0 1 1 0 0 1 1 0 0 1 1 0 0 1 1 0 0 1 1 0 0 1 1 0 0 1 1 0 0 1 1 0 0 1 1 0 0 1 1 0 0 1 1 0 0 1 1 0 0 1 1 0 0 1 1 0 0 1 1 0 0 1 1 0 0 1 1 0 0 1 1 0 0 1 1 0 0 1 1 0 0 1 1 0 0 1 1 0 0 1 1 0 0 1 1 0 0 1 1 0 0 1 1 0 0 1 1 0 0 1 1 0 0 1 1 0 0 1 1 0 0 1 1 0 0 1 1 0 0 1 1 0 0 1 1 0 0 1 1 0 0 1 1 0 0 1 1 0 0 1 1 0 0 1 1 0 0 1 1 0 0 1 1 0 0 1 1 0 0 1 1 0 0 1 1 0 0 1 1 0 0 1 1 0 0 1 1 0 0 1 1 0 0 1 1 0 0 1 1 0 0 1 1 0 0 1 1 0 0 1 1 0 0 1 1 0 0 1 1 0 0 1 1 0 0 1 1 0 0 1 1 0 0 1 1 0 0 1 1 0 0 1 1 0 0 1 1 0 0 1 1 0 0 1 1 0 0 1 1 0 0 1 1 0 0 1 1 0 0 1 1 0 0 1 1 0 0 1 1 0 0 1 1 0 0 1 1 0 0 1 1 0 0 1 1 0 0 1 1 0 0 1 1 0 0 1 1 0 0 1 1 0 0 1 1 0 0 1 1 0 0 1 1 0 0 1 1 0 0 1 1 0 0 1 1 0 0 1 1 0 0 1 1 0 0 1 1 0 0 1 1 0 0 1 1 0 0 1 1 0 0 1 1 0 0 1 1 0 0 1 1 0 0 1 1 0 0 1 1 0 0 1 1 0 0 1 1 0 0 1 1 0 0 1 1 0 0 1 1 0 0 1 1 0 0 1 1 0 0 1 1 0 0 1 1 0 0 1 1 0 0 1 1 0 0 1 1 0 0 1 1 0 0 1 1 0 0 1 1 0 0 1 1 0 0 1 1 0 0 1 1 0 0 1 1 0 0 1 1 0 0 1 1 0 0 1 1 0 0 1 1 0 0 1 1 0 0 1 1 0 0 1 1 0 0 1 1 0 0 1 1 0 0 1 1 0 0 1 1 0 0 1 1 0 0 1 1 0 0 1 1 0 0 1 1 0 0 1 1 0 0 1 1 0 0 1 1 0 0 1 1 0 0 1 1 0 0 1 1 0 0 1 1 0 0 1 1 0 0 1 1 0 0 1 1 0 0 1 1 0 0 1 1 0 0 1 1 0 0 1 1 0 0 1 1 0 0 1 1 0 0 1 1 0 0 1 1 0 0 1 1 0 0 1 1 0 0 1 1 0 0 1 1 0 0 1 1 0 0 1 1 0 0 1 1 0 0 1 1 0 0 1 1 0 0 1 1 0 0 1 1 0 0 1 1 0 0 1 1 0 0 1 1 0 0 1 1 0 0 1 1 0 0 1 1 0 0 1 1 0 0 1 1 0 0 1 1 0 0 1 1 0 0 1 1 0 0 1 1 0 0 1 1 0 0 1 1 0 0 1 1 0 0 1 1 0 0 1 1 0 0 1 1 0 0 1 1 0 0 1 1 0 0 1 1 0 0 1 1 0 0 1 1 0 0 1 1 0 0 1 1 0 0 1 1 0 0 1 1 0 0 1 1 0 0 1 1 0 0 1 1 0 0 1 1 0 0 1 1 0 0 1 1 0 0 1 1 0 0 1 1 0 0 1 1 0 0 1 1 0 0 1 1 0 0 1 1 0 0 1 1 0 0 1 1 0 0 1 1 0 0 1 1 0 0 1 1 0 0 1 1 0 0 1 1 0 0 1 1 0 0 1 1 0 0 1 1 0 0 1 1 0 0 1 1 0 0 1 1 0 0 1 1 0 0 1 1 0 0 1 1 0 0 1 1 0 0 1 1 0 0 1 1 0 0 1 1 0 0 1 1 0 0 1 1 0 0 1 1 0 0 1 1 0 0 1 1 0 0 1 1 0 0 1 1 0 0 1 1 0 0 1 1 0 0 1 1 0 0 1 1 0 0 1 1 0 0 1 1 0 0 1 1 0 0 1 1 0 0 1 1 0 0 1 1 0 0 1 1 0 0 1 1 0 0 1 1 0 0 1 1 0 0 1 1 0 0 1 1 0 0 1 1 0 0 1 1 0 0 1 1 0 0 1 1 0 0 1 1 0 0 1 1 0 0 1 1 0 0 1 1 0 0 1 1 0 0 1 1 0 0 1 1 0 0 1 1 0 0 1 1 0 0 1 1 0 0 1 1 0 0 1 1 0 0 1 1 0 0 1 1 0 0 1 1 0 0 1 1 0 0 1 1 0 0 1 1 0 0 1 1 0 0 1 1 0 0 1 1 0 0 1 1 0 0 1 1 0 0 1 1 0 0 1 1 0 0 1 1 0 0 1 1 0 0 1 1 0 0 1 1 0 0 1 1 0 0 1 1 0 0 1 1 0 0 1 1 0 0 1 1 0 0 1 1 0 0 1 1 0 0 1 1 0 0 1 1 0 0 1 1 0 0 1 1 0 0 1 1 0 0 1 1 0 0 1 1 0 0 1 1 0 0 1 1 0 0 1 1 0 0 1 1 0 0 1 1 0 0 1 1 0 0 1 1 0 0 1 1 0 0 1 1 0 0 1 1 0 0 1 1 0 0 1 1 0 0 1 1 0 0 1 1 0 0 1 1 0 0 1 1 0 0 1 1 0 0 1 1 0 0 1 1 0 0 1 1 0 0 1 1 0 0 1 1 0 0 1 1 0 0 1 1 0 0 1 1 0 0 1 1 0 0 1 1 0 0 1 1 0 0 1 1 0 0 1 1 0 0 1 1 0 0 1 1 0 0 1 1 0 0 1 1 0 0 1 1 0 0 1 1 0 0 1 1 0 0 1 1 0 0 1 1 0 0 1 1 0 0 1 1 0 0 1 1 0 0 1 1 0 0 1 1 0 0 1 1 0 0 1 1 0 0 1 1 0 0 1 1 0 0 1 1 0 0 1 1 0 0 1 1 0 0 1 1 0 0 1 1 0 0 1 1 0 0 1 1 0 0 1 1 0 0 1 1 0 0 1 1 0 0 1 1 0 0 1 1 0 0 1 1 0 0 1 1</float_array>
                    <technique_common>
                        <accessor count="440" source="#shape0-lib-vcolor-array" stride="4">
                            <param name="R" type="float"/>
                            <param name="G" type="float"/>
                            <param name="B" type="float"/>
                            <param name="A" type="float"/>
                        </accessor>
                    </technique_common>
                </source>
                <source id="shape0-lib-map" name="map">
                    <float_array id="shape0-lib-map-array" count="2328">1 0.5 1 1 0.96875 1 1 0.5 0.96875 1 0.96875 0.5 0.96875 0.5 0.96875 1 0.9375 1 0.96875 0.5 0.9375 1 0.9375 0.5 0.9375 0.5 0.9375 1 0.90625 1 0.9375 0.5 0.90625 1 0.90625 0.5 0.90625 0.5 0.90625 1 0.875 1 0.90625 0.5 0.875 1 0.875 0.5 0.875 0.5 0.875 1 0.84375 1 0.875 0.5 0.84375 1 0.84375 0.5 0.84375 0.5 0.84375 1 0.8125 1 0.84375 0.5 0.8125 1 0.8125 0.5 0.8125 0.5 0.8125 1 0.78125 1 0.8125 0.5 0.78125 1 0.78125 0.5 0.78125 0.5 0.78125 1 0.75 1 0.78125 0.5 0.75 1 0.75 0.5 0.25 0.5 0.25 1 0.21875 1 0.25 0.5 0.21875 1 0.21875 0.5 0.21875 0.5 0.21875 1 0.1875 1 0.21875 0.5 0.1875 1 0.1875 0.5 0.1875 0.5 0.1875 1 0.15625 1 0.1875 0.5 0.15625 1 0.15625 0.5 0.15625 0.5 0.15625 1 0.125 1 0.15625 0.5 0.125 1 0.125 0.5 0.125 0.5 0.125 1 0.09375 1 0.125 0.5 0.09375 1 0.09375 0.5 0.09375 0.5 0.09375 1 0.0625 1 0.09375 0.5 0.0625 1 0.0625 0.5 0.0625 0.5 0.0625 1 0.03125 1 0.0625 0.5 0.03125 1 0.03125 0.5 0.03125 0.5 0.03125 1 0 1 0.03125 0.5 0 1 0 0.5 0.788659 0.444353 0.75 0.448161 0.75 0.49 0.788659 0.444353 0.75 0.49 0.796822 0.485388 0.25 0.448161 0.288659 0.444354 0.296822 0.485388 0.25 0.448161 0.296822 0.485388 0.25 0.49 0.825833 0.433077 0.788659 0.444353 0.796822 0.485388 0.825833 0.433077 0.796822 0.485388 0.841844 0.471731 0.288659 0.444354 0.325833 0.433077 0.341844 0.471731 0.288659 0.444354 0.341844 0.471731 0.296822 0.485388 0.860092 0.414765 0.825833 0.433077 0.841844 0.471731 0.860092 0.414765 0.841844 0.471731 0.883337 0.449553 0.325833 0.433077 0.360092 0.414765 0.383337 0.449553 0.325833 0.433077 0.383337 0.449553 0.341844 0.471731 0.890121 0.390121 0.860092 0.414765 0.883337 0.449553 0.890121 0.390121 0.883337 0.449553 0.919706 0.419706 0.360092 0.414765 0.390121 0.390121 0.419706 0.419706 0.360092 0.414765 0.419706 0.419706 0.383337 0.449553 0.914765 0.360092 0.890121 0.390121 0.919706 0.419706 0.914765 0.360092 0.919706 0.419706 0.949553 0.383337 0.390121 0.390121 0.414765 0.360092 0.449553 0.383337 0.390121 0.390121 0.449553 0.383337 0.419706 0.419706 0.933077 0.325833 0.914765 0.360092 0.949553 0.383337 0.933077 0.325833 0.949553 0.383337 0.971731 0.341844 0.414765 0.360092 0.433077 0.325833 0.471731 0.341844 0.414765 0.360092 0.471731 0.341844 0.449553 0.383337 0.944354 0.288659 0.933077 0.325833 0.971731 0.341844 0.944354 0.288659 0.971731 0.341844 0.985388 0.296822 0.433077 0.325833 0.444353 0.288659 0.485388 0.296822 0.433077 0.325833 0.485388 0.296822 0.471731 0.341844 0.948161 0.25 0.944354 0.288659 0.985388 0.296822 0.948161 0.25 0.985388 0.296822 0.99 0.25 0.444353 0.288659 0.448161 0.25 0.49 0.25 0.444353 0.288659 0.49 0.25 0.485388 0.296822 0.49 0.25 0.448161 0.25 0.948161 0.25 0.49 0.25 0.948161 0.25 0.99 0.25 0.555647 0.288659 0.551839 0.25 0.51 0.25 0.555647 0.288659 0.51 0.25 0.514612 0.296822 0.0518389 0.25 0.0556465 0.288659 0.0146115 0.296822 0.0518389 0.25 0.0146115 0.296822 0.01 0.25 0.566923 0.325833 0.555647 0.288659 0.514612 0.296822 0.566923 0.325833 0.514612 0.296822 0.528269 0.341844 0.0556465 0.288659 0.066923 0.325833 0.0282689 0.341844 0.0556465 0.288659 0.0282689 0.341844 0.0146115 0.296822 0.585235 0.360092 0.566923 0.325833 0.528269 0.341844 0.585235 0.360092 0.528269 0.341844 0.550447 0.383337 0.066923 0.325833 0.0852351 0.360092 0.0504473 0.383337 0.066923 0.325833 0.0504473 0.383337 0.0282689 0.341844 0.609879 0.390121 0.585235 0.360092 0.550447 0.383337 0.609879 0.390121 0.550447 0.383337 0.580294 0.419706 0.0852351 0.360092 0.109879 0.390121 0.0802944 0.419706 0.0852351 0.360092 0.0802944 0.419706 0.0504473 0.383337 0.639908 0.414765 0.609879 0.390121 0.580294 0.419706 0.639908 0.414765 0.580294 0.419706 0.616663 0.449553 0.109879 0.390121 0.139908 0.414765 0.116663 0.449553 0.109879 0.390121 0.116663 0.449553 0.0802944 0.419706 0.674167 0.433077 0.639908 0.414765 0.616663 0.449553 0.674167 0.433077 0.616663 0.449553 0.658156 0.471731 0.139908 0.414765 0.174167 0.433077 0.158156 0.471731 0.139908 0.414765 0.158156 0.471731 0.116663 0.449553 0.711341 0.444354 0.674167 0.433077 0.658156 0.471731 0.711341 0.444354 0.658156 0.471731 0.703178 0.485388 0.174167 0.433077 0.211341 0.444353 0.203178 0.485388 0.174167 0.433077 0.203178 0.485388 0.158156 0.471731 0.75 0.448161 0.711341 0.444354 0.703178 0.485388 0.75 0.448161 0.703178 0.485388 0.75 0.49 0.211341 0.444353 0.25 0.448161 0.25 0.49 0.211341 0.444353 0.25 0.49 0.203178 0.485388 0.01 0.25 0.51 0.25 0.551839 0.25 0.01 0.25 0.551839 0.25 0.0518389 0.25 0.944354 0.288659 0.948161 0.25 0.448161 0.25 0.944354 0.288659 0.448161 0.25 0.444353 0.288659 0.933077 0.325833 0.944354 0.288659 0.444353 0.288659 0.933077 0.325833 0.444353 0.288659 0.433077 0.325833 0.914765 0.360092 0.933077 0.325833 0.433077 0.325833 0.914765 0.360092 0.433077 0.325833 0.414765 0.360092 0.890121 0.390121 0.914765 0.360092 0.414765 0.360092 0.890121 0.390121 0.414765 0.360092 0.390121 0.390121 0.860092 0.414765 0.890121 0.390121 0.390121 0.390121 0.860092 0.414765 0.390121 0.390121 0.360092 0.414765 0.825833 0.433077 0.860092 0.414765 0.360092 0.414765 0.825833 0.433077 0.360092 0.414765 0.325833 0.433077 0.788659 0.444353 0.825833 0.433077 0.325833 0.433077 0.788659 0.444353 0.325833 0.433077 0.288659 0.444354 0.75 0.448161 0.788659 0.444353 0.288659 0.444354 0.75 0.448161 0.288659 0.444354 0.25 0.448161 0.711341 0.444354 0.75 0.448161 0.25 0.448161 0.711341 0.444354 0.25 0.448161 0.211341 0.444353 0.674167 0.433077 0.711341 0.444354 0.211341 0.444353 0.674167 0.433077 0.211341 0.444353 0.174167 0.433077 0.639908 0.414765 0.674167 0.433077 0.174167 0.433077 0.639908 0.414765 0.174167 0.433077 0.139908 0.414765 0.609879 0.390121 0.639908 0.414765 0.139908 0.414765 0.609879 0.390121 0.139908 0.414765 0.109879 0.390121 0.585235 0.360092 0.609879 0.390121 0.109879 0.390121 0.585235 0.360092 0.109879 0.390121 0.0852351 0.360092 0.566923 0.325833 0.585235 0.360092 0.0852351 0.360092 0.566923 0.325833 0.0852351 0.360092 0.066923 0.325833 0.0518389 0.25 0.551839 0.25 0.555647 0.288659 0.555647 0.288659 0.566923 0.325833 0.066923 0.325833 0.0556465 0.288659 0.0518389 0.25 0.555647 0.288659 0.066923 0.325833 0.0556465 0.288659 0.555647 0.288659 0.4 0.65 0.45 0.65 0.45 0.7 0.475 0.659487 0.475 0.65 0.5 0.65 0.5 0.65 0.5 0.665472 0.499516 0.66491 0.5 0.65 0.499516 0.66491 0.497783 0.663371 0.485794 0.659487 0.475 0.659487 0.5 0.65 0.488606 0.659662 0.485794 0.659487 0.5 0.65 0.5 0.65 0.497783 0.663371 0.495817 0.662048 0.5 0.65 0.495817 0.662048 0.493627 0.66097 0.49122 0.660165 0.488606 0.659662 0.5 0.65 0.5 0.65 0.493627 0.66097 0.49122 0.660165 0.566587 0.65 0.55 0.674982 0.55 0.65 0.725 0 0.7 0 0.7 0 0.725 0 0.7 0 0.710742 0 0.723345 0 0.725 0 0.725 0 0.7214 0 0.723345 0 0.725 0 0.725 0 0.710742 0 0.713848 0 0.725 0 0.713848 0 0.716657 0 0.719172 0 0.7214 0 0.725 0 0.725 0 0.716657 0 0.719172 0 0.5 0.665472 0.5 0.65 0.525 0.65 0.525 0.65 0.525 0.7 0.5 0.7 0.5 0.7 0.5 0.689075 0.50141 0.687294 0.5 0.7 0.50141 0.687294 0.502541 0.685391 0.501006 0.666638 0.5 0.665472 0.525 0.65 0.502244 0.668527 0.501006 0.666638 0.525 0.65 0.525 0.65 0.5 0.7 0.502541 0.685391 0.525 0.65 0.502541 0.685391 0.503412 0.683387 0.503223 0.670547 0.502244 0.668527 0.525 0.65 0.503933 0.672672 0.503223 0.670547 0.525 0.65 0.525 0.65 0.503412 0.683387 0.504026 0.681317 0.525 0.65 0.504026 0.681317 0.504391 0.679216 0.504366 0.674872 0.503933 0.672672 0.525 0.65 0.525 0.65 0.504391 0.679216 0.504512 0.67712 0.525 0.65 0.504512 0.67712 0.504366 0.674872 0.525 0.65 0.55 0.65 0.55 0.674982 0.525 0.65 0.55 0.674982 0.525 0.7 0.7 0 0.7 0 0.675 0 0.675 0 0.675 0 0.7 0 0.7 0 0.7 0 0.697039 0 0.697039 0 0.7 0 0.675 0 0.675 0 0.7 0 0.697039 0 0.675 0 0.697039 0 0.697039 0 0.65 0 0.625 0 0.65 0 0.675 0 0.65 0 0.65 0 0.675 0 0.65 0 0.675 0 1 0.35 1 0.3 1 0.3 1 0.225 1 0.2 1 0.2 1 0.225 1 0.2 1 0.225 1 0.2 1 0.175 1 0.2 0.45 0.7 0.45 0.65 0.475 0.65 0.475 0.65 0.475 0.659487 0.472039 0.659487 0.472039 0.694753 0.475 0.694753 0.475 0.7 0.45 0.7 0.475 0.65 0.472039 0.659487 0.472039 0.694753 0.475 0.7 0.45 0.7 0.472039 0.659487 0.472039 0.694753 0.45 0.7 1 0.3 1 0.3 1 0.275 1 0.275 1 0.275 1 0.27641 1 0.275 1 0.27641 1 0.277541 1 0.275 1 0.275 1 0.3 1 0.276006 1 0.275 1 0.3 1 0.3 1 0.275 1 0.277541 1 0.3 1 0.277541 1 0.278412 1 0.277244 1 0.276006 1 0.3 1 0.278223 1 0.277244 1 0.3 1 0.3 1 0.278412 1 0.279027 1 0.3 1 0.279027 1 0.279391 1 0.278933 1 0.278223 1 0.3 1 0.279366 1 0.278933 1 0.3 1 0.3 1 0.279391 1 0.279512 1 0.279512 1 0.279366 1 0.3 1 0.275 1 0.275 1 0.274516 1 0.275 1 0.274516 1 0.272783 1 0.25 1 0.25 1 0.275 1 0.260794 1 0.25 1 0.275 1 0.275 1 0.272783 1 0.270817 1 0.275 1 0.270817 1 0.268627 1 0.263606 1 0.260794 1 0.275 1 0.275 1 0.268627 1 0.26622 1 0.26622 1 0.263606 1 0.275 1 0.252107 1 0.252107 1 0.260173 1 0.260173 1 0.262862 1 0.265205 1 0.265205 1 0.267222 1 0.268935 1 0.268935 1 0.270366 1 0.271536 1 0.271536 1 0.272467 1 0.273181 1 0.273181 1 0.273698 1 0.274041 1 0.274041 1 0.274231 1 0.274289 1 0.274289 1 0.274195 1 0.273911 1 0.273911 1 0.273432 1 0.272757 1 0.272757 1 0.271883 1 0.270806 1 0.270806 1 0.269523 1 0.268031 1 0.268031 1 0.266327 1 0.264409 1 0.264409 1 0.262272 1 0.259915 1 0.259915 1 0.252107 1 0.260173 1 0.260173 1 0.265205 1 0.268935 1 0.268935 1 0.271536 1 0.273181 1 0.273181 1 0.274041 1 0.274289 1 0.274289 1 0.273911 1 0.272757 1 0.272757 1 0.270806 1 0.268031 1 0.268031 1 0.264409 1 0.259915 1 0.259915 1 0.260173 1 0.268935 1 0.268935 1 0.273181 1 0.274289 1 0.274289 1 0.272757 1 0.268031 1 0.268031 1 0.259915 1 0.268935 1 0.268935 1 0.274289 1 0.268031 0.725 0 0.725 0 0.724516 0 0.725 0 0.724516 0 0.722783 0 0.7 0 0.7 0 0.725 0 0.710794 0 0.7 0 0.725 0 0.725 0 0.722783 0 0.720817 0 0.725 0 0.720817 0 0.718627 0 0.713606 0 0.710794 0 0.725 0 0.725 0 0.718627 0 0.71622 0 0.71622 0 0.713606 0 0.725 0 0.702107 0 0.710173 0 0.712862 0 0.712862 0 0.715205 0 0.717222 0 0.717222 0 0.718935 0 0.720366 0 0.720366 0 0.721536 0 0.722467 0 0.722467 0 0.723181 0 0.723698 0 0.723698 0 0.724041 0 0.724231 0 0.724231 0 0.72429 0 0.724195 0 0.724195 0 0.723911 0 0.723432 0 0.723432 0 0.722757 0 0.721883 0 0.721883 0 0.720806 0 0.719523 0 0.719523 0 0.718031 0 0.716327 0 0.716327 0 0.714409 0 0.712272 0 0.712272 0 0.709915 0 0.702107 0 0.702107 0 0.702107 0 0.712862 0 0.712862 0 0.717222 0 0.720366 0 0.720366 0 0.722467 0 0.723698 0 0.723698 0 0.724231 0 0.724195 0 0.724195 0 0.723432 0 0.721883 0 0.721883 0 0.719523 0 0.716327 0 0.716327 0 0.712272 0 0.702107 0 0.702107 0 0.712862 0 0.720366 0 0.720366 0 0.723698 0 0.724195 0 0.724195 0 0.721883 0 0.716327 0 0.716327 0 0.702107 0 0.720366 0 0.720366 0 0.724195 0 0.716327 0 0.475 0.7 0.475 0.694753 0.485742 0.694753 0.475 0.7 0.485742 0.694753 0.488849 0.694565 0.5 0.689075 0.5 0.7 0.49875 0.7 0.49875 0.7 0.475 0.7 0.488849 0.694565 0.49875 0.7 0.488849 0.694565 0.491657 0.694025 0.498345 0.690649 0.5 0.689075 0.49875 0.7 0.4964 0.692031 0.498345 0.690649 0.49875 0.7 0.49875 0.7 0.491657 0.694025 0.494172 0.693168 0.494172 0.693168 0.4964 0.692031 0.49875 0.7 0.499289 0.67712 0.499195 0.678866 0.49891 0.680549 0.49891 0.680549 0.498432 0.682153 0.497757 0.68366 0.497757 0.68366 0.496883 0.685054 0.495806 0.686318 0.495806 0.686318 0.494523 0.687434 0.493031 0.688385 0.493031 0.688385 0.491327 0.689154 0.489409 0.689725 0.489409 0.689725 0.487272 0.69008 0.484915 0.690202 0.484915 0.690202 0.477107 0.690202 0.477107 0.664038 0.477107 0.664038 0.485173 0.664038 0.487862 0.664212 0.487862 0.664212 0.490205 0.664705 0.492222 0.665471 0.492222 0.665471 0.493935 0.666464 0.495366 0.667639 0.495366 0.667639 0.496536 0.66895 0.497467 0.670351 0.497467 0.670351 0.498181 0.671798 0.498698 0.673243 0.498698 0.673243 0.499041 0.674643 0.499231 0.67595 0.499231 0.67595 0.499289 0.67712 0.49891 0.680549 0.49891 0.680549 0.497757 0.68366 0.495806 0.686318 0.495806 0.686318 0.493031 0.688385 0.489409 0.689725 0.489409 0.689725 0.484915 0.690202 0.477107 0.664038 0.477107 0.664038 0.487862 0.664212 0.492222 0.665471 0.492222 0.665471 0.495366 0.667639 0.497467 0.670351 0.497467 0.670351 0.498698 0.673243 0.499231 0.67595 0.499231 0.67595 0.49891 0.680549 0.495806 0.686318 0.495806 0.686318 0.489409 0.689725 0.477107 0.664038 0.477107 0.664038 0.492222 0.665471 0.497467 0.670351 0.497467 0.670351 0.499231 0.67595 0.495806 0.686318 0.495806 0.686318 0.477107 0.664038 0.497467 0.670351 0.4025 1 0.4475 1 0.4475 1 0.4025 1 0.4475 1 0.4025 1 0.3525 1 0.3975 1 0.3975 1 0.3525 1 0.3975 1 0.3525 1 0.4525 1 0.475 1 0.475 1 0.4525 1 0.475 1 0.4525 1 0.1025 1 0.1475 1 0.1475 1 0.1025 1 0.1475 1 0.1025 1 0.2025 1 0.2475 1 0.2475 1 0.2025 1 0.2475 1 0.2025 1 0.1525 1 0.1975 1 0.1975 1 0.1525 1 0.1975 1 0.1525 1 0.2525 1 0.2975 1 0.2975 1 0.2525 1 0.2975 1 0.2525 1 0.3025 1 0.3475 1 0.3475 1 0.3025 1 0.3475 1 0.3025 1 0.475 1 0.49875 1 0.49875 1 0.475 1 0.49875 1 0.475 1 0.76 0 0.74 0 0.75 0 0.75 0 0.75 0 0.74 0 0.74 0 0.725 0 0.725 0 0.74 0 0.725 0 0.72641 0 0.725 0 0.75 0 0.74 0 0.726006 0 0.725 0 0.725 0 0.727245 0 0.726006 0 0.725 0 0.74 0 0.72641 0 0.727541 0 0.74 0 0.727541 0 0.728412 0 0.728223 0 0.727245 0 0.725 0 0.728933 0 0.728223 0 0.725 0 0.74 0 0.728412 0 0.729027 0 0.74 0 0.729027 0 0.729392 0 0.728933 0 0.725 0 0.74 0 0.729366 0 0.728933 0 0.74 0 0.74 0 0.729392 0 0.729512 0 0.74 0 0.729512 0 0.729366 0 0.8 0 0.76 0 0.75 0 0.8 0 0.75 0 0.75 0 1 0.26 1 0.24 1 0.25 1 0.25 1 0.25 1 0.24 1 0.24 1 0.225 1 0.225 1 0.225 1 0.25 1 0.25 1 0.225 1 0.25 1 0.247039 1 0.247039 1 0.25 1 0.24 1 0.225 1 0.247039 1 0.247039 1 0.24 1 0.225 1 0.247039 1 0.275 1 0.26 1 0.25 1 0.25 1 0.25 1 0.260742 1 0.275 1 0.25 1 0.260742 1 0.273345 1 0.275 1 0.275 1 0.2714 1 0.273345 1 0.275 1 0.275 1 0.260742 1 0.263849 1 0.275 1 0.263849 1 0.266657 1 0.269172 1 0.2714 1 0.275 1 0.275 1 0.266657 1 0.269172 0.675 0 0.65 0 0.65 0 0.675 0 0.65 0 0.675 0 0.725 0 0.7 0 0.7 0 0.725 0 0.7 0 0.725 0 0.65 0 0.625 0 0.625 0 0.65 0 0.625 0 0.65 0 0.7 0 0.675 0 0.675 0 0.7 0 0.675 0 0.7 0 0.8 0 0.75 0 0.75 0 0.8 0 0.75 0 0.8 0 0.75 0 0.725 0 0.725 0 0.75 0 0.725 0 0.75 0 0.4525 1 0.475 1 0.475 1 0.4525 1 0.475 1 0.4525 1 0.2525 1 0.2975 1 0.2975 1 0.2525 1 0.2975 1 0.2525 1 0.3025 1 0.3475 1 0.3475 1 0.3025 1 0.3475 1 0.3025 1 0.1025 1 0.1475 1 0.1475 1 0.1025 1 0.1475 1 0.1025 1 0.4025 1 0.4475 1 0.4475 1 0.4025 1 0.4475 1 0.4025 1 0.2025 1 0.2475 1 0.2475 1 0.2025 1 0.2475 1 0.2025 1 0.3525 1 0.3975 1 0.3975 1 0.3525 1 0.3975 1 0.3525 1 0.1525 1 0.1975 1 0.1975 1 0.1525 1 0.1975 1 0.1525 1 0.475 1 0.49875 1 0.49875 1 0.475 1 0.49875 1 0.475 1</float_array>
                    <technique_common>
                        <accessor count="1164" source="#shape0-lib-map-array" stride="2">
                            <param name="U" type="float"/>
                            <param name="V" type="float"/>
                        </accessor>
                    </technique_common>
                </source>
                <vertices id="shape0-lib-vertices">
                    <input semantic="POSITION" source="#shape0-lib-positions"/>
                </vertices>
                <triangles count="388" material="material0">
                    <input offset="0" semantic="VERTEX" source="#shape0-lib-vertices"/>
                    <input offset="1" semantic="COLOR" source="#shape0-lib-vcolor"/>
                    <input offset="2" semantic="NORMAL" source="#shape0-lib-normals"/>
                    <input offset="3" semantic="TEXCOORD" source="#shape0-lib-map"/>
                    <p>69 69 0 0 78 78 0 1 75 75 0 2 69 69 1 3 75 75 1 4 72 72 1 5 73 73 2 6 76 76 2 7 84 84 2 8 73 73 3 9 84 84 3 10 81 81 3 11 82 82 4 12 85 85 4 13 90 90 4 14 82 82 5 15 90 90 5 16 87 87 5 17 88 88 6 18 91 91 6 19 96 96 6 20 88 88 7 21 96 96 7 22 93 93 7 23 94 94 8 24 97 97 8 25 102 102 8 26 94 94 9 27 102 102 9 28 99 99 9 29 100 100 10 30 103 103 10 31 108 108 10 32 100 100 11 33 108 108 11 34 105 105 11 35 106 106 12 36 109 109 12 37 114 114 12 38 106 106 13 39 114 114 13 40 111 111 13 41 112 112 14 42 115 115 14 43 121 121 14 44 112 112 15 45 121 121 15 46 118 118 15 47 124 124 16 48 127 127 16 49 133 133 16 50 124 124 17 51 133 133 17 52 130 130 17 53 129 129 18 54 132 132 18 55 139 139 18 56 129 129 19 57 139 139 19 58 136 136 19 59 135 135 20 60 138 138 20 61 145 145 20 62 135 135 21 63 145 145 21 64 142 142 21 65 141 141 22 66 144 144 22 67 151 151 22 68 141 141 23 69 151 151 23 70 148 148 23 71 147 147 24 72 150 150 24 73 157 157 24 74 147 147 25 75 157 157 25 76 154 154 25 77 153 153 26 78 156 156 26 79 163 163 26 80 153 153 27 81 163 163 27 82 160 160 27 83 159 159 28 84 162 162 28 85 169 169 28 86 159 159 29 87 169 169 29 88 166 166 29 89 165 165 30 90 168 168 30 91 79 79 30 92 165 165 31 93 79 79 31 94 70 70 31 95 5 5 32 96 1 1 32 97 68 68 32 98 5 5 33 99 68 68 33 100 71 71 33 101 3 3 34 102 7 7 34 103 74 74 34 104 3 3 35 105 74 74 35 106 77 77 35 107 9 9 36 108 5 5 36 109 71 71 36 110 9 9 37 111 71 71 37 112 80 80 37 113 7 7 38 114 11 11 38 115 83 83 38 116 7 7 39 117 83 83 39 118 74 74 39 119 13 13 40 120 9 9 40 121 80 80 40 122 13 13 41 123 80 80 41 124 86 86 41 125 11 11 42 126 15 15 42 127 89 89 42 128 11 11 43 129 89 89 43 130 83 83 43 131 17 17 44 132 13 13 44 133 86 86 44 134 17 17 45 135 86 86 45 136 92 92 45 137 15 15 46 138 19 19 46 139 95 95 46 140 15 15 47 141 95 95 47 142 89 89 47 143 21 21 48 144 17 17 48 145 92 92 48 146 21 21 49 147 92 92 49 148 98 98 49 149 19 19 50 150 23 23 50 151 101 101 50 152 19 19 51 153 101 101 51 154 95 95 51 155 25 25 52 156 21 21 52 157 98 98 52 158 25 25 53 159 98 98 53 160 104 104 53 161 23 23 54 162 27 27 54 163 107 107 54 164 23 23 55 165 107 107 55 166 101 101 55 167 29 29 56 168 25 25 56 169 104 104 56 170 29 29 57 171 104 104 57 172 110 110 57 173 27 27 58 174 31 31 58 175 113 113 58 176 27 27 59 177 113 113 59 178 107 107 59 179 33 33 60 180 29 29 60 181 110 110 60 182 33 33 61 183 110 110 61 184 117 117 61 185 31 31 62 186 35 35 62 187 120 120 62 188 31 31 63 189 120 120 63 190 113 113 63 191 119 119 64 192 34 34 64 193 32 32 64 194 119 119 65 195 32 32 65 196 116 116 65 197 41 41 66 198 37 37 66 199 123 123 66 200 41 41 67 201 123 123 67 202 128 128 67 203 39 39 68 204 43 43 68 205 131 131 68 206 39 39 69 207 131 131 69 208 126 126 69 209 45 45 70 210 41 41 70 211 128 128 70 212 45 45 71 213 128 128 71 214 134 134 71 215 43 43 72 216 47 47 72 217 137 137 72 218 43 43 73 219 137 137 73 220 131 131 73 221 49 49 74 222 45 45 74 223 134 134 74 224 49 49 75 225 134 134 75 226 140 140 75 227 47 47 76 228 51 51 76 229 143 143 76 230 47 47 77 231 143 143 77 232 137 137 77 233 53 53 78 234 49 49 78 235 140 140 78 236 53 53 79 237 140 140 79 238 146 146 79 239 51 51 80 240 55 55 80 241 149 149 80 242 51 51 81 243 149 149 81 244 143 143 81 245 57 57 82 246 53 53 82 247 146 146 82 248 57 57 83 249 146 146 83 250 152 152 83 251 55 55 84 252 59 59 84 253 155 155 84 254 55 55 85 255 155 155 85 256 149 149 85 257 61 61 86 258 57 57 86 259 152 152 86 260 61 61 87 261 152 152 87 262 158 158 87 263 59 59 88 264 63 63 88 265 161 161 88 266 59 59 89 267 161 161 89 268 155 155 89 269 65 65 90 270 61 61 90 271 158 158 90 272 65 65 91 273 158 158 91 274 164 164 91 275 63 63 92 276 67 67 92 277 167 167 92 278 63 63 93 279 167 167 93 280 161 161 93 281 1 1 94 282 65 65 94 283 164 164 94 284 1 1 95 285 164 164 95 286 68 68 95 287 67 67 96 288 3 3 96 289 77 77 96 290 67 67 97 291 77 77 97 292 167 167 97 293 125 125 98 294 122 122 98 295 36 36 98 296 125 125 99 297 36 36 99 298 38 38 99 299 28 28 100 300 32 32 100 301 34 34 100 302 28 28 101 303 34 34 101 304 30 30 101 305 24 24 102 306 28 28 102 307 30 30 102 308 24 24 103 309 30 30 103 310 26 26 103 311 20 20 104 312 24 24 104 313 26 26 104 314 20 20 105 315 26 26 105 316 22 22 105 317 16 16 106 318 20 20 106 319 22 22 106 320 16 16 107 321 22 22 107 322 18 18 107 323 12 12 108 324 16 16 108 325 18 18 108 326 12 12 109 327 18 18 109 328 14 14 109 329 8 8 110 330 12 12 110 331 14 14 110 332 8 8 111 333 14 14 111 334 10 10 111 335 4 4 112 336 8 8 112 337 10 10 112 338 4 4 113 339 10 10 113 340 6 6 113 341 0 0 114 342 4 4 114 343 6 6 114 344 0 0 115 345 6 6 115 346 2 2 115 347 64 64 116 348 0 0 116 349 2 2 116 350 64 64 117 351 2 2 117 352 66 66 117 353 60 60 118 354 64 64 118 355 66 66 118 356 60 60 119 357 66 66 119 358 62 62 119 359 56 56 120 360 60 60 120 361 62 62 120 362 56 56 121 363 62 62 121 364 58 58 121 365 52 52 122 366 56 56 122 367 58 58 122 368 52 52 123 369 58 58 123 370 54 54 123 371 48 48 124 372 52 52 124 373 54 54 124 374 48 48 125 375 54 54 125 376 50 50 125 377 44 44 126 378 48 48 126 379 50 50 126 380 44 44 127 381 50 50 127 382 46 46 127 383 38 38 128 384 36 36 128 385 40 40 128 386 40 40 129 387 44 44 129 388 46 46 129 389 42 42 130 390 38 38 130 391 40 40 130 392 46 46 131 393 42 42 131 394 40 40 131 395 176 176 132 396 175 175 132 397 178 178 132 398 320 320 133 399 199 199 133 400 174 174 133 401 174 174 134 402 322 322 134 403 357 357 134 404 174 174 135 405 357 357 135 406 356 356 135 407 351 351 136 408 320 320 136 409 174 174 136 410 352 352 137 411 351 351 137 412 174 174 137 413 174 174 138 414 356 356 138 415 355 355 138 416 174 174 139 417 355 355 139 418 354 354 139 419 353 353 140 420 352 352 140 421 174 174 140 422 174 174 141 423 354 354 141 424 353 353 141 425 184 184 142 426 187 187 142 427 173 173 142 428 202 202 143 429 171 171 143 430 265 265 143 431 202 202 144 432 265 265 144 433 306 306 144 434 301 301 145 435 263 263 145 436 202 202 145 437 302 302 146 438 301 301 146 439 202 202 146 440 202 202 147 441 306 306 147 442 305 305 147 443 202 202 148 444 305 305 148 445 304 304 148 446 303 303 149 447 302 302 149 448 202 202 149 449 202 202 150 450 304 304 150 451 303 303 150 452 322 322 151 453 174 174 151 454 186 186 151 455 186 186 152 456 185 185 152 457 177 177 152 458 177 177 153 459 323 323 153 460 376 376 153 461 177 177 154 462 376 376 154 463 375 375 154 464 366 366 155 465 322 322 155 466 186 186 155 467 367 367 156 468 366 366 156 469 186 186 156 470 186 186 157 471 177 177 157 472 375 375 157 473 186 186 158 474 375 375 158 475 374 374 158 476 368 368 159 477 367 367 159 478 186 186 159 479 369 369 160 480 368 368 160 481 186 186 160 482 186 186 161 483 374 374 161 484 373 373 161 485 186 186 162 486 373 373 162 487 372 372 162 488 370 370 163 489 369 369 163 490 186 186 163 491 186 186 164 492 372 372 164 493 371 371 164 494 186 186 165 495 371 371 165 496 370 370 165 497 186 186 166 498 173 173 166 499 187 187 166 500 186 186 167 501 187 187 167 502 185 185 167 503 265 265 168 504 171 171 168 505 188 188 168 506 188 188 169 507 189 189 169 508 180 180 169 509 180 180 170 510 266 266 170 511 319 319 170 512 318 318 171 513 265 265 171 514 188 188 171 515 188 188 172 516 180 180 172 517 319 319 172 518 188 188 173 519 319 319 173 520 318 318 173 521 170 170 174 522 190 190 174 523 191 191 174 524 188 188 175 525 170 170 175 526 191 191 175 527 188 188 176 528 191 191 176 529 189 189 176 530 183 183 177 531 182 182 177 532 193 193 177 533 195 195 178 534 181 181 178 535 197 197 178 536 195 195 179 537 197 197 179 538 196 196 179 539 181 181 180 540 194 194 180 541 197 197 180 542 178 178 181 543 175 175 181 544 199 199 181 545 199 199 182 546 320 320 182 547 365 365 182 548 364 364 183 549 321 321 183 550 198 198 183 551 178 178 184 552 199 199 184 553 365 365 184 554 364 364 185 555 198 198 185 556 178 178 185 557 365 365 186 558 364 364 186 559 178 178 186 560 193 193 187 561 182 182 187 562 204 204 187 563 204 204 188 564 206 206 188 565 262 262 188 566 204 204 189 567 262 262 189 568 261 261 189 569 207 207 190 570 205 205 190 571 193 193 190 572 252 252 191 573 207 207 191 574 193 193 191 575 193 193 192 576 204 204 192 577 261 261 192 578 193 193 193 579 261 261 193 580 260 260 193 581 253 253 194 582 252 252 194 583 193 193 194 584 254 254 195 585 253 253 195 586 193 193 195 587 193 193 196 588 260 260 196 589 259 259 196 590 193 193 197 591 259 259 197 592 258 258 197 593 255 255 198 594 254 254 198 595 193 193 198 596 256 256 199 597 255 255 199 598 193 193 199 599 193 193 200 600 258 258 200 601 257 257 200 602 257 257 201 603 256 256 201 604 193 193 201 605 205 205 202 606 207 207 202 607 245 245 202 608 205 205 203 609 245 245 203 610 244 244 203 611 208 208 204 612 192 192 204 613 205 205 204 614 239 239 205 615 208 208 205 616 205 205 205 617 205 205 206 618 244 244 206 619 243 243 206 620 205 205 207 621 243 243 207 622 242 242 207 623 240 240 208 624 239 239 208 625 205 205 208 626 205 205 209 627 242 242 209 628 241 241 209 629 241 241 210 630 240 240 210 631 205 205 210 632 237 237 211 633 236 236 211 634 235 235 211 635 235 235 212 636 234 234 212 637 233 233 212 638 233 233 213 639 232 232 213 640 231 231 213 641 231 231 214 642 230 230 214 643 229 229 214 644 229 229 215 645 228 228 215 646 227 227 215 647 227 227 216 648 226 226 216 649 225 225 216 650 225 225 217 651 224 224 217 652 223 223 217 653 223 223 218 654 222 222 218 655 221 221 218 656 221 221 219 657 220 220 219 658 219 219 219 659 219 219 220 660 218 218 220 661 217 217 220 662 217 217 221 663 216 216 221 664 215 215 221 665 215 215 222 666 214 214 222 667 213 213 222 668 213 213 223 669 212 212 223 670 238 238 223 671 238 238 224 672 237 237 224 673 235 235 224 674 235 235 225 675 233 233 225 676 231 231 225 677 231 231 226 678 229 229 226 679 227 227 226 680 227 227 227 681 225 225 227 682 223 223 227 683 223 223 228 684 221 221 228 685 219 219 228 686 219 219 229 687 217 217 229 688 215 215 229 689 215 215 230 690 213 213 230 691 238 238 230 692 238 238 231 693 235 235 231 694 231 231 231 695 231 231 232 696 227 227 232 697 223 223 232 698 223 223 233 699 219 219 233 700 215 215 233 701 215 215 234 702 238 238 234 703 231 231 234 704 231 231 235 705 223 223 235 706 215 215 235 707 203 203 236 708 264 264 236 709 300 300 236 710 203 203 237 711 300 300 237 712 299 299 237 713 266 266 238 714 180 180 238 715 203 203 238 716 294 294 239 717 266 266 239 718 203 203 239 719 203 203 240 720 299 299 240 721 298 298 240 722 203 203 241 723 298 298 241 724 297 297 241 725 295 295 242 726 294 294 242 727 203 203 242 728 203 203 243 729 297 297 243 730 296 296 243 731 296 296 244 732 295 295 244 733 203 203 244 734 291 291 245 735 290 290 245 736 289 289 245 737 289 289 246 738 288 288 246 739 287 287 246 740 287 287 247 741 286 286 247 742 285 285 247 743 285 285 248 744 284 284 248 745 283 283 248 746 283 283 249 747 282 282 249 748 281 281 249 749 281 281 250 750 280 280 250 751 279 279 250 752 279 279 251 753 278 278 251 754 277 277 251 755 277 277 252 756 276 276 252 757 275 275 252 758 275 275 253 759 274 274 253 760 273 273 253 761 273 273 254 762 272 272 254 763 271 271 254 764 271 271 255 765 270 270 255 766 269 269 255 767 269 269 256 768 268 268 256 769 267 267 256 770 267 267 257 771 293 293 257 772 292 292 257 773 292 292 258 774 291 291 258 775 289 289 258 776 289 289 259 777 287 287 259 778 285 285 259 779 285 285 260 780 283 283 260 781 281 281 260 782 281 281 261 783 279 279 261 784 277 277 261 785 277 277 262 786 275 275 262 787 273 273 262 788 273 273 263 789 271 271 263 790 269 269 263 791 269 269 264 792 267 267 264 793 292 292 264 794 292 292 265 795 289 289 265 796 285 285 265 797 285 285 266 798 281 281 266 799 277 277 266 800 277 277 267 801 273 273 267 802 269 269 267 803 269 269 268 804 292 292 268 805 285 285 268 806 285 285 269 807 277 277 269 808 269 269 269 809 198 198 270 810 321 321 270 811 363 363 270 812 198 198 271 813 363 363 271 814 362 362 271 815 323 323 272 816 177 177 272 817 409 409 272 818 409 409 273 819 198 198 273 820 362 362 273 821 409 409 274 822 362 362 274 823 361 361 274 824 358 358 275 825 323 323 275 826 409 409 275 827 359 359 276 828 358 358 276 829 409 409 276 830 409 409 277 831 361 361 277 832 360 360 277 833 360 360 278 834 359 359 278 835 409 409 278 836 335 335 279 837 334 334 279 838 333 333 279 839 333 333 280 840 332 332 280 841 331 331 280 842 331 331 281 843 330 330 281 844 329 329 281 845 329 329 282 846 328 328 282 847 327 327 282 848 327 327 283 849 326 326 283 850 325 325 283 851 325 325 284 852 324 324 284 853 350 350 284 854 350 350 285 855 349 349 285 856 348 348 285 857 348 348 286 858 347 347 286 859 346 346 286 860 346 346 287 861 345 345 287 862 344 344 287 863 344 344 288 864 343 343 288 865 342 342 288 866 342 342 289 867 341 341 289 868 340 340 289 869 340 340 290 870 339 339 290 871 338 338 290 872 338 338 291 873 337 337 291 874 336 336 291 875 336 336 292 876 335 335 292 877 333 333 292 878 333 333 293 879 331 331 293 880 329 329 293 881 329 329 294 882 327 327 294 883 325 325 294 884 325 325 295 885 350 350 295 886 348 348 295 887 348 348 296 888 346 346 296 889 344 344 296 890 344 344 297 891 342 342 297 892 340 340 297 893 340 340 298 894 338 338 298 895 336 336 298 896 336 336 299 897 333 333 299 898 329 329 299 899 329 329 300 900 325 325 300 901 348 348 300 902 348 348 301 903 344 344 301 904 340 340 301 905 340 340 302 906 336 336 302 907 329 329 302 908 329 329 303 909 348 348 303 910 340 340 303 911 379 379 304 912 382 382 304 913 384 384 304 914 379 379 305 915 384 384 305 916 377 377 305 917 397 397 306 918 380 380 306 919 378 378 306 920 397 397 307 921 378 378 307 922 395 395 307 923 381 381 308 924 200 200 308 925 201 201 308 926 381 381 309 927 201 201 309 928 383 383 309 929 385 385 310 930 402 402 310 931 400 400 310 932 385 385 311 933 400 400 311 934 386 386 311 935 389 389 312 936 392 392 312 937 394 394 312 938 389 389 313 939 394 394 313 940 387 387 313 941 401 401 314 942 390 390 314 943 388 388 314 944 401 401 315 945 388 388 315 946 399 399 315 947 391 391 316 948 406 406 316 949 404 404 316 950 391 391 317 951 404 404 317 952 393 393 317 953 405 405 318 954 398 398 318 955 396 396 318 956 405 405 319 957 396 396 319 958 403 403 319 959 200 200 320 960 407 407 320 961 408 408 320 962 200 200 321 963 408 408 321 964 201 201 321 965 410 410 322 966 411 411 322 967 412 412 322 968 179 179 323 969 412 412 323 970 411 411 323 971 411 411 324 972 202 202 324 973 263 263 324 974 411 411 325 975 263 263 325 976 317 317 325 977 203 203 326 978 179 179 326 979 411 411 326 980 307 307 327 981 264 264 327 982 203 203 327 983 308 308 328 984 307 307 328 985 203 203 328 986 411 411 329 987 317 317 329 988 316 316 329 989 411 411 330 990 316 316 330 991 315 315 330 992 309 309 331 993 308 308 331 994 203 203 331 995 310 310 332 996 309 309 332 997 203 203 332 998 411 411 333 999 315 315 333 1000 314 314 333 1001 411 411 334 1002 314 314 334 1003 313 313 334 1004 310 310 335 1005 203 203 335 1006 411 411 335 1007 311 311 336 1008 310 310 336 1009 411 411 336 1010 411 411 337 1011 313 313 337 1012 312 312 337 1013 411 411 338 1014 312 312 338 1015 311 311 338 1016 172 172 339 1017 410 410 339 1018 412 412 339 1019 172 172 340 1020 412 412 340 1021 179 179 340 1022 413 413 341 1023 414 414 341 1024 415 415 341 1025 209 209 342 1026 415 415 342 1027 414 414 342 1028 414 414 343 1029 195 195 343 1030 196 196 343 1031 196 196 344 1032 192 192 344 1033 208 208 344 1034 196 196 345 1035 208 208 345 1036 211 211 345 1037 210 210 346 1038 209 209 346 1039 414 414 346 1040 196 196 347 1041 211 211 347 1042 210 210 347 1043 414 414 348 1044 196 196 348 1045 210 210 348 1046 204 204 349 1047 413 413 349 1048 415 415 349 1049 415 415 350 1050 209 209 350 1051 251 251 350 1052 204 204 351 1053 415 415 351 1054 251 251 351 1055 246 246 352 1056 206 206 352 1057 204 204 352 1058 247 247 353 1059 246 246 353 1060 204 204 353 1061 204 204 354 1062 251 251 354 1063 250 250 354 1064 204 204 355 1065 250 250 355 1066 249 249 355 1067 248 248 356 1068 247 247 356 1069 204 204 356 1070 204 204 357 1071 249 249 357 1072 248 248 357 1073 189 189 358 1074 191 191 358 1075 421 421 358 1076 189 189 359 1077 421 421 359 1078 419 419 359 1079 203 203 360 1080 180 180 360 1081 418 418 360 1082 203 203 361 1083 418 418 361 1084 422 422 361 1085 191 191 362 1086 190 190 362 1087 420 420 362 1088 191 191 363 1089 420 420 363 1090 421 421 363 1091 180 180 364 1092 189 189 364 1093 419 419 364 1094 180 180 365 1095 419 419 365 1096 418 418 365 1097 172 172 366 1098 179 179 366 1099 417 417 366 1100 172 172 367 1101 417 417 367 1102 416 416 367 1103 179 179 368 1104 203 203 368 1105 422 422 368 1106 179 179 369 1107 422 422 369 1108 417 417 369 1109 383 383 370 1110 201 201 370 1111 423 423 370 1112 383 383 371 1113 423 423 371 1114 426 426 371 1115 393 393 372 1116 404 404 372 1117 438 438 372 1118 393 393 373 1119 438 438 373 1120 431 431 373 1121 403 403 374 1122 396 396 374 1123 434 434 374 1124 403 403 375 1125 434 434 375 1126 437 437 375 1127 386 386 376 1128 400 400 376 1129 436 436 376 1130 386 386 377 1131 436 436 377 1132 428 428 377 1133 377 377 378 1134 384 384 378 1135 427 427 378 1136 377 377 379 1137 427 427 379 1138 424 424 379 1139 387 387 380 1140 394 394 380 1141 432 432 380 1142 387 387 381 1143 432 432 381 1144 429 429 381 1145 395 395 382 1146 378 378 382 1147 425 425 382 1148 395 395 383 1149 425 425 383 1150 433 433 383 1151 399 399 384 1152 388 388 384 1153 430 430 384 1154 399 399 385 1155 430 430 385 1156 435 435 385 1157 201 201 386 1158 408 408 386 1159 439 439 386 1160 201 201 387 1161 439 439 387 1162 423 423 387 1163</p>
                </triangles>
            </mesh>
        </geometry>
    </library_geometries>
    <library_visual_scenes>
        <visual_scene id="VisualSceneNode" name="VisualScene">
            <node id="node" name="node">
                <instance_geometry url="#shape0-lib">
                    <bind_material>
                        <technique_common>
                            <instance_material symbol="material0" target="#material0">
                                <bind_vertex_input semantic="UVSET0" input_semantic="TEXCOORD"/>
                            </instance_material>
                        </technique_common>
                    </bind_material>
                </instance_geometry>
            </node>
        </visual_scene>
    </library_visual_scenes>
    <scene>
        <instance_visual_scene url="#VisualSceneNode"/>
    </scene>
</COLLADA>
