<?xml version="1.0" encoding="UTF-8"?>
<COLLADA xmlns="http://www.collada.org/2005/11/COLLADASchema" version="1.4.1">
    <asset>
        <contributor>
            <author>VCGLab</author>
            <authoring_tool>VCGLib | MeshLab</authoring_tool>
        </contributor>
        <created>Tue May 5 19:49:31 2026 GMT</created>
        <modified>Tue May 5 19:49:31 2026 GMT</modified>
        <up_axis>Y_UP</up_axis>
    </asset>
    <library_images>
        <image id="texture0" name="texture0">
            <init_from>notexture.png</init_from>
        </image>
    </library_images>
    <library_materials>
        <material id="material0" name="material0">
            <instance_effect url="#material0-fx"/>
        </material>
    </library_materials>
    <library_effects>
        <effect id="material0-fx">
            <profile_COMMON>
                <newparam sid="texture0-surface">
                    <surface type="2D">
                        <init_from>texture0</init_from>
                        <format>R8G8B8</format>
                    </surface>
                </newparam>
                <newparam sid="texture0-sampler">
                    <sampler2D>
                        <source>texture0-surface</source>
                        <minfilter>LINEAR</minfilter>
                        <magfilter>LINEAR</magfilter>
                    </sampler2D>
                </newparam>
                <technique sid="common">
                    <blinn>
                        <diffuse>
                            <texture texture="texture0-sampler" texcoord="UVSET0"/>
                        </diffuse>
                    </blinn>
                </technique>
            </profile_COMMON>
        </effect>
    </library_effects>
    <library_geometries>
        <geometry id="shape0-lib" name="shape0">
            <mesh>
                <source id="shape0-lib-positions" name="position">
                    <float_array id="shape0-lib-positions-array" count="1560">-21.9184 39.9461 7.08309 -21.9184 39.9461 7.08309 -21.9184 1.9298 7.08308 -21.9184 1.9298 7.08308 -20.372 39.9461 6.93078 -20.372 39.9461 6.93078 -20.372 1.9298 6.93078 -20.372 1.9298 6.93078 -18.885 39.9461 6.47972 -18.885 39.9461 6.47972 -18.885 1.9298 6.47972 -18.885 1.9298 6.47972 -17.5147 39.9461 5.74724 -17.5147 39.9461 5.74724 -17.5147 1.9298 5.74724 -17.5147 1.9298 5.74724 -16.3135 39.9461 4.76149 -16.3135 39.9461 4.76149 -16.3135 1.9298 4.76148 -16.3135 1.9298 4.76148 -15.3278 39.9461 3.56034 -15.3278 39.9461 3.56034 -15.3278 1.9298 3.56034 -15.3278 1.9298 3.56034 -14.5953 39.9461 2.18996 -14.5953 39.9461 2.18996 -14.5953 1.9298 2.18996 -14.5953 1.9298 2.18996 -14.1442 39.9461 0.703016 -14.1442 39.9461 0.703016 -14.1442 1.9298 0.703014 -14.1442 1.9298 0.703014 -13.9919 39.9461 -0.843357 -13.9919 39.9461 -0.843357 -13.9919 1.9298 -0.843359 -13.9919 1.9298 -0.843359 -29.8448 39.9461 -0.843357 -29.8448 39.9461 -0.843357 -29.8448 1.9298 -0.843359 -29.8448 1.9298 -0.843359 -29.6925 39.9461 0.703016 -29.6925 39.9461 0.703016 -29.6925 1.9298 0.703014 -29.6925 1.9298 0.703014 -29.2414 39.9461 2.18996 -29.2414 39.9461 2.18996 -29.2414 1.9298 2.18996 -29.2414 1.9298 2.18996 -28.509 39.9461 3.56034 -28.509 39.9461 3.56034 -28.509 1.9298 3.56034 -28.509 1.9298 3.56034 -27.5232 39.9461 4.76149 -27.5232 39.9461 4.76149 -27.5232 1.9298 4.76148 -27.5232 1.9298 4.76148 -26.322 39.9461 5.74724 -26.322 39.9461 5.74724 -26.322 1.9298 5.74724 -26.322 1.9298 5.74724 -24.9517 39.9461 6.47972 -24.9517 39.9461 6.47972 -24.9517 1.9298 6.47972 -24.9517 1.9298 6.47972 -23.4647 39.9461 6.93078 -23.4647 39.9461 6.93078 -23.4647 1.9298 6.93078 -23.4647 1.9298 6.93078 -21.9184 39.9461 8.75664 -21.9184 39.9461 8.75664 -21.9184 39.9461 8.75664 -20.0455 39.9461 8.57218 -20.0455 39.9461 8.57218 -20.0455 39.9461 8.57218 -20.0455 1.9298 8.57218 -20.0455 1.9298 8.57218 -20.0455 1.9298 8.57218 -21.9184 1.9298 8.75664 -21.9184 1.9298 8.75664 -21.9184 1.9298 8.75664 -18.2446 39.9461 8.02589 -18.2446 39.9461 8.02589 -18.2446 39.9461 8.02589 -18.2446 1.9298 8.02588 -18.2446 1.9298 8.02588 -18.2446 1.9298 8.02588 -16.5849 39.9461 7.13875 -16.5849 39.9461 7.13875 -16.5849 39.9461 7.13875 -16.5849 1.9298 7.13875 -16.5849 1.9298 7.13875 -16.5849 1.9298 7.13875 -15.1301 39.9461 5.94487 -15.1301 39.9461 5.94487 -15.1301 39.9461 5.94487 -15.1301 1.9298 5.94487 -15.1301 1.9298 5.94487 -15.1301 1.9298 5.94487 -13.9362 39.9461 4.49012 -13.9362 39.9461 4.49012 -13.9362 39.9461 4.49012 -13.9362 1.9298 4.49012 -13.9362 1.9298 4.49012 -13.9362 1.9298 4.49012 -13.0491 39.9461 2.8304 -13.0491 39.9461 2.8304 -13.0491 39.9461 2.8304 -13.0491 1.9298 2.8304 -13.0491 1.9298 2.8304 -13.0491 1.9298 2.8304 -12.5028 39.9461 1.02951 -12.5028 39.9461 1.02951 -12.5028 39.9461 1.02951 -12.5028 1.9298 1.02951 -12.5028 1.9298 1.02951 -12.5028 1.9298 1.02951 -12.3184 39.9461 -0.843357 -12.3184 39.9461 -0.843357 -12.3184 39.9461 -0.843357 -12.3184 1.9298 -0.843359 -12.3184 1.9298 -0.843359 -12.3184 1.9298 -0.843359 -31.5184 39.9461 -0.843357 -31.5184 39.9461 -0.843357 -31.5184 39.9461 -0.843357 -31.5184 1.9298 -0.843359 -31.5184 1.9298 -0.843359 -31.5184 1.9298 -0.843359 -31.3339 39.9461 1.02951 -31.3339 39.9461 1.02951 -31.3339 39.9461 1.02951 -31.3339 1.9298 1.02951 -31.3339 1.9298 1.02951 -31.3339 1.9298 1.02951 -30.7876 39.9461 2.8304 -30.7876 39.9461 2.8304 -30.7876 39.9461 2.8304 -30.7876 1.9298 2.8304 -30.7876 1.9298 2.8304 -30.7876 1.9298 2.8304 -29.9005 39.9461 4.49012 -29.9005 39.9461 4.49012 -29.9005 39.9461 4.49012 -29.9005 1.9298 4.49012 -29.9005 1.9298 4.49012 -29.9005 1.9298 4.49012 -28.7066 39.9461 5.94487 -28.7066 39.9461 5.94487 -28.7066 39.9461 5.94487 -28.7066 1.9298 5.94487 -28.7066 1.9298 5.94487 -28.7066 1.9298 5.94487 -27.2518 39.9461 7.13875 -27.2518 39.9461 7.13875 -27.2518 39.9461 7.13875 -27.2518 1.9298 7.13875 -27.2518 1.9298 7.13875 -27.2518 1.9298 7.13875 -25.5921 39.9461 8.02589 -25.5921 39.9461 8.02589 -25.5921 39.9461 8.02589 -25.5921 1.9298 8.02588 -25.5921 1.9298 8.02588 -25.5921 1.9298 8.02588 -23.7912 39.9461 8.57218 -23.7912 39.9461 8.57218 -23.7912 39.9461 8.57218 -23.7912 1.9298 8.57218 -23.7912 1.9298 8.57218 -23.7912 1.9298 8.57218 -53.9184 -10.8657 -0.843358 35.6816 27.5343 -0.843358 35.6816 33.9343 -0.843358 -60.4267 -4.46574 -0.843358 -60.4267 1.93426 -0.843358 35.6816 24.3343 -0.843358 32.4793 21.1343 -0.843358 -60.4267 5.13426 -0.843358 -53.9184 11.5343 -0.843358 -57.1725 8.33426 -0.843358 -21.9184 -55.6657 -0.843358 -15.5184 -55.6657 -0.843358 -25.1184 -55.6657 -0.843358 -28.3184 -52.4657 -0.843358 35.6816 30.7343 -0.843358 112.482 30.7343 -0.843358 118.882 30.7343 -0.843358 -60.4267 -1.26574 -0.843358 -18.7184 -55.6657 -0.843358 -18.7184 -50.6641 -0.843358 -18.7184 -53.6853 -0.843358 -21.9184 -54.4514 -0.843358 -21.9184 -49.9374 -0.843358 -22.2973 -49.9374 -0.843358 -22.2973 -54.4514 -0.843358 -20.3475 -50.5355 -0.843358 -20.074 -50.5809 -0.843358 -19.8285 -50.654 -0.843358 -19.6104 -50.7525 -0.843358 -19.4195 -50.8743 -0.843358 -19.2552 -51.0171 -0.843358 -19.1174 -51.1788 -0.843358 -19.0054 -51.3572 -0.843358 -18.919 -51.5502 -0.843358 -18.8578 -51.7555 -0.843358 -18.8214 -51.971 -0.843358 -18.8093 -52.1944 -0.843358 -18.8168 -52.3441 -0.843358 -18.8411 -52.5115 -0.843358 -18.885 -52.6906 -0.843358 -18.9512 -52.8756 -0.843358 -19.0426 -53.0607 -0.843358 -19.1618 -53.2401 -0.843358 -19.3115 -53.4079 -0.843358 -19.4947 -53.5583 -0.843358 -19.714 -53.6854 -0.843358 -19.9722 -53.7835 -0.843358 -20.272 -53.8466 -0.843358 -20.6162 -53.8689 -0.843358 -21.6487 -53.8689 -0.843358 -21.6487 -50.5199 -0.843358 -20.6493 -50.5199 -0.843358 -20.5368 -54.4514 -0.843358 -20.1768 -54.4291 -0.843358 -19.8422 -54.3646 -0.843358 -19.5342 -54.2616 -0.843358 -19.2537 -54.1236 -0.843358 -19.0021 -53.9543 -0.843358 -18.7803 -53.7572 -0.843358 -18.9302 -50.4626 -0.843358 -19.1792 -50.2858 -0.843358 -19.4643 -50.1402 -0.843358 -19.7863 -50.0306 -0.843358 -20.1458 -49.9615 -0.843358 -20.5434 -49.9374 -0.843358 -18.5896 -53.536 -0.843358 -18.4311 -53.2943 -0.843358 -18.3058 -53.0357 -0.843358 -18.2149 -52.7637 -0.843358 -18.1595 -52.4821 -0.843358 -18.1408 -52.1944 -0.843358 -18.1562 -51.9261 -0.843358 -18.203 -51.6572 -0.843358 -18.2817 -51.3922 -0.843358 -18.3931 -51.1357 -0.843358 -18.5378 -50.8922 -0.843358 -55.3709 -1.26574 -0.843358 -58.3921 -1.26574 -0.843358 -54.6442 1.93426 -0.843358 -59.1581 1.93426 -0.843358 -55.2423 0.363428 -0.843358 -55.2877 0.0899544 -0.843358 -55.3608 -0.155621 -0.843358 -55.4593 -0.37369 -0.843358 -55.581 -0.564634 -0.843358 -55.7239 -0.728857 -0.843358 -55.8856 -0.866743 -0.843358 -56.064 -0.978682 -0.843358 -56.257 -1.06507 -0.843358 -56.4623 -1.12629 -0.843358 -56.6777 -1.16273 -0.843358 -56.9012 -1.17479 -0.843358 -57.0509 -1.1673 -0.843358 -57.2183 -1.14299 -0.843358 -57.3974 -1.09909 -0.843358 -57.5824 -1.03286 -0.843358 -57.7675 -0.941526 -0.843358 -57.9469 -0.822349 -0.843358 -58.1147 -0.672554 -0.843358 -58.2651 -0.489393 -0.843358 -58.3922 -0.270103 -0.843358 -58.4903 -0.0119304 -0.843358 -58.5534 0.287886 -0.843358 -58.5757 0.632103 -0.843358 -58.5757 1.66461 -0.843358 -55.2267 1.66461 -0.843358 -55.2267 0.665196 -0.843358 -59.1581 0.552677 -0.843358 -59.1358 0.192701 -0.843358 -59.0714 -0.141888 -0.843358 -58.9684 -0.449943 -0.843358 -58.8304 -0.73036 -0.843358 -58.6611 -0.982002 -0.843358 -58.464 -1.20375 -0.843358 -55.1694 -1.05388 -0.843358 -54.9926 -0.804882 -0.843358 -54.847 -0.519752 -0.843358 -54.7374 -0.197805 -0.843358 -54.6683 0.16165 -0.843358 -54.6442 0.559294 -0.843358 -58.2428 -1.39447 -0.843358 -58.0011 -1.55304 -0.843358 -57.7425 -1.67833 -0.843358 -57.4705 -1.76922 -0.843358 -57.1889 -1.82458 -0.843358 -56.9012 -1.84327 -0.843358 -56.6329 -1.82786 -0.843358 -56.364 -1.78114 -0.843358 -56.099 -1.70242 -0.843358 -55.8424 -1.59103 -0.843358 -55.5989 -1.44627 -0.843358 -54.6442 2.31324 -0.843358 -59.1581 2.31324 -0.843358 30.496 30.7343 -0.843358 35.01 30.7343 -0.843358 31.2621 27.5343 -0.843358 34.2832 27.5343 -0.843358 34.4119 29.1634 -0.843358 34.3664 28.89 -0.843358 34.2934 28.6444 -0.843358 34.1949 28.4263 -0.843358 34.0731 28.2354 -0.843358 33.9303 28.0711 -0.843358 33.7686 27.9333 -0.843358 33.5901 27.8213 -0.843358 33.3972 27.7349 -0.843358 33.1919 27.6737 -0.843358 32.9764 27.6373 -0.843358 32.753 27.6252 -0.843358 32.6033 27.6327 -0.843358 32.4359 27.657 -0.843358 32.2568 27.7009 -0.843358 32.0718 27.7671 -0.843358 31.8866 27.8585 -0.843358 31.7073 27.9777 -0.843358 31.5395 28.1275 -0.843358 31.3891 28.3106 -0.843358 31.2619 28.5299 -0.843358 31.1639 28.7881 -0.843358 31.1008 29.0879 -0.843358 31.0785 29.4321 -0.843358 31.0785 30.4646 -0.843358 34.4275 30.4646 -0.843358 34.4275 29.4652 -0.843358 30.496 29.3527 -0.843358 30.5183 28.9927 -0.843358 30.5828 28.6581 -0.843358 30.6858 28.3501 -0.843358 30.8238 28.0696 -0.843358 30.9931 27.818 -0.843358 31.1902 27.5963 -0.843358 34.4847 27.7461 -0.843358 34.6616 27.9951 -0.843358 34.8072 28.2803 -0.843358 34.9168 28.6022 -0.843358 34.9859 28.9617 -0.843358 35.01 29.3593 -0.843358 35.01 31.1132 -0.843358 30.496 31.1132 -0.843358 31.4114 27.4055 -0.843358 31.6531 27.247 -0.843358 31.9117 27.1217 -0.843358 32.1836 27.0308 -0.843358 32.4653 26.9754 -0.843358 32.753 26.9567 -0.843358 33.0213 26.9721 -0.843358 33.2902 27.0189 -0.843358 33.5552 27.0976 -0.843358 33.8117 27.209 -0.843358 34.0552 27.3537 -0.843358 118.882 40.0143 -0.843358 118.882 40.6543 -0.843358 112.482 40.0143 -0.843358 112.482 40.6543 -0.843358 112.482 33.6143 -0.843358 112.482 34.2543 -0.843358 118.882 33.6143 -0.843358 118.882 34.2543 -0.843358 112.482 78.4143 -0.843358 118.882 78.4143 -0.843358 118.882 65.6143 -0.843358 118.882 66.2543 -0.843358 112.482 65.6143 -0.843358 112.482 66.2543 -0.843358 112.482 59.2143 -0.843358 112.482 59.8543 -0.843358 118.882 59.2143 -0.843358 118.882 59.8543 -0.843358 118.882 46.4143 -0.843358 118.882 47.0543 -0.843358 112.482 46.4143 -0.843358 112.482 47.0543 -0.843358 118.882 72.0143 -0.843358 118.882 72.6543 -0.843358 112.482 72.0143 -0.843358 112.482 72.6543 -0.843358 118.882 52.8143 -0.843358 118.882 53.4543 -0.843358 112.482 52.8143 -0.843358 112.482 53.4543 -0.843358 112.482 27.6943 -0.843358 118.882 27.6943 -0.843358 35.6816 27.6943 -0.843358 -55.1984 -4.46574 -0.843358 -21.9184 -49.9342 -0.843358 -53.9184 -10.8657 -0.843358 -60.4267 -4.46574 -0.843358 -60.4267 1.93426 -0.843358 -60.4267 5.13426 -0.843358 -53.9184 11.5343 -0.843358 -57.1725 8.33426 -0.843358 -60.4267 -1.26574 -0.843358 118.882 30.7343 -0.843358 118.882 40.0143 -0.843358 118.882 40.6543 -0.843358 118.882 33.6143 -0.843358 118.882 34.2543 -0.843358 118.882 78.4143 -0.843358 118.882 65.6143 -0.843358 118.882 66.2543 -0.843358 118.882 59.2143 -0.843358 118.882 59.8543 -0.843358 118.882 46.4143 -0.843358 118.882 47.0543 -0.843358 118.882 72.0143 -0.843358 118.882 72.6543 -0.843358 118.882 52.8143 -0.843358 118.882 53.4543 -0.843358 118.882 27.6943 -0.843358 -28.3184 -49.666 -0.843358 -31.1249 -49.6592 -0.843358 -22.4101 -49.6774 -0.843358 -15.5184 -49.6866 -0.843358 -21.4291 -49.6787 -0.843358 -25.1184 -49.6738 -0.843358 -9.54721 -49.6946 -0.843358 -18.7184 -49.6823 -0.843358 32.0796 20.7349 -0.843358 31.6799 20.3354 -0.843358 31.2802 19.936 -0.843358 30.8805 19.5366 -0.843358 30.4808 19.1372 -0.843358 30.0811 18.7378 -0.843358 29.6813 18.3384 -0.843358 29.7083 39.9076 -0.843358 30.135 39.4809 -0.843358 30.5616 39.0543 -0.843358 30.9883 38.6276 -0.843358 31.415 38.2009 -0.843358 31.8416 37.7743 -0.843358 32.2683 37.3476 -0.843358 32.695 36.9209 -0.843358 33.1216 36.4943 -0.843358 33.5483 36.0676 -0.843358 33.975 35.6409 -0.843358 34.4016 35.2143 -0.843358 34.8283 34.7876 -0.843358 35.255 34.3609 -0.843358 -54.335 -1.26574 -0.843358 -54.3486 -10.4426 -0.843358 -54.341 -5.32309 -0.843358 -54.3302 1.93426 -0.843358 -54.3385 -3.60582 -0.843358 -54.3254 5.13426 -0.843358 -54.3165 11.1428 -0.843358 -54.3207 8.33426 -0.843358 -54.3165 11.1428 -0.843358 29.6881 27.5343 -0.843358 29.6829 24.3343 -0.843358 29.6776 21.1343 -0.843358 29.6986 33.9343 -0.843358 29.6731 18.3301 -0.843358 29.6933 30.7343 -0.843358 -28.6302 -49.6652 -0.843358 -28.942 -49.6645 -0.843358 -29.2539 -49.6637 -0.843358 -29.5657 -49.6629 -0.843358 -29.8775 -49.6622 -0.843358 -30.1894 -49.6614 -0.843358 -30.5012 -49.6607 -0.843358 -30.8131 -49.66 -0.843358 -27.9628 -52.8213 -0.843358 -27.6072 -53.1768 -0.843358 -27.2517 -53.5324 -0.843358 -26.8961 -53.8879 -0.843358 -26.5406 -54.2435 -0.843358 -26.185 -54.5991 -0.843358 -25.8295 -54.9546 -0.843358 -25.4739 -55.3102 -0.843358 -27.9628 -49.6668 -0.843358 -27.6072 -49.6677 -0.843358 -27.2517 -49.6686 -0.843358 -26.8961 -49.6694 -0.843358 -26.5406 -49.6703 -0.843358 -26.185 -49.6712 -0.843358 -25.8295 -49.672 -0.843358 -25.4739 -49.6729 -0.843358 -23.1957 -49.6763 -0.843358 -24.7979 -49.6742 -0.843358 -24.4775 -49.6746 -0.843358 -24.157 -49.6751 -0.843358 -23.8366 -49.6755 -0.843358 -23.5161 -49.6759 -0.843358 -20.6348 -49.6798 -0.843358 -20.3154 -49.6802 -0.843358 -19.996 -49.6806 -0.843358 -19.6766 -49.6811 -0.843358 -19.3572 -49.6815 -0.843358 -19.0378 -49.6819 -0.843358 -18.3184 -49.6829 -0.843358 -17.9184 -49.6834 -0.843358 -17.5184 -49.6839 -0.843358 -17.1184 -49.6845 -0.843358 -16.7184 -49.685 -0.843358 -16.3184 -49.6855 -0.843358 -15.9184 -49.6861 -0.843358 -15.1203 -49.6871 -0.843358 -14.7222 -49.6877 -0.843358 -14.3241 -49.6882 -0.843358 -13.9261 -49.6887 -0.843358 -13.528 -49.6893 -0.843358 -13.1299 -49.6898 -0.843358 -12.7318 -49.6903 -0.843358 -12.3337 -49.6909 -0.843358 -11.9357 -49.6914 -0.843358 -11.5376 -49.6919 -0.843358 -11.1395 -49.6925 -0.843358 -10.7414 -49.693 -0.843358 -10.3434 -49.6935 -0.843358 -9.94529 -49.6941 -0.843358</float_array>
                    <technique_common>
                        <accessor count="520" source="#shape0-lib-positions-array" stride="3">
                            <param name="X" type="float"/>
                            <param name="Y" type="float"/>
                            <param name="Z" type="float"/>
                        </accessor>
                    </technique_common>
                </source>
                <source id="shape0-lib-normals" name="normal">
                    <float_array id="shape0-lib-normals-array" count="1404">0.0980174 -7.48954e-08 0.995185 0.0980174 -7.45642e-08 0.995185 0.290285 -7.20172e-08 0.95694 0.290285 -7.24813e-08 0.95694 0.471396 -6.63714e-08 0.881922 0.471397 -4.49884e-08 0.881921 0.634393 -3.87834e-08 0.773011 0.634393 -4.83209e-08 0.773011 0.77301 -3.97859e-08 0.634393 0.77301 -3.99897e-08 0.634393 0.881921 -2.95635e-08 0.471397 0.881921 -2.33273e-08 0.471397 0.956941 -1.4564e-08 0.290283 0.956941 -1.49961e-08 0.290283 0.995185 -4.91776e-09 0.0980183 0.995185 -5.41527e-09 0.0980183 -0.995185 -5.07144e-09 0.0980183 -0.995185 -4.99871e-09 0.0980183 -0.95694 -1.45642e-08 0.290287 -0.95694 -1.49961e-08 0.290287 -0.881923 -2.36507e-08 0.471393 -0.881923 -2.99923e-08 0.471393 -0.77301 -3.97859e-08 0.634394 -0.77301 -3.99897e-08 0.634394 -0.634393 -4.84792e-08 0.773011 -0.634392 -3.83234e-08 0.773011 -0.471397 -4.42476e-08 0.881921 -0.471397 -6.66496e-08 0.881921 -0.290284 -7.20172e-08 0.95694 -0.290284 -7.24812e-08 0.95694 -0.0980173 -7.48954e-08 0.995185 -0.0980173 -7.45641e-08 0.995185 0 1 0 0 1 0 0 -1 0 0 -1 0 0 1 0 0 1 0 0 -1 0 0 -1 0 0 1 0 0 1 0 0 -1 0 0 -1 0 0 1 0 0 1 0 0 -1 0 0 -1 0 0 1 0 0 1 0 0 -1 0 0 -1 0 0 1 0 0 1 0 0 -1 0 0 -1 0 0 1 0 0 1 0 0 -1 0 0 -1 0 0 1 0 0 1 0 0 -1 0 0 -1 0 0 5.17397e-08 -1 0 5.17397e-08 -1 0 1 0 0 1 0 0 -1 0 0 -1 0 0 1 0 0 1 0 0 -1 0 0 -1 0 0 1 0 0 1 0 0 -1 0 0 -1 0 0 1 0 0 1 0 0 -1 0 0 -1 0 0 1 0 0 1 0 0 -1 0 0 -1 0 0 1 0 0 1 0 0 -1 0 0 -1 0 0 1 0 0 1 0 0 -1 0 0 -1 0 0 1 0 0 1 0 0 -1 0 0 -1 0 0 5.17397e-08 -1 0 5.17397e-08 -1 -0.995185 5.0451e-09 -0.0980167 -0.995185 4.61032e-09 -0.0980167 -0.956941 1.31173e-08 -0.290284 -0.956941 1.45641e-08 -0.290284 -0.881921 2.42165e-08 -0.471397 -0.881921 2.36509e-08 -0.471397 -0.773011 3.22887e-08 -0.634393 -0.77301 3.97858e-08 -0.634393 -0.634392 4.84329e-08 -0.773011 -0.634392 4.84792e-08 -0.773011 -0.471397 5.65051e-08 -0.881921 -0.471396 7.74333e-08 -0.881921 -0.290284 8.47577e-08 -0.95694 -0.290285 6.00143e-08 -0.95694 -0.0980174 6.25593e-08 -0.995185 -0.0980174 6.24128e-08 -0.995185 0.0980174 6.2307e-08 -0.995185 0.0980174 6.24128e-08 -0.995185 0.290284 5.95322e-08 -0.95694 0.290285 8.402e-08 -0.95694 0.471397 7.66855e-08 -0.881921 0.471397 5.53095e-08 -0.881921 0.634392 4.84329e-08 -0.773011 0.634392 4.84792e-08 -0.773011 0.77301 4.03608e-08 -0.634394 0.77301 3.18287e-08 -0.634394 0.881921 2.21984e-08 -0.471397 0.881921 2.36509e-08 -0.471397 0.995185 5.07142e-09 -0.0980179 0.956941 1.41263e-08 -0.290283 0.995185 4.61038e-09 -0.0980179 0.956941 1.31173e-08 -0.290283 0 0 1 0 0 1 0 0 1 0 0 1 0 0 1 0 0 1 0 0 1 0 0 1 0 0 1 0 0 1 0 0 1 0 0 1 0 0 1 0 0 1 0 0 1 0 0 1 0 0 1 0 0 1 0 0 1 0 0 1 0 0 1 0 0 1 0 0 1 0 0 1 0 0 1 0 0 1 0 0 1 0 0 1 0 0 1 0 0 1 0 0 1 0 0 1 0 0 1 0 0 1 0 0 1 0 0 1 0 0 1 0 0 1 0 0 1 0 0 1 0 0 1 0 0 1 0 0 1 0 0 1 0 0 1 0 0 1 0 0 1 0 0 1 0 0 1 0 0 1 0 0 1 0 0 1 0 0 1 0 0 1 0 0 1 0 0 1 0 0 1 0 0 1 0 0 1 0 0 1 0 0 1 0 0 1 0 0 1 0 0 1 0 0 1 0 0 1 0 0 1 0 0 1 0 0 1 0 0 1 0 0 1 0 0 1 0 0 1 0 0 1 0 0 1 0 0 1 0 0 1 0 0 1 0 0 1 0 0 1 0 0 1 0 0 1 0 0 1 0 0 1 0 0 1 0 0 1 0 0 1 0 0 1 0 0 1 0 0 1 0 0 1 0 0 1 0 0 1 0 0 1 0 0 1 0 0 1 0 0 1 0 0 1 0 0 1 0 0 1 0 0 1 0 0 1 0 0 1 0 0 1 0 0 1 0 0 1 0 0 1 0 0 1 0 0 1 0 0 1 0 0 1 0 0 1 0 0 1 0 0 1 0 0 1 0 0 1 0 0 1 0 0 1 0 0 1 0 0 1 0 0 1 0 0 1 0 0 1 0 0 1 0 0 1 0 0 1 0 0 1 0 0 1 0 0 1 0 0 1 0 0 1 0 0 1 0 0 1 0 0 1 0 0 1 0 0 1 0 0 1 0 0 1 0 0 1 0 0 1 0 0 1 0 0 1 0 0 1 0 0 1 0 0 1 0 0 1 0 0 1 0 0 1 0 0 1 0 0 0 0 0 0 0 0 0 0 0 0 0 0 0 0 0 0 0 0 0 0 0 0 0 0 0 0 0 0 0 0 0 0 0 0 0 0 0 0 0 0 0 0 0 0 0 0 0 0 0 0 0 0 0 0 0 0 0 0 0 0 0 0 0 0 0 0 0 0 0 0 0 0 0 0 0 0 0 0 0 0 0 0 0 0 0 0 0 0 0 0 1 0 0 1 0 0 1 0 0 1 0 0 1 0 0 1 0 0 1 0 0 1 0 0 1 0 0 1 0 0 1 0 0 1 0 0 1 0 0 1 0 0 1 0 0 1 0 0 1 0 0 1 0 0 1 0 0 1 0 0 1 0 0 1 0 0 1 0 0 1 0 0 1 0 0 1 0 0 1 0 0 1 0 0 1 0 0 1 0 0 1 0 0 1 0 0 1 0 0 1 0 0 1 0 0 1 0 0 1 0 0 1 0 0 1 0 0 1 0 0 1 0 0 1 0 0 1 0 0 1 0 0 1 0 0 1 0 0 1 0 0 1 0 0 1 0 0 1 0 0 1 0 0 1 0 0 1 0 0 1 0 0 1 0 0 1 0 0 1 0 0 1 0 0 1 0 0 1 0 0 1 0 0 1 0 0 1 0 0 1 0 0 1 0 0 1 0 0 1 0 0 1 0 0 1 0 0 1 0 0 1 0 0 1 0 0 1 0 0 1 0 0 1 0 0 0 0 0 1 0 0 1 0 0 0 0 0 1 0 0 1 0 0 1 0 0 1 0 0 1 0 0 1 0 0 1 0 0 1 0 0 1 0 0 1 0 0 1 0 0 1 0 0 1 0 0 1 0 0 1 0 0 1 0 0 1 0 0 1 0 0 1 0 0 1 0 0 1 0 0 0 0 0 1 0 0 1 0 0 1 0 0 1 0 0 1 0 0 1 0 0 1 0 0 1 0 0 1 0 0 1 0 0 1 0 0 1 0 0 1 0 0 1 0 0 1 0 0 1 0 0 1 0 0 1 0 0 1 0 0 1 0 0 1 0 0 1 0 0 1 0 0 1 0 0 1 0 0 1 0 0 1 0 0 0 0 0 1 0 0 1 0 0 1 0 0 1 0 0 1 0 0 1 0 0 1 0 0 1 0 0 1 0 0 1 0 0 1 0 0 1 0 0 1 0 0 1 0 0 1 0 0 1 0 0 1 0 0 1 0 0 1 0 0 1 0 0 1 0 0 1 0 0 1 0 0 1 0 0 1 0 0 1 0 0 1 0 0 1</float_array>
                    <technique_common>
                        <accessor count="468" source="#shape0-lib-normals-array" stride="3">
                            <param name="X" type="float"/>
                            <param name="Y" type="float"/>
                            <param name="Z" type="float"/>
                        </accessor>
                    </technique_common>
                </source>
                <source id="shape0-lib-vcolor" name="vcolor">
                    <float_array id="shape0-lib-vcolor-array" count="2080">0 0 1 1 0 0 1 1 0 0 1 1 0 0 1 1 0 0 1 1 0 0 1 1 0 0 1 1 0 0 1 1 0 0 1 1 0 0 1 1 0 0 1 1 0 0 1 1 0 0 1 1 0 0 1 1 0 0 1 1 0 0 1 1 0 0 1 1 0 0 1 1 0 0 1 1 0 0 1 1 0 0 1 1 0 0 1 1 0 0 1 1 0 0 1 1 0 0 1 1 0 0 1 1 0 0 1 1 0 0 1 1 0 0 1 1 0 0 1 1 0 0 1 1 0 0 1 1 0 0 1 1 0 0 1 1 0 0 1 1 0 0 1 1 0 0 1 1 0 0 1 1 0 0 1 1 0 0 1 1 0 0 1 1 0 0 1 1 0 0 1 1 0 0 1 1 0 0 1 1 0 0 1 1 0 0 1 1 0 0 1 1 0 0 1 1 0 0 1 1 0 0 1 1 0 0 1 1 0 0 1 1 0 0 1 1 0 0 1 1 0 0 1 1 0 0 1 1 0 0 1 1 0 0 1 1 0 0 1 1 0 0 1 1 0 0 1 1 0 0 1 1 0 0 1 1 0 0 1 1 0 0 1 1 0 0 1 1 0 0 1 1 0 0 1 1 0 0 1 1 0 0 1 1 0 0 1 1 0 0 1 1 0 0 1 1 0 0 1 1 0 0 1 1 0 0 1 1 0 0 1 1 0 0 1 1 0 0 1 1 0 0 1 1 0 0 1 1 0 0 1 1 0 0 1 1 0 0 1 1 0 0 1 1 0 0 1 1 0 0 1 1 0 0 1 1 0 0 1 1 0 0 1 1 0 0 1 1 0 0 1 1 0 0 1 1 0 0 1 1 0 0 1 1 0 0 1 1 0 0 1 1 0 0 1 1 0 0 1 1 0 0 1 1 0 0 1 1 0 0 1 1 0 0 1 1 0 0 1 1 0 0 1 1 0 0 1 1 0 0 1 1 0 0 1 1 0 0 1 1 0 0 1 1 0 0 1 1 0 0 1 1 0 0 1 1 0 0 1 1 0 0 1 1 0 0 1 1 0 0 1 1 0 0 1 1 0 0 1 1 0 0 1 1 0 0 1 1 0 0 1 1 0 0 1 1 0 0 1 1 0 0 1 1 0 0 1 1 0 0 1 1 0 0 1 1 0 0 1 1 0 0 1 1 0 0 1 1 0 0 1 1 0 0 1 1 0 0 1 1 0 0 1 1 0 0 1 1 0 0 1 1 0 0 1 1 0 0 1 1 0 0 1 1 0 0 1 1 0 0 1 1 0 0 1 1 0 0 1 1 0 0 1 1 0 0 1 1 0 0 1 1 0 0 1 1 0 0 1 1 0 0 1 1 0 0 1 1 0 0 1 1 0 0 1 1 0 0 1 1 0 0 1 1 0 0 1 1 0 0 1 1 0 0 1 1 0 0 1 1 0 0 1 1 0 0 1 1 0 0 1 1 0 0 1 1 0 0 1 1 0 0 1 1 0 0 1 1 0 0 1 1 0 0 1 1 0 0 1 1 0 0 1 1 0 0 1 1 0 0 1 1 0 0 1 1 0 0 1 1 0 0 1 1 0 0 1 1 0 0 1 1 0 0 1 1 0 0 1 1 0 0 1 1 0 0 1 1 0 0 1 1 0 0 1 1 0 0 1 1 0 0 1 1 0 0 1 1 0 0 1 1 0 0 1 1 0 0 1 1 0 0 1 1 0 0 1 1 0 0 1 1 0 0 1 1 0 0 1 1 0 0 1 1 0 0 1 1 0 0 1 1 0 0 1 1 0 0 1 1 0 0 1 1 0 0 1 1 0 0 1 1 0 0 1 1 0 0 1 1 0 0 1 1 0 0 1 1 0 0 1 1 0 0 1 1 0 0 1 1 0 0 1 1 0 0 1 1 0 0 1 1 0 0 1 1 0 0 1 1 0 0 1 1 0 0 1 1 0 0 1 1 0 0 1 1 0 0 1 1 0 0 1 1 0 0 1 1 0 0 1 1 0 0 1 1 0 0 1 1 0 0 1 1 0 0 1 1 0 0 1 1 0 0 1 1 0 0 1 1 0 0 1 1 0 0 1 1 0 0 1 1 0 0 1 1 0 0 1 1 0 0 1 1 0 0 1 1 0 0 1 1 0 0 1 1 0 0 1 1 0 0 1 1 0 0 1 1 0 0 1 1 0 0 1 1 0 0 1 1 0 0 1 1 0 0 1 1 0 0 1 1 0 0 1 1 0 0 1 1 0 0 1 1 0 0 1 1 0 0 1 1 0 0 1 1 0 0 1 1 0 0 1 1 0 0 1 1 0 0 1 1 0 0 1 1 0 0 1 1 0 0 1 1 0 0 1 1 0 0 1 1 0 0 1 1 0 0 1 1 0 0 1 1 0 0 1 1 0 0 1 1 0 0 1 1 0 0 1 1 0 0 1 1 0 0 1 1 0 0 1 1 0 0 1 1 0 0 1 1 0 0 1 1 0 0 1 1 0 0 1 1 0 0 1 1 0 0 1 1 0 0 1 1 0 0 1 1 0 0 1 1 0 0 1 1 0 0 1 1 0 0 1 1 0 0 1 1 0 0 1 1 0 0 1 1 0 0 1 1 0 0 1 1 0 0 1 1 0 0 1 1 0 0 1 1 0 0 1 1 0 0 1 1 0 0 1 1 0 0 1 1 0 0 1 1 0 0 1 1 0 0 1 1 0 0 1 1 0 0 1 1 0 0 1 1 0 0 1 1 0 0 1 1 0 0 1 1 0 0 1 1 0 0 1 1 0 0 1 1 0 0 1 1 0 0 1 1 0 0 1 1 0 0 1 1 0 0 1 1 0 0 1 1 0 0 1 1 0 0 1 1 0 0 1 1 0 0 1 1 0 0 1 1 0 0 1 1 0 0 1 1 0 0 1 1 0 0 1 1 0 0 1 1 0 0 1 1 0 0 1 1 0 0 1 1 0 0 1 1 0 0 1 1 0 0 1 1 0 0 1 1 0 0 1 1 0 0 1 1 0 0 1 1 0 0 1 1 0 0 1 1 0 0 1 1 0 0 1 1 0 0 1 1 0 0 1 1 0 0 1 1 0 0 1 1 0 0 1 1 0 0 1 1 0 0 1 1 0 0 1 1 0 0 1 1 0 0 1 1 0 0 1 1 0 0 1 1 0 0 1 1 0 0 1 1 0 0 1 1 0 0 1 1 0 0 1 1 0 0 1 1 0 0 1 1 0 0 1 1 0 0 1 1 0 0 1 1 0 0 1 1 0 0 1 1 0 0 1 1 0 0 1 1 0 0 1 1 0 0 1 1 0 0 1 1 0 0 1 1 0 0 1 1 0 0 1 1 0 0 1 1 0 0 1 1 0 0 1 1 0 0 1 1 0 0 1 1 0 0 1 1 0 0 1 1 0 0 1 1 0 0 1 1 0 0 1 1 0 0 1 1 0 0 1 1 0 0 1 1 0 0 1 1 0 0 1 1 0 0 1 1 0 0 1 1 0 0 1 1 0 0 1 1 0 0 1 1 0 0 1 1 0 0 1 1 0 0 1 1 0 0 1 1 0 0 1 1 0 0 1 1 0 0 1 1 0 0 1 1 0 0 1 1 0 0 1 1 0 0 1 1 0 0 1 1 0 0 1 1 0 0 1 1 0 0 1 1 0 0 1 1 0 0 1 1 0 0 1 1 0 0 1 1 0 0 1 1 0 0 1 1 0 0 1 1 0 0 1 1 0 0 1 1 0 0 1 1 0 0 1 1 0 0 1 1 0 0 1 1 0 0 1 1 0 0 1 1 0 0 1 1 0 0 1 1 0 0 1 1 0 0 1 1 0 0 1 1 0 0 1 1 0 0 1 1 0 0 1 1 0 0 1 1 0 0 1 1 0 0 1 1 0 0 1 1 0 0 1 1 0 0 1 1 0 0 1 1 0 0 1 1 0 0 1 1 0 0 1 1 0 0 1 1 0 0 1 1 0 0 1 1 0 0 1 1 0 0 1 1 0 0 1 1 0 0 1 1 0 0 1 1 0 0 1 1 0 0 1 1 0 0 1 1 0 0 1 1 0 0 1 1 0 0 1 1 0 0 1 1 0 0 1 1 0 0 1 1 0 0 1 1 0 0 1 1 0 0 1 1 0 0 1 1 0 0 1 1 0 0 1 1 0 0 1 1 0 0 1 1 0 0 1 1 0 0 1 1 0 0 1 1 0 0 1 1 0 0 1 1 0 0 1 1 0 0 1 1 0 0 1 1 0 0 1 1 0 0 1 1 0 0 1 1 0 0 1 1 0 0 1 1 0 0 1 1 0 0 1 1 0 0 1 1 0 0 1 1 0 0 1 1 0 0 1 1 0 0 1 1 0 0 1 1 0 0 1 1 0 0 1 1 0 0 1 1 0 0 1 1 0 0 1 1 0 0 1 1 0 0 1 1 0 0 1 1 0 0 1 1 0 0 1 1 0 0 1 1 0 0 1 1 0 0 1 1 0 0 1 1 0 0 1 1 0 0 1 1 0 0 1 1 0 0 1 1 0 0 1 1 0 0 1 1 0 0 1 1 0 0 1 1 0 0 1 1 0 0 1 1 0 0 1 1 0 0 1 1 0 0 1 1 0 0 1 1 0 0 1 1 0 0 1 1 0 0 1 1 0 0 1 1 0 0 1 1 0 0 1 1</float_array>
                    <technique_common>
                        <accessor count="520" source="#shape0-lib-vcolor-array" stride="4">
                            <param name="R" type="float"/>
                            <param name="G" type="float"/>
                            <param name="B" type="float"/>
                            <param name="A" type="float"/>
                        </accessor>
                    </technique_common>
                </source>
                <source id="shape0-lib-map" name="map">
                    <float_array id="shape0-lib-map-array" count="2808">1 0.5 1 1 0.96875 1 1 0.5 0.96875 1 0.96875 0.5 0.96875 0.5 0.96875 1 0.9375 1 0.96875 0.5 0.9375 1 0.9375 0.5 0.9375 0.5 0.9375 1 0.90625 1 0.9375 0.5 0.90625 1 0.90625 0.5 0.90625 0.5 0.90625 1 0.875 1 0.90625 0.5 0.875 1 0.875 0.5 0.875 0.5 0.875 1 0.84375 1 0.875 0.5 0.84375 1 0.84375 0.5 0.84375 0.5 0.84375 1 0.8125 1 0.84375 0.5 0.8125 1 0.8125 0.5 0.8125 0.5 0.8125 1 0.78125 1 0.8125 0.5 0.78125 1 0.78125 0.5 0.78125 0.5 0.78125 1 0.75 1 0.78125 0.5 0.75 1 0.75 0.5 0.25 0.5 0.25 1 0.21875 1 0.25 0.5 0.21875 1 0.21875 0.5 0.21875 0.5 0.21875 1 0.1875 1 0.21875 0.5 0.1875 1 0.1875 0.5 0.1875 0.5 0.1875 1 0.15625 1 0.1875 0.5 0.15625 1 0.15625 0.5 0.15625 0.5 0.15625 1 0.125 1 0.15625 0.5 0.125 1 0.125 0.5 0.125 0.5 0.125 1 0.09375 1 0.125 0.5 0.09375 1 0.09375 0.5 0.09375 0.5 0.09375 1 0.0625 1 0.09375 0.5 0.0625 1 0.0625 0.5 0.0625 0.5 0.0625 1 0.03125 1 0.0625 0.5 0.03125 1 0.03125 0.5 0.03125 0.5 0.03125 1 0 1 0.03125 0.5 0 1 0 0.5 0.788659 0.444353 0.75 0.448161 0.75 0.49 0.788659 0.444353 0.75 0.49 0.796822 0.485388 0.25 0.448161 0.288659 0.444354 0.296822 0.485388 0.25 0.448161 0.296822 0.485388 0.25 0.49 0.825833 0.433077 0.788659 0.444353 0.796822 0.485388 0.825833 0.433077 0.796822 0.485388 0.841844 0.471731 0.288659 0.444354 0.325833 0.433077 0.341844 0.471731 0.288659 0.444354 0.341844 0.471731 0.296822 0.485388 0.860092 0.414765 0.825833 0.433077 0.841844 0.471731 0.860092 0.414765 0.841844 0.471731 0.883337 0.449553 0.325833 0.433077 0.360092 0.414765 0.383337 0.449553 0.325833 0.433077 0.383337 0.449553 0.341844 0.471731 0.890121 0.390121 0.860092 0.414765 0.883337 0.449553 0.890121 0.390121 0.883337 0.449553 0.919706 0.419706 0.360092 0.414765 0.390121 0.390121 0.419706 0.419706 0.360092 0.414765 0.419706 0.419706 0.383337 0.449553 0.914765 0.360092 0.890121 0.390121 0.919706 0.419706 0.914765 0.360092 0.919706 0.419706 0.949553 0.383337 0.390121 0.390121 0.414765 0.360092 0.449553 0.383337 0.390121 0.390121 0.449553 0.383337 0.419706 0.419706 0.933077 0.325833 0.914765 0.360092 0.949553 0.383337 0.933077 0.325833 0.949553 0.383337 0.971731 0.341844 0.414765 0.360092 0.433077 0.325833 0.471731 0.341844 0.414765 0.360092 0.471731 0.341844 0.449553 0.383337 0.944354 0.288659 0.933077 0.325833 0.971731 0.341844 0.944354 0.288659 0.971731 0.341844 0.985388 0.296822 0.433077 0.325833 0.444353 0.288659 0.485388 0.296822 0.433077 0.325833 0.485388 0.296822 0.471731 0.341844 0.948161 0.25 0.944354 0.288659 0.985388 0.296822 0.948161 0.25 0.985388 0.296822 0.99 0.25 0.444353 0.288659 0.448161 0.25 0.49 0.25 0.444353 0.288659 0.49 0.25 0.485388 0.296822 0.49 0.25 0.448161 0.25 0.948161 0.25 0.49 0.25 0.948161 0.25 0.99 0.25 0.555647 0.288659 0.551839 0.25 0.51 0.25 0.555647 0.288659 0.51 0.25 0.514612 0.296822 0.0518389 0.25 0.0556465 0.288659 0.0146115 0.296822 0.0518389 0.25 0.0146115 0.296822 0.01 0.25 0.566923 0.325833 0.555647 0.288659 0.514612 0.296822 0.566923 0.325833 0.514612 0.296822 0.528269 0.341844 0.0556465 0.288659 0.066923 0.325833 0.0282689 0.341844 0.0556465 0.288659 0.0282689 0.341844 0.0146115 0.296822 0.585235 0.360092 0.566923 0.325833 0.528269 0.341844 0.585235 0.360092 0.528269 0.341844 0.550447 0.383337 0.066923 0.325833 0.0852351 0.360092 0.0504473 0.383337 0.066923 0.325833 0.0504473 0.383337 0.0282689 0.341844 0.609879 0.390121 0.585235 0.360092 0.550447 0.383337 0.609879 0.390121 0.550447 0.383337 0.580294 0.419706 0.0852351 0.360092 0.109879 0.390121 0.0802944 0.419706 0.0852351 0.360092 0.0802944 0.419706 0.0504473 0.383337 0.639908 0.414765 0.609879 0.390121 0.580294 0.419706 0.639908 0.414765 0.580294 0.419706 0.616663 0.449553 0.109879 0.390121 0.139908 0.414765 0.116663 0.449553 0.109879 0.390121 0.116663 0.449553 0.0802944 0.419706 0.674167 0.433077 0.639908 0.414765 0.616663 0.449553 0.674167 0.433077 0.616663 0.449553 0.658156 0.471731 0.139908 0.414765 0.174167 0.433077 0.158156 0.471731 0.139908 0.414765 0.158156 0.471731 0.116663 0.449553 0.711341 0.444354 0.674167 0.433077 0.658156 0.471731 0.711341 0.444354 0.658156 0.471731 0.703178 0.485388 0.174167 0.433077 0.211341 0.444353 0.203178 0.485388 0.174167 0.433077 0.203178 0.485388 0.158156 0.471731 0.75 0.448161 0.711341 0.444354 0.703178 0.485388 0.75 0.448161 0.703178 0.485388 0.75 0.49 0.211341 0.444353 0.25 0.448161 0.25 0.49 0.211341 0.444353 0.25 0.49 0.203178 0.485388 0.01 0.25 0.51 0.25 0.551839 0.25 0.01 0.25 0.551839 0.25 0.0518389 0.25 0.944354 0.288659 0.948161 0.25 0.448161 0.25 0.944354 0.288659 0.448161 0.25 0.444353 0.288659 0.933077 0.325833 0.944354 0.288659 0.444353 0.288659 0.933077 0.325833 0.444353 0.288659 0.433077 0.325833 0.914765 0.360092 0.933077 0.325833 0.433077 0.325833 0.914765 0.360092 0.433077 0.325833 0.414765 0.360092 0.890121 0.390121 0.914765 0.360092 0.414765 0.360092 0.890121 0.390121 0.414765 0.360092 0.390121 0.390121 0.860092 0.414765 0.890121 0.390121 0.390121 0.390121 0.860092 0.414765 0.390121 0.390121 0.360092 0.414765 0.825833 0.433077 0.860092 0.414765 0.360092 0.414765 0.825833 0.433077 0.360092 0.414765 0.325833 0.433077 0.788659 0.444353 0.825833 0.433077 0.325833 0.433077 0.788659 0.444353 0.325833 0.433077 0.288659 0.444354 0.75 0.448161 0.788659 0.444353 0.288659 0.444354 0.75 0.448161 0.288659 0.444354 0.25 0.448161 0.711341 0.444354 0.75 0.448161 0.25 0.448161 0.711341 0.444354 0.25 0.448161 0.211341 0.444353 0.674167 0.433077 0.711341 0.444354 0.211341 0.444353 0.674167 0.433077 0.211341 0.444353 0.174167 0.433077 0.639908 0.414765 0.674167 0.433077 0.174167 0.433077 0.639908 0.414765 0.174167 0.433077 0.139908 0.414765 0.609879 0.390121 0.639908 0.414765 0.139908 0.414765 0.609879 0.390121 0.139908 0.414765 0.109879 0.390121 0.585235 0.360092 0.609879 0.390121 0.109879 0.390121 0.585235 0.360092 0.109879 0.390121 0.0852351 0.360092 0.566923 0.325833 0.585235 0.360092 0.0852351 0.360092 0.566923 0.325833 0.0852351 0.360092 0.066923 0.325833 0.0518389 0.25 0.551839 0.25 0.555647 0.288659 0.555647 0.288659 0.566923 0.325833 0.066923 0.325833 0.0556465 0.288659 0.0518389 0.25 0.555647 0.288659 0.066923 0.325833 0.0556465 0.288659 0.555647 0.288659 1 0.275 1 0.275 1 0.274516 1 0.275 1 0.274516 1 0.272783 1 0.25 1 0.25 1 0.275 1 0.260794 1 0.25 1 0.275 1 0.275 1 0.272783 1 0.270817 1 0.275 1 0.270817 1 0.268627 1 0.263606 1 0.260794 1 0.275 1 0.275 1 0.268627 1 0.26622 1 0.26622 1 0.263606 1 0.275 1 0.252107 1 0.252107 1 0.260173 1 0.260173 1 0.262862 1 0.265205 1 0.265205 1 0.267222 1 0.268935 1 0.268935 1 0.270366 1 0.271536 1 0.271536 1 0.272467 1 0.273181 1 0.273181 1 0.273698 1 0.274041 1 0.274041 1 0.274231 1 0.274289 1 0.274289 1 0.274195 1 0.273911 1 0.273911 1 0.273432 1 0.272757 1 0.272757 1 0.271883 1 0.270806 1 0.270806 1 0.269523 1 0.268031 1 0.268031 1 0.266327 1 0.264409 1 0.264409 1 0.262272 1 0.259915 1 0.259915 1 0.252107 1 0.260173 1 0.260173 1 0.265205 1 0.268935 1 0.268935 1 0.271536 1 0.273181 1 0.273181 1 0.274041 1 0.274289 1 0.274289 1 0.273911 1 0.272757 1 0.272757 1 0.270806 1 0.268031 1 0.268031 1 0.264409 1 0.259915 1 0.259915 1 0.260173 1 0.268935 1 0.268935 1 0.273181 1 0.274289 1 0.274289 1 0.272757 1 0.268031 1 0.268031 1 0.259915 1 0.268935 1 0.268935 1 0.274289 1 0.268031 0.725 0 0.725 0 0.724516 0 0.725 0 0.724516 0 0.722783 0 0.7 0 0.7 0 0.725 0 0.710794 0 0.7 0 0.725 0 0.725 0 0.722783 0 0.720817 0 0.725 0 0.720817 0 0.718627 0 0.713606 0 0.710794 0 0.725 0 0.725 0 0.718627 0 0.71622 0 0.71622 0 0.713606 0 0.725 0 0.702107 0 0.710173 0 0.712862 0 0.712862 0 0.715205 0 0.717222 0 0.717222 0 0.718935 0 0.720366 0 0.720366 0 0.721536 0 0.722467 0 0.722467 0 0.723181 0 0.723698 0 0.723698 0 0.724041 0 0.724231 0 0.724231 0 0.72429 0 0.724195 0 0.724195 0 0.723911 0 0.723432 0 0.723432 0 0.722757 0 0.721883 0 0.721883 0 0.720806 0 0.719523 0 0.719523 0 0.718031 0 0.716327 0 0.716327 0 0.714409 0 0.712272 0 0.712272 0 0.709915 0 0.702107 0 0.702107 0 0.702107 0 0.712862 0 0.712862 0 0.717222 0 0.720366 0 0.720366 0 0.722467 0 0.723698 0 0.723698 0 0.724231 0 0.724195 0 0.724195 0 0.723432 0 0.721883 0 0.721883 0 0.719523 0 0.716327 0 0.716327 0 0.712272 0 0.702107 0 0.702107 0 0.712862 0 0.720366 0 0.720366 0 0.723698 0 0.724195 0 0.724195 0 0.721883 0 0.716327 0 0.716327 0 0.702107 0 0.720366 0 0.720366 0 0.724195 0 0.716327 0 0.475 0.7 0.475 0.694753 0.485742 0.694753 0.475 0.7 0.485742 0.694753 0.488849 0.694565 0.5 0.689075 0.5 0.7 0.49875 0.7 0.49875 0.7 0.475 0.7 0.488849 0.694565 0.49875 0.7 0.488849 0.694565 0.491657 0.694025 0.498345 0.690649 0.5 0.689075 0.49875 0.7 0.4964 0.692031 0.498345 0.690649 0.49875 0.7 0.49875 0.7 0.491657 0.694025 0.494172 0.693168 0.494172 0.693168 0.4964 0.692031 0.49875 0.7 0.499289 0.67712 0.499195 0.678866 0.49891 0.680549 0.49891 0.680549 0.498432 0.682153 0.497757 0.68366 0.497757 0.68366 0.496883 0.685054 0.495806 0.686318 0.495806 0.686318 0.494523 0.687434 0.493031 0.688385 0.493031 0.688385 0.491327 0.689154 0.489409 0.689725 0.489409 0.689725 0.487272 0.69008 0.484915 0.690202 0.484915 0.690202 0.477107 0.690202 0.477107 0.664038 0.477107 0.664038 0.485173 0.664038 0.487862 0.664212 0.487862 0.664212 0.490205 0.664705 0.492222 0.665471 0.492222 0.665471 0.493935 0.666464 0.495366 0.667639 0.495366 0.667639 0.496536 0.66895 0.497467 0.670351 0.497467 0.670351 0.498181 0.671798 0.498698 0.673243 0.498698 0.673243 0.499041 0.674643 0.499231 0.67595 0.499231 0.67595 0.499289 0.67712 0.49891 0.680549 0.49891 0.680549 0.497757 0.68366 0.495806 0.686318 0.495806 0.686318 0.493031 0.688385 0.489409 0.689725 0.489409 0.689725 0.484915 0.690202 0.477107 0.664038 0.477107 0.664038 0.487862 0.664212 0.492222 0.665471 0.492222 0.665471 0.495366 0.667639 0.497467 0.670351 0.497467 0.670351 0.498698 0.673243 0.499231 0.67595 0.499231 0.67595 0.49891 0.680549 0.495806 0.686318 0.495806 0.686318 0.489409 0.689725 0.477107 0.664038 0.477107 0.664038 0.492222 0.665471 0.497467 0.670351 0.497467 0.670351 0.499231 0.67595 0.495806 0.686318 0.495806 0.686318 0.477107 0.664038 0.497467 0.670351 0.4025 1 0.4475 1 0.4475 1 0.4025 1 0.4475 1 0.4025 1 0.3525 1 0.3975 1 0.3975 1 0.3525 1 0.3975 1 0.3525 1 0.4525 1 0.475 1 0.475 1 0.4525 1 0.475 1 0.4525 1 0.1025 1 0.1475 1 0.1475 1 0.1025 1 0.1475 1 0.1025 1 0.2025 1 0.2475 1 0.2475 1 0.2025 1 0.2475 1 0.2025 1 0.1525 1 0.1975 1 0.1975 1 0.1525 1 0.1975 1 0.1525 1 0.2525 1 0.2975 1 0.2975 1 0.2525 1 0.2975 1 0.2525 1 0.3025 1 0.3475 1 0.3475 1 0.3025 1 0.3475 1 0.3025 1 0.475 1 0.49875 1 0.49875 1 0.475 1 0.49875 1 0.475 1 0.75 0 0.75 0 0.743282 0 0.743282 0 0.725 0 0.725 0 0.743282 0 0.725 0 0.72641 0 0.725 0 0.75 0 0.743282 0 0.726006 0 0.725 0 0.725 0 0.727245 0 0.726006 0 0.725 0 0.743282 0 0.72641 0 0.727541 0 0.743282 0 0.727541 0 0.728412 0 0.727245 0 0.725 0 0.743282 0 0.728223 0 0.727245 0 0.743282 0 0.743282 0 0.728412 0 0.729027 0 0.743282 0 0.729027 0 0.729392 0 0.728933 0 0.728223 0 0.743282 0 0.729366 0 0.728933 0 0.743282 0 0.743282 0 0.729392 0 0.729512 0 0.743282 0 0.729512 0 0.729366 0 1 0.25 1 0.25 1 0.246158 1 0.240021 1 0.237517 1 0.235014 1 0.25 1 0.246158 1 0.240021 1 0.247039 1 0.25 1 0.240021 1 0.230007 1 0.227503 1 0.225 1 0.225 1 0.225 1 0.25 1 0.25 1 0.25 1 0.247039 1 0.247039 1 0.247039 1 0.240021 1 0.230007 1 0.225 1 0.25 1 0.247039 1 0.240021 1 0.235014 1 0.230007 1 0.25 1 0.247039 1 0.247039 1 0.235014 1 0.23251 1 0.23251 1 0.230007 1 0.247039 0.675 0 0.65 0 0.65 0 0.675 0 0.65 0 0.675 0 0.725 0 0.7 0 0.7 0 0.725 0 0.7 0 0.725 0 0.628058 0 0.625 0 0.628058 0 0.65 0 0.65 0 0.628058 0 0.628058 0 0.628058 0 0.65 0 0.7 0 0.675 0 0.675 0 0.7 0 0.675 0 0.7 0 0.8 0 0.796694 0 0.8 0 0.75 0 0.725 0 0.725 0 0.75 0 0.725 0 0.75 0 0.4525 1 0.475 1 0.475 1 0.4525 1 0.475 1 0.4525 1 0.2525 1 0.2975 1 0.2975 1 0.2525 1 0.2975 1 0.2525 1 0.3025 1 0.3475 1 0.3475 1 0.3025 1 0.3475 1 0.3025 1 0.1025 1 0.1475 1 0.1475 1 0.1025 1 0.1475 1 0.1025 1 0.4025 1 0.4475 1 0.4475 1 0.4025 1 0.4475 1 0.4025 1 0.2025 1 0.2475 1 0.2475 1 0.2025 1 0.2475 1 0.2025 1 0.3525 1 0.3975 1 0.3975 1 0.3525 1 0.3975 1 0.3525 1 0.1525 1 0.1975 1 0.1975 1 0.1525 1 0.1975 1 0.1525 1 0.475 1 0.49875 1 0.49875 1 0.475 1 0.49875 1 0.475 1 1 0.2 1 0.2 1 0.197564 1 0.2 1 0.197564 1 0.195128 1 0.18051 1 0.178074 1 0.2 1 0.187819 1 0.185383 1 0.182946 1 0.182946 1 0.18051 1 0.2 1 0.2 1 0.195128 1 0.192691 1 0.192691 1 0.190255 1 0.187819 1 0.187819 1 0.182946 1 0.2 1 0.192691 1 0.187819 1 0.2 1 0.253822 1 0.246158 1 0.25 1 0.202778 1 0.2 1 0.2 1 0.202778 1 0.2 1 0.202778 1 0.275 1 0.275 1 0.272505 1 0.275 1 0.272505 1 0.270009 1 0.273345 1 0.275 1 0.270009 1 0.273345 1 0.270009 1 0.267514 1 0.2714 1 0.273345 1 0.267514 1 0.2714 1 0.267514 1 0.265018 1 0.269172 1 0.2714 1 0.265018 1 0.262523 1 0.260028 1 0.253822 1 0.269172 1 0.265018 1 0.262523 1 0.266657 1 0.269172 1 0.262523 1 0.262523 1 0.253822 1 0.25 1 0.25 1 0.25 1 0.260742 1 0.263849 1 0.266657 1 0.262523 1 0.262523 1 0.25 1 0.260742 1 0.262523 1 0.260742 1 0.263849 1 0.3 1 0.34665 1 0.34354 1 0.34043 1 0.33732 1 0.33421 1 0.3 1 0.34354 1 0.34043 1 0.30311 1 0.3 1 0.3 1 0.30933 1 0.30622 1 0.30311 1 0.31555 1 0.31244 1 0.30933 1 0.32177 1 0.31866 1 0.31555 1 0.3311 1 0.32799 1 0.32488 1 0.32488 1 0.32177 1 0.31555 1 0.30933 1 0.30311 1 0.3 1 0.32488 1 0.31555 1 0.30933 1 0.34043 1 0.33421 1 0.3311 1 0.32488 1 0.30933 1 0.3 1 0.34043 1 0.3311 1 0.32488 1 0.34043 1 0.32488 1 0.3 1 0.3 1 0.3 1 0.296875 1 0.29375 1 0.290625 1 0.2875 1 0.3 1 0.296875 1 0.29375 1 0.275 1 0.275 1 0.3 1 0.276006 1 0.275 1 0.3 1 0.3 1 0.29375 1 0.2875 1 0.3 1 0.2875 1 0.284375 1 0.277244 1 0.276006 1 0.3 1 0.278223 1 0.277244 1 0.3 1 0.3 1 0.284375 1 0.28125 1 0.28125 1 0.278125 1 0.275 1 0.275 1 0.275 1 0.27641 1 0.275 1 0.27641 1 0.277541 1 0.3 1 0.28125 1 0.275 1 0.278933 1 0.278223 1 0.3 1 0.279366 1 0.278933 1 0.3 1 0.3 1 0.275 1 0.277541 1 0.3 1 0.277541 1 0.278412 1 0.279512 1 0.279366 1 0.3 1 0.279391 1 0.279512 1 0.3 1 0.3 1 0.278412 1 0.279027 1 0.279027 1 0.279391 1 0.3 0.796694 0 0.756698 0 0.75 0 0.796694 0 0.75 0 0.75 0 0.7 0 0.7 0 0.675 0 0.675 0 0.675 0 0.7 0 0.7 0 0.7 0 0.697039 0 0.697039 0 0.7 0 0.675 0 0.675 0 0.7 0 0.697039 0 0.675 0 0.697039 0 0.697039 0 0.65 0 0.628058 0 0.65 0 0.675 0 0.65 0 0.65 0 0.675 0 0.65 0 0.675 0 0.625 0 0.625 0 0.628058 0 0.756698 0 0.743282 0 0.75 0 0.8 0 0.796694 0 0.75 0 0.8 0 0.75 0 0.75 0 0.725 0 0.7 0 0.7 0 0.725 0 0.7 0 0.710742 0 0.723345 0 0.725 0 0.725 0 0.7214 0 0.723345 0 0.725 0 0.725 0 0.710742 0 0.713848 0 0.725 0 0.713848 0 0.716657 0 0.719172 0 0.7214 0 0.725 0 0.725 0 0.716657 0 0.719172 0 0.475 0.659487 0.475 0.653216 0.5 0.653175 0.5 0.653175 0.5 0.665472 0.499516 0.66491 0.5 0.653175 0.499516 0.66491 0.497783 0.663371 0.485794 0.659487 0.475 0.659487 0.5 0.653175 0.488606 0.659662 0.485794 0.659487 0.5 0.653175 0.5 0.653175 0.497783 0.663371 0.495817 0.662048 0.5 0.653175 0.495817 0.662048 0.493627 0.66097 0.49122 0.660165 0.488606 0.659662 0.5 0.653175 0.5 0.653175 0.493627 0.66097 0.49122 0.660165 0.55 0.653094 0.564556 0.653058 0.564513 0.653123 0.564513 0.653123 0.56244 0.656245 0.560367 0.659368 0.560367 0.659368 0.558293 0.662491 0.55622 0.665614 0.554147 0.668736 0.552073 0.671859 0.55 0.674982 0.564513 0.653123 0.560367 0.659368 0.55622 0.665614 0.55622 0.665614 0.554147 0.668736 0.55 0.674982 0.55 0.653094 0.564513 0.653123 0.55622 0.665614 0.55 0.653094 0.55622 0.665614 0.55 0.674982 0.45 0.7 0.45 0.653257 0.475 0.653216 0.475 0.653216 0.475 0.659487 0.472039 0.659487 0.472039 0.694753 0.475 0.694753 0.475 0.7 0.45 0.7 0.475 0.653216 0.472039 0.659487 0.472039 0.694753 0.475 0.7 0.45 0.7 0.472039 0.659487 0.472039 0.694753 0.45 0.7 0.5 0.665472 0.5 0.653175 0.525 0.653135 0.525 0.653135 0.525 0.7 0.5 0.7 0.5 0.7 0.5 0.689075 0.50141 0.687294 0.5 0.7 0.50141 0.687294 0.502541 0.685391 0.501006 0.666638 0.5 0.665472 0.525 0.653135 0.502244 0.668527 0.501006 0.666638 0.525 0.653135 0.525 0.653135 0.5 0.7 0.502541 0.685391 0.525 0.653135 0.502541 0.685391 0.503412 0.683387 0.503223 0.670547 0.502244 0.668527 0.525 0.653135 0.503933 0.672672 0.503223 0.670547 0.525 0.653135 0.525 0.653135 0.503412 0.683387 0.504026 0.681317 0.525 0.653135 0.504026 0.681317 0.504391 0.679216 0.504366 0.674872 0.503933 0.672672 0.525 0.653135 0.525 0.653135 0.504391 0.679216 0.504512 0.67712 0.525 0.653135 0.504512 0.67712 0.504366 0.674872 0.406667 0.656667 0.403333 0.653333 0.45 0.653257 0.45 0.653257 0.45 0.7 0.446667 0.696667 0.446667 0.696667 0.443333 0.693333 0.44 0.69 0.44 0.69 0.436667 0.686667 0.433333 0.683333 0.433333 0.683333 0.43 0.68 0.426667 0.676667 0.426667 0.676667 0.423333 0.673333 0.42 0.67 0.42 0.67 0.416667 0.666667 0.413333 0.663333 0.41 0.66 0.406667 0.656667 0.45 0.653257 0.426667 0.676667 0.42 0.67 0.413333 0.663333 0.413333 0.663333 0.41 0.66 0.45 0.653257 0.45 0.653257 0.446667 0.696667 0.44 0.69 0.433333 0.683333 0.426667 0.676667 0.413333 0.663333 0.45 0.653257 0.44 0.69 0.433333 0.683333 0.45 0.653257 0.433333 0.683333 0.413333 0.663333 0.525 0.653135 0.55 0.653094 0.55 0.674982 0.525 0.653135 0.55 0.674982 0.525 0.7 1 0.225 1 0.222222 1 0.222222 1 0.225 1 0.222222 1 0.225 1 0.222222 1 0.219444 1 0.219444 1 0.222222 1 0.219444 1 0.222222 1 0.219444 1 0.216667 1 0.216667 1 0.219444 1 0.216667 1 0.219444 1 0.216667 1 0.213889 1 0.213889 1 0.216667 1 0.213889 1 0.216667 1 0.213889 1 0.211111 1 0.211111 1 0.213889 1 0.211111 1 0.213889 1 0.211111 1 0.208333 1 0.208333 1 0.211111 1 0.208333 1 0.211111 1 0.208333 1 0.205556 1 0.205556 1 0.208333 1 0.205556 1 0.208333 1 0.205556 1 0.202778 1 0.202778 1 0.205556 1 0.202778 1 0.205556</float_array>
                    <technique_common>
                        <accessor count="1404" source="#shape0-lib-map-array" stride="2">
                            <param name="U" type="float"/>
                            <param name="V" type="float"/>
                        </accessor>
                    </technique_common>
                </source>
                <vertices id="shape0-lib-vertices">
                    <input semantic="POSITION" source="#shape0-lib-positions"/>
                </vertices>
                <triangles count="468" material="material0">
                    <input offset="0" semantic="VERTEX" source="#shape0-lib-vertices"/>
                    <input offset="1" semantic="COLOR" source="#shape0-lib-vcolor"/>
                    <input offset="2" semantic="NORMAL" source="#shape0-lib-normals"/>
                    <input offset="3" semantic="TEXCOORD" source="#shape0-lib-map"/>
                    <p>69 69 0 0 78 78 0 1 75 75 0 2 69 69 1 3 75 75 1 4 72 72 1 5 73 73 2 6 76 76 2 7 84 84 2 8 73 73 3 9 84 84 3 10 81 81 3 11 82 82 4 12 85 85 4 13 90 90 4 14 82 82 5 15 90 90 5 16 87 87 5 17 88 88 6 18 91 91 6 19 96 96 6 20 88 88 7 21 96 96 7 22 93 93 7 23 94 94 8 24 97 97 8 25 102 102 8 26 94 94 9 27 102 102 9 28 99 99 9 29 100 100 10 30 103 103 10 31 108 108 10 32 100 100 11 33 108 108 11 34 105 105 11 35 106 106 12 36 109 109 12 37 114 114 12 38 106 106 13 39 114 114 13 40 111 111 13 41 112 112 14 42 115 115 14 43 121 121 14 44 112 112 15 45 121 121 15 46 118 118 15 47 124 124 16 48 127 127 16 49 133 133 16 50 124 124 17 51 133 133 17 52 130 130 17 53 129 129 18 54 132 132 18 55 139 139 18 56 129 129 19 57 139 139 19 58 136 136 19 59 135 135 20 60 138 138 20 61 145 145 20 62 135 135 21 63 145 145 21 64 142 142 21 65 141 141 22 66 144 144 22 67 151 151 22 68 141 141 23 69 151 151 23 70 148 148 23 71 147 147 24 72 150 150 24 73 157 157 24 74 147 147 25 75 157 157 25 76 154 154 25 77 153 153 26 78 156 156 26 79 163 163 26 80 153 153 27 81 163 163 27 82 160 160 27 83 159 159 28 84 162 162 28 85 169 169 28 86 159 159 29 87 169 169 29 88 166 166 29 89 165 165 30 90 168 168 30 91 79 79 30 92 165 165 31 93 79 79 31 94 70 70 31 95 5 5 32 96 1 1 32 97 68 68 32 98 5 5 33 99 68 68 33 100 71 71 33 101 3 3 34 102 7 7 34 103 74 74 34 104 3 3 35 105 74 74 35 106 77 77 35 107 9 9 36 108 5 5 36 109 71 71 36 110 9 9 37 111 71 71 37 112 80 80 37 113 7 7 38 114 11 11 38 115 83 83 38 116 7 7 39 117 83 83 39 118 74 74 39 119 13 13 40 120 9 9 40 121 80 80 40 122 13 13 41 123 80 80 41 124 86 86 41 125 11 11 42 126 15 15 42 127 89 89 42 128 11 11 43 129 89 89 43 130 83 83 43 131 17 17 44 132 13 13 44 133 86 86 44 134 17 17 45 135 86 86 45 136 92 92 45 137 15 15 46 138 19 19 46 139 95 95 46 140 15 15 47 141 95 95 47 142 89 89 47 143 21 21 48 144 17 17 48 145 92 92 48 146 21 21 49 147 92 92 49 148 98 98 49 149 19 19 50 150 23 23 50 151 101 101 50 152 19 19 51 153 101 101 51 154 95 95 51 155 25 25 52 156 21 21 52 157 98 98 52 158 25 25 53 159 98 98 53 160 104 104 53 161 23 23 54 162 27 27 54 163 107 107 54 164 23 23 55 165 107 107 55 166 101 101 55 167 29 29 56 168 25 25 56 169 104 104 56 170 29 29 57 171 104 104 57 172 110 110 57 173 27 27 58 174 31 31 58 175 113 113 58 176 27 27 59 177 113 113 59 178 107 107 59 179 33 33 60 180 29 29 60 181 110 110 60 182 33 33 61 183 110 110 61 184 117 117 61 185 31 31 62 186 35 35 62 187 120 120 62 188 31 31 63 189 120 120 63 190 113 113 63 191 119 119 64 192 34 34 64 193 32 32 64 194 119 119 65 195 32 32 65 196 116 116 65 197 41 41 66 198 37 37 66 199 123 123 66 200 41 41 67 201 123 123 67 202 128 128 67 203 39 39 68 204 43 43 68 205 131 131 68 206 39 39 69 207 131 131 69 208 126 126 69 209 45 45 70 210 41 41 70 211 128 128 70 212 45 45 71 213 128 128 71 214 134 134 71 215 43 43 72 216 47 47 72 217 137 137 72 218 43 43 73 219 137 137 73 220 131 131 73 221 49 49 74 222 45 45 74 223 134 134 74 224 49 49 75 225 134 134 75 226 140 140 75 227 47 47 76 228 51 51 76 229 143 143 76 230 47 47 77 231 143 143 77 232 137 137 77 233 53 53 78 234 49 49 78 235 140 140 78 236 53 53 79 237 140 140 79 238 146 146 79 239 51 51 80 240 55 55 80 241 149 149 80 242 51 51 81 243 149 149 81 244 143 143 81 245 57 57 82 246 53 53 82 247 146 146 82 248 57 57 83 249 146 146 83 250 152 152 83 251 55 55 84 252 59 59 84 253 155 155 84 254 55 55 85 255 155 155 85 256 149 149 85 257 61 61 86 258 57 57 86 259 152 152 86 260 61 61 87 261 152 152 87 262 158 158 87 263 59 59 88 264 63 63 88 265 161 161 88 266 59 59 89 267 161 161 89 268 155 155 89 269 65 65 90 270 61 61 90 271 158 158 90 272 65 65 91 273 158 158 91 274 164 164 91 275 63 63 92 276 67 67 92 277 167 167 92 278 63 63 93 279 167 167 93 280 161 161 93 281 1 1 94 282 65 65 94 283 164 164 94 284 1 1 95 285 164 164 95 286 68 68 95 287 67 67 96 288 3 3 96 289 77 77 96 290 67 67 97 291 77 77 97 292 167 167 97 293 125 125 98 294 122 122 98 295 36 36 98 296 125 125 99 297 36 36 99 298 38 38 99 299 28 28 100 300 32 32 100 301 34 34 100 302 28 28 101 303 34 34 101 304 30 30 101 305 24 24 102 306 28 28 102 307 30 30 102 308 24 24 103 309 30 30 103 310 26 26 103 311 20 20 104 312 24 24 104 313 26 26 104 314 20 20 105 315 26 26 105 316 22 22 105 317 16 16 106 318 20 20 106 319 22 22 106 320 16 16 107 321 22 22 107 322 18 18 107 323 12 12 108 324 16 16 108 325 18 18 108 326 12 12 109 327 18 18 109 328 14 14 109 329 8 8 110 330 12 12 110 331 14 14 110 332 8 8 111 333 14 14 111 334 10 10 111 335 4 4 112 336 8 8 112 337 10 10 112 338 4 4 113 339 10 10 113 340 6 6 113 341 0 0 114 342 4 4 114 343 6 6 114 344 0 0 115 345 6 6 115 346 2 2 115 347 64 64 116 348 0 0 116 349 2 2 116 350 64 64 117 351 2 2 117 352 66 66 117 353 60 60 118 354 64 64 118 355 66 66 118 356 60 60 119 357 66 66 119 358 62 62 119 359 56 56 120 360 60 60 120 361 62 62 120 362 56 56 121 363 62 62 121 364 58 58 121 365 52 52 122 366 56 56 122 367 58 58 122 368 52 52 123 369 58 58 123 370 54 54 123 371 48 48 124 372 52 52 124 373 54 54 124 374 48 48 125 375 54 54 125 376 50 50 125 377 44 44 126 378 48 48 126 379 50 50 126 380 44 44 127 381 50 50 127 382 46 46 127 383 38 38 128 384 36 36 128 385 40 40 128 386 40 40 129 387 44 44 129 388 46 46 129 389 42 42 130 390 38 38 130 391 40 40 130 392 46 46 131 393 42 42 131 394 40 40 131 395 188 188 132 396 190 190 132 397 228 228 132 398 188 188 133 399 228 228 133 400 227 227 133 401 191 191 134 402 180 180 134 403 188 188 134 404 222 222 135 405 191 191 135 406 188 188 135 407 188 188 136 408 227 227 136 409 226 226 136 410 188 188 137 411 226 226 137 412 225 225 137 413 223 223 138 414 222 222 138 415 188 188 138 416 188 188 139 417 225 225 139 418 224 224 139 419 224 224 140 420 223 223 140 421 188 188 140 422 220 220 141 423 219 219 141 424 218 218 141 425 218 218 142 426 217 217 142 427 216 216 142 428 216 216 143 429 215 215 143 430 214 214 143 431 214 214 144 432 213 213 144 433 212 212 144 434 212 212 145 435 211 211 145 436 210 210 145 437 210 210 146 438 209 209 146 439 208 208 146 440 208 208 147 441 207 207 147 442 206 206 147 443 206 206 148 444 205 205 148 445 204 204 148 446 204 204 149 447 203 203 149 448 202 202 149 449 202 202 150 450 201 201 150 451 200 200 150 452 200 200 151 453 199 199 151 454 198 198 151 455 198 198 152 456 197 197 152 457 196 196 152 458 196 196 153 459 195 195 153 460 221 221 153 461 221 221 154 462 220 220 154 463 218 218 154 464 218 218 155 465 216 216 155 466 214 214 155 467 214 214 156 468 212 212 156 469 210 210 156 470 210 210 157 471 208 208 157 472 206 206 157 473 206 206 158 474 204 204 158 475 202 202 158 476 202 202 159 477 200 200 159 478 198 198 159 479 198 198 160 480 196 196 160 481 221 221 160 482 221 221 161 483 218 218 161 484 214 214 161 485 214 214 162 486 210 210 162 487 206 206 162 488 206 206 163 489 202 202 163 490 198 198 163 491 198 198 164 492 221 221 164 493 214 214 164 494 214 214 165 495 206 206 165 496 198 198 165 497 187 187 166 498 247 247 166 499 283 283 166 500 187 187 167 501 283 283 167 502 282 282 167 503 249 249 168 504 174 174 168 505 187 187 168 506 277 277 169 507 249 249 169 508 187 187 169 509 187 187 170 510 282 282 170 511 281 281 170 512 187 187 171 513 281 281 171 514 280 280 171 515 278 278 172 516 277 277 172 517 187 187 172 518 187 187 173 519 280 280 173 520 279 279 173 521 279 279 174 522 278 278 174 523 187 187 174 524 274 274 175 525 273 273 175 526 272 272 175 527 272 272 176 528 271 271 176 529 270 270 176 530 270 270 177 531 269 269 177 532 268 268 177 533 268 268 178 534 267 267 178 535 266 266 178 536 266 266 179 537 265 265 179 538 264 264 179 539 264 264 180 540 263 263 180 541 262 262 180 542 262 262 181 543 261 261 181 544 260 260 181 545 260 260 182 546 259 259 182 547 258 258 182 548 258 258 183 549 257 257 183 550 256 256 183 551 256 256 184 552 255 255 184 553 254 254 184 554 254 254 185 555 253 253 185 556 252 252 185 557 252 252 186 558 251 251 186 559 250 250 186 560 250 250 187 561 276 276 187 562 275 275 187 563 275 275 188 564 274 274 188 565 272 272 188 566 272 272 189 567 270 270 189 568 268 268 189 569 268 268 190 570 266 266 190 571 264 264 190 572 264 264 191 573 262 262 191 574 260 260 191 575 260 260 192 576 258 258 192 577 256 256 192 578 256 256 193 579 254 254 193 580 252 252 193 581 252 252 194 582 250 250 194 583 275 275 194 584 275 275 195 585 272 272 195 586 268 268 195 587 268 268 196 588 264 264 196 589 260 260 196 590 260 260 197 591 256 256 197 592 252 252 197 593 252 252 198 594 275 275 198 595 268 268 198 596 268 268 199 597 260 260 199 598 252 252 199 599 184 184 200 600 304 304 200 601 346 346 200 602 184 184 201 603 346 346 201 604 345 345 201 605 306 306 202 606 171 171 202 607 392 392 202 608 392 392 203 609 184 184 203 610 345 345 203 611 392 392 204 612 345 345 204 613 344 344 204 614 341 341 205 615 306 306 205 616 392 392 205 617 342 342 206 618 341 341 206 619 392 392 206 620 392 392 207 621 344 344 207 622 343 343 207 623 343 343 208 624 342 342 208 625 392 392 208 626 318 318 209 627 317 317 209 628 316 316 209 629 316 316 210 630 315 315 210 631 314 314 210 632 314 314 211 633 313 313 211 634 312 312 211 635 312 312 212 636 311 311 212 637 310 310 212 638 310 310 213 639 309 309 213 640 308 308 213 641 308 308 214 642 307 307 214 643 333 333 214 644 333 333 215 645 332 332 215 646 331 331 215 647 331 331 216 648 330 330 216 649 329 329 216 650 329 329 217 651 328 328 217 652 327 327 217 653 327 327 218 654 326 326 218 655 325 325 218 656 325 325 219 657 324 324 219 658 323 323 219 659 323 323 220 660 322 322 220 661 321 321 220 662 321 321 221 663 320 320 221 664 319 319 221 665 319 319 222 666 318 318 222 667 316 316 222 668 316 316 223 669 314 314 223 670 312 312 223 671 312 312 224 672 310 310 224 673 308 308 224 674 308 308 225 675 333 333 225 676 331 331 225 677 331 331 226 678 329 329 226 679 327 327 226 680 327 327 227 681 325 325 227 682 323 323 227 683 323 323 228 684 321 321 228 685 319 319 228 686 319 319 229 687 316 316 229 688 312 312 229 689 312 312 230 690 308 308 230 691 331 331 230 692 331 331 231 693 327 327 231 694 323 323 231 695 323 323 232 696 319 319 232 697 312 312 232 698 312 312 233 699 331 331 233 700 323 323 233 701 362 362 234 702 365 365 234 703 367 367 234 704 362 362 235 705 367 367 235 706 360 360 235 707 380 380 236 708 363 363 236 709 361 361 236 710 380 380 237 711 361 361 237 712 378 378 237 713 364 364 238 714 185 185 238 715 186 186 238 716 364 364 239 717 186 186 239 718 366 366 239 719 368 368 240 720 385 385 240 721 383 383 240 722 368 368 241 723 383 383 241 724 369 369 241 725 372 372 242 726 375 375 242 727 377 377 242 728 372 372 243 729 377 377 243 730 370 370 243 731 384 384 244 732 373 373 244 733 371 371 244 734 384 384 245 735 371 371 245 736 382 382 245 737 374 374 246 738 389 389 246 739 387 387 246 740 374 374 247 741 387 387 247 742 376 376 247 743 388 388 248 744 381 381 248 745 379 379 248 746 388 388 249 747 379 379 249 748 386 386 249 749 185 185 250 750 390 390 250 751 391 391 250 752 185 185 251 753 391 391 251 754 186 186 251 755 173 173 252 756 393 393 252 757 452 452 252 758 452 452 253 759 448 448 253 760 246 246 253 761 452 452 254 762 246 246 254 763 300 300 254 764 187 187 255 765 173 173 255 766 452 452 255 767 290 290 256 768 247 247 256 769 187 187 256 770 291 291 257 771 290 290 257 772 187 187 257 773 452 452 258 774 300 300 258 775 299 299 258 776 452 452 259 777 299 299 259 778 298 298 259 779 291 291 260 780 187 187 260 781 452 452 260 782 292 292 261 783 291 291 261 784 452 452 261 785 452 452 262 786 298 298 262 787 297 297 262 788 452 452 263 789 297 297 263 790 296 296 263 791 293 293 264 792 292 292 264 793 452 452 264 794 294 294 265 795 293 293 265 796 452 452 265 797 452 452 266 798 296 296 266 799 295 295 266 800 452 452 267 801 295 295 267 802 294 294 267 803 192 192 268 804 394 394 268 805 421 421 268 806 487 487 269 807 492 492 269 808 491 491 269 809 192 192 270 810 421 421 270 811 487 487 270 812 193 193 271 813 192 192 271 814 487 487 271 815 489 489 272 816 488 488 272 817 424 424 272 818 424 424 273 819 182 182 273 820 180 180 273 821 180 180 274 822 191 191 274 823 194 194 274 824 194 194 275 825 193 193 275 826 487 487 275 827 489 489 276 828 424 424 276 829 180 180 276 830 194 194 277 831 487 487 277 832 491 491 277 833 489 489 278 834 180 180 278 835 194 194 278 836 194 194 279 837 491 491 279 838 490 490 279 839 490 490 280 840 489 489 280 841 194 194 280 842 177 177 281 843 179 179 281 844 400 400 281 845 177 177 282 846 400 400 282 847 398 398 282 848 187 187 283 849 174 174 283 850 397 397 283 851 187 187 284 852 397 397 284 853 401 401 284 854 456 456 285 855 178 178 285 856 454 454 285 857 400 400 286 858 179 179 286 859 456 456 286 860 456 456 287 861 454 454 287 862 400 400 287 863 174 174 288 864 177 177 288 865 398 398 288 866 174 174 289 867 398 398 289 868 397 397 289 869 170 170 290 870 449 449 290 871 395 395 290 872 173 173 291 873 187 187 291 874 401 401 291 875 173 173 292 876 401 401 292 877 396 396 292 878 366 366 293 879 186 186 293 880 402 402 293 881 366 366 294 882 402 402 294 883 405 405 294 884 376 376 295 885 387 387 295 886 417 417 295 887 376 376 296 888 417 417 296 889 410 410 296 890 386 386 297 891 379 379 297 892 413 413 297 893 386 386 298 894 413 413 298 895 416 416 298 896 369 369 299 897 383 383 299 898 415 415 299 899 369 369 300 900 415 415 300 901 407 407 300 902 360 360 301 903 367 367 301 904 406 406 301 905 360 360 302 906 406 406 302 907 403 403 302 908 370 370 303 909 377 377 303 910 411 411 303 911 370 370 304 912 411 411 304 913 408 408 304 914 378 378 305 915 361 361 305 916 404 404 305 917 378 378 306 918 404 404 306 919 412 412 306 920 382 382 307 921 371 371 307 922 409 409 307 923 382 382 308 924 409 409 308 925 414 414 308 926 186 186 309 927 391 391 309 928 418 418 309 929 186 186 310 930 418 418 310 931 402 402 310 932 183 183 311 933 419 419 311 934 463 463 311 935 183 183 312 936 463 463 312 937 464 464 312 938 470 470 313 939 420 420 313 940 183 183 313 941 467 467 314 942 468 468 314 943 469 469 314 944 469 469 315 945 470 470 315 946 183 183 315 947 183 183 316 948 464 464 316 949 465 465 316 950 465 465 317 951 466 466 317 952 467 467 317 953 467 467 318 954 469 469 318 955 183 183 318 956 465 465 319 957 467 467 319 958 183 183 319 959 423 423 320 960 421 421 320 961 394 394 320 962 479 479 321 963 419 419 321 964 183 183 321 965 479 479 322 966 183 183 322 967 471 471 322 968 189 189 323 969 426 426 323 970 498 498 323 971 189 189 324 972 498 498 324 973 497 497 324 974 229 229 325 975 189 189 325 976 497 497 325 977 229 229 326 978 497 497 326 979 496 496 326 980 230 230 327 981 229 229 327 982 496 496 327 983 230 230 328 984 496 496 328 985 495 495 328 986 231 231 329 987 230 230 329 988 495 495 329 989 494 494 330 990 493 493 330 991 423 423 330 992 231 231 331 993 495 495 331 994 494 494 331 995 232 232 332 996 231 231 332 997 494 494 332 998 494 494 333 999 423 423 333 1000 394 394 333 1001 394 394 334 1002 192 192 334 1003 234 234 334 1004 233 233 335 1005 232 232 335 1006 494 494 335 1007 494 494 336 1008 394 394 336 1009 234 234 336 1010 494 494 337 1011 234 234 337 1012 233 233 337 1013 181 181 338 1014 425 425 338 1015 519 519 338 1016 518 518 339 1017 517 517 339 1018 516 516 339 1019 181 181 340 1020 519 519 340 1021 518 518 340 1022 506 506 341 1023 422 422 341 1024 181 181 341 1025 508 508 342 1026 507 507 342 1027 506 506 342 1028 510 510 343 1029 509 509 343 1030 508 508 343 1031 512 512 344 1032 511 511 344 1033 510 510 344 1034 515 515 345 1035 514 514 345 1036 513 513 345 1037 513 513 346 1038 512 512 346 1039 510 510 346 1040 508 508 347 1041 506 506 347 1042 181 181 347 1043 513 513 348 1044 510 510 348 1045 508 508 348 1046 518 518 349 1047 516 516 349 1048 515 515 349 1049 513 513 350 1050 508 508 350 1051 181 181 350 1052 518 518 351 1053 515 515 351 1054 513 513 351 1055 518 518 352 1056 513 513 352 1057 181 181 352 1058 181 181 353 1059 422 422 353 1060 505 505 353 1061 504 504 354 1062 503 503 354 1063 502 502 354 1064 181 181 355 1065 505 505 355 1066 504 504 355 1067 190 190 356 1068 188 188 356 1069 181 181 356 1070 235 235 357 1071 190 190 357 1072 181 181 357 1073 181 181 358 1074 504 504 358 1075 502 502 358 1076 181 181 359 1077 502 502 359 1078 501 501 359 1079 236 236 360 1080 235 235 360 1081 181 181 360 1082 237 237 361 1083 236 236 361 1084 181 181 361 1085 181 181 362 1086 501 501 362 1087 500 500 362 1088 500 500 363 1089 499 499 363 1090 426 426 363 1091 426 426 364 1092 189 189 364 1093 245 245 364 1094 426 426 365 1095 245 245 365 1096 244 244 365 1097 181 181 366 1098 500 500 366 1099 426 426 366 1100 238 238 367 1101 237 237 367 1102 181 181 367 1103 239 239 368 1104 238 238 368 1105 181 181 368 1106 181 181 369 1107 426 426 369 1108 244 244 369 1109 181 181 370 1110 244 244 370 1111 243 243 370 1112 240 240 371 1113 239 239 371 1114 181 181 371 1115 241 241 372 1116 240 240 372 1117 181 181 372 1118 181 181 373 1119 243 243 373 1120 242 242 373 1121 242 242 374 1122 241 241 374 1123 181 181 374 1124 449 449 375 1125 450 450 375 1126 393 393 375 1127 449 449 376 1128 393 393 376 1129 173 173 376 1130 248 248 377 1131 451 451 377 1132 453 453 377 1133 453 453 378 1134 177 177 378 1135 174 174 378 1136 174 174 379 1137 249 249 379 1138 302 302 379 1139 301 301 380 1140 248 248 380 1141 453 453 380 1142 453 453 381 1143 174 174 381 1144 302 302 381 1145 453 453 382 1146 302 302 382 1147 301 301 382 1148 455 455 383 1149 456 456 383 1150 179 179 383 1151 453 453 384 1152 455 455 384 1153 179 179 384 1154 453 453 385 1155 179 179 385 1156 177 177 385 1157 178 178 386 1158 399 399 386 1159 454 454 386 1160 450 450 387 1161 452 452 387 1162 393 393 387 1163 395 395 388 1164 449 449 388 1165 173 173 388 1166 395 395 389 1167 173 173 389 1168 396 396 389 1169 448 448 390 1170 451 451 390 1171 248 248 390 1172 448 448 391 1173 248 248 391 1174 289 289 391 1175 284 284 392 1176 246 246 392 1177 448 448 392 1178 285 285 393 1179 284 284 393 1180 448 448 393 1181 448 448 394 1182 289 289 394 1183 288 288 394 1184 448 448 395 1185 288 288 395 1186 287 287 395 1187 286 286 396 1188 285 285 396 1189 448 448 396 1190 448 448 397 1191 287 287 397 1192 286 286 397 1193 303 303 398 1194 462 462 398 1195 457 457 398 1196 457 457 399 1197 305 305 399 1198 340 340 399 1199 457 457 400 1200 340 340 400 1201 339 339 400 1202 334 334 401 1203 303 303 401 1204 457 457 401 1205 335 335 402 1206 334 334 402 1207 457 457 402 1208 457 457 403 1209 339 339 403 1210 338 338 403 1211 457 457 404 1212 338 338 404 1213 337 337 404 1214 336 336 405 1215 335 335 405 1216 457 457 405 1217 457 457 406 1218 337 337 406 1219 336 336 406 1220 459 459 407 1221 461 461 407 1222 433 433 407 1223 433 433 408 1224 432 432 408 1225 431 431 408 1226 431 431 409 1227 430 430 409 1228 429 429 409 1229 428 428 410 1230 427 427 410 1231 176 176 410 1232 433 433 411 1233 431 431 411 1234 429 429 411 1235 429 429 412 1236 428 428 412 1237 176 176 412 1238 459 459 413 1239 433 433 413 1240 429 429 413 1241 459 459 414 1242 429 429 414 1243 176 176 414 1244 172 172 415 1245 460 460 415 1246 462 462 415 1247 462 462 416 1248 303 303 416 1249 348 348 416 1250 347 347 417 1251 304 304 417 1252 184 184 417 1253 172 172 418 1254 462 462 418 1255 348 348 418 1256 347 347 419 1257 184 184 419 1258 172 172 419 1259 348 348 420 1260 347 347 420 1261 172 172 420 1262 305 305 421 1263 457 457 421 1264 458 458 421 1265 458 458 422 1266 175 175 422 1267 171 171 422 1268 171 171 423 1269 306 306 423 1270 359 359 423 1271 171 171 424 1272 359 359 424 1273 358 358 424 1274 349 349 425 1275 305 305 425 1276 458 458 425 1277 350 350 426 1278 349 349 426 1279 458 458 426 1280 458 458 427 1281 171 171 427 1282 358 358 427 1283 458 458 428 1284 358 358 428 1285 357 357 428 1286 351 351 429 1287 350 350 429 1288 458 458 429 1289 352 352 430 1290 351 351 430 1291 458 458 430 1292 458 458 431 1293 357 357 431 1294 356 356 431 1295 458 458 432 1296 356 356 432 1297 355 355 432 1298 353 353 433 1299 352 352 433 1300 458 458 433 1301 458 458 434 1302 355 355 434 1303 354 354 434 1304 458 458 435 1305 354 354 435 1306 353 353 435 1307 435 435 436 1308 434 434 436 1309 460 460 436 1310 460 460 437 1311 172 172 437 1312 447 447 437 1313 447 447 438 1314 446 446 438 1315 445 445 438 1316 445 445 439 1317 444 444 439 1318 443 443 439 1319 443 443 440 1320 442 442 440 1321 441 441 440 1322 441 441 441 1323 440 440 441 1324 439 439 441 1325 439 439 442 1326 438 438 442 1327 437 437 442 1328 436 436 443 1329 435 435 443 1330 460 460 443 1331 441 441 444 1332 439 439 444 1333 437 437 444 1334 437 437 445 1335 436 436 445 1336 460 460 445 1337 460 460 446 1338 447 447 446 1339 445 445 446 1340 443 443 447 1341 441 441 447 1342 437 437 447 1343 460 460 448 1344 445 445 448 1345 443 443 448 1346 460 460 449 1347 443 443 449 1348 437 437 449 1349 458 458 450 1350 459 459 450 1351 176 176 450 1352 458 458 451 1353 176 176 451 1354 175 175 451 1355 424 424 452 1356 486 486 452 1357 478 478 452 1358 424 424 453 1359 478 478 453 1360 182 182 453 1361 486 486 454 1362 485 485 454 1363 477 477 454 1364 486 486 455 1365 477 477 455 1366 478 478 455 1367 485 485 456 1368 484 484 456 1369 476 476 456 1370 485 485 457 1371 476 476 457 1372 477 477 457 1373 484 484 458 1374 483 483 458 1375 475 475 458 1376 484 484 459 1377 475 475 459 1378 476 476 459 1379 483 483 460 1380 482 482 460 1381 474 474 460 1382 483 483 461 1383 474 474 461 1384 475 475 461 1385 482 482 462 1386 481 481 462 1387 473 473 462 1388 482 482 463 1389 473 473 463 1390 474 474 463 1391 481 481 464 1392 480 480 464 1393 472 472 464 1394 481 481 465 1395 472 472 465 1396 473 473 465 1397 480 480 466 1398 479 479 466 1399 471 471 466 1400 480 480 467 1401 471 471 467 1402 472 472 467 1403</p>
                </triangles>
            </mesh>
        </geometry>
    </library_geometries>
    <library_visual_scenes>
        <visual_scene id="VisualSceneNode" name="VisualScene">
            <node id="node" name="node">
                <instance_geometry url="#shape0-lib">
                    <bind_material>
                        <technique_common>
                            <instance_material symbol="material0" target="#material0">
                                <bind_vertex_input semantic="UVSET0" input_semantic="TEXCOORD"/>
                            </instance_material>
                        </technique_common>
                    </bind_material>
                </instance_geometry>
            </node>
        </visual_scene>
    </library_visual_scenes>
    <scene>
        <instance_visual_scene url="#VisualSceneNode"/>
    </scene>
</COLLADA>
