<?xml version="1.0" encoding="UTF-8"?>
<COLLADA xmlns="http://www.collada.org/2005/11/COLLADASchema" version="1.4.1">
    <asset>
        <contributor>
            <author>VCGLab</author>
            <authoring_tool>VCGLib | MeshLab</authoring_tool>
        </contributor>
        <created>Tue May 5 19:27:08 2026 GMT</created>
        <modified>Tue May 5 19:27:08 2026 GMT</modified>
        <up_axis>Y_UP</up_axis>
    </asset>
    <library_images>
        <image id="texture0" name="texture0">
            <init_from>notexture.png</init_from>
        </image>
    </library_images>
    <library_materials>
        <material id="material0" name="material0">
            <instance_effect url="#material0-fx"/>
        </material>
    </library_materials>
    <library_effects>
        <effect id="material0-fx">
            <profile_COMMON>
                <newparam sid="texture0-surface">
                    <surface type="2D">
                        <init_from>texture0</init_from>
                        <format>R8G8B8</format>
                    </surface>
                </newparam>
                <newparam sid="texture0-sampler">
                    <sampler2D>
                        <source>texture0-surface</source>
                        <minfilter>LINEAR</minfilter>
                        <magfilter>LINEAR</magfilter>
                    </sampler2D>
                </newparam>
                <technique sid="common">
                    <blinn>
                        <diffuse>
                            <texture texture="texture0-sampler" texcoord="UVSET0"/>
                        </diffuse>
                    </blinn>
                </technique>
            </profile_COMMON>
        </effect>
    </library_effects>
    <library_geometries>
        <geometry id="shape0-lib" name="shape0">
            <mesh>
                <source id="shape0-lib-positions" name="position">
                    <float_array id="shape0-lib-positions-array" count="1575">-78.3489 26.9456 19.888 -78.3489 26.9456 19.888 -78.3489 -68.0952 19.888 -78.3489 -68.0952 19.888 -74.483 26.9456 19.5073 -74.483 26.9456 19.5073 -74.483 -68.0952 19.5073 -74.483 -68.0952 19.5073 -70.7656 26.9456 18.3796 -70.7656 26.9456 18.3796 -70.7656 -68.0952 18.3796 -70.7656 -68.0952 18.3796 -67.3397 26.9456 16.5484 -67.3397 26.9456 16.5484 -67.3397 -68.0952 16.5484 -67.3397 -68.0952 16.5484 -64.3368 26.9456 14.084 -64.3368 26.9456 14.084 -64.3368 -68.0952 14.084 -64.3368 -68.0952 14.084 -61.8724 26.9456 11.0812 -61.8724 26.9456 11.0812 -61.8724 -68.0952 11.0811 -61.8724 -68.0952 11.0811 -60.0412 26.9456 7.65521 -60.0412 26.9456 7.65521 -60.0412 -68.0952 7.6552 -60.0412 -68.0952 7.6552 -58.9136 26.9456 3.93784 -58.9136 26.9456 3.93784 -58.9136 -68.0952 3.93784 -58.9136 -68.0952 3.93784 -58.5328 26.9456 0.0719087 -58.5328 26.9456 0.0719087 -58.5328 -68.0952 0.0719038 -58.5328 -68.0952 0.0719038 -98.165 26.9456 0.0719087 -98.165 26.9456 0.0719087 -98.165 -68.0952 0.0719038 -98.165 -68.0952 0.0719038 -97.7843 26.9456 3.93784 -97.7843 26.9456 3.93784 -97.7843 -68.0952 3.93784 -97.7843 -68.0952 3.93784 -96.6566 26.9456 7.65521 -96.6566 26.9456 7.65521 -96.6566 -68.0952 7.6552 -96.6566 -68.0952 7.6552 -94.8254 26.9456 11.0812 -94.8254 26.9456 11.0812 -94.8254 -68.0952 11.0811 -94.8254 -68.0952 11.0811 -92.361 26.9456 14.084 -92.361 26.9456 14.084 -92.361 -68.0952 14.084 -92.361 -68.0952 14.084 -89.3582 26.9456 16.5484 -89.3582 26.9456 16.5484 -89.3582 -68.0952 16.5484 -89.3582 -68.0952 16.5484 -85.9322 26.9456 18.3796 -85.9322 26.9456 18.3796 -85.9322 -68.0952 18.3796 -85.9322 -68.0952 18.3796 -82.2149 26.9456 19.5073 -82.2149 26.9456 19.5073 -82.2149 -68.0952 19.5073 -82.2149 -68.0952 19.5073 -78.3489 26.9456 24.0719 -78.3489 26.9456 24.0719 -78.3489 26.9456 24.0719 -73.6668 26.9456 23.6108 -73.6668 26.9456 23.6108 -73.6668 26.9456 23.6108 -73.6668 -68.0952 23.6108 -73.6668 -68.0952 23.6108 -73.6668 -68.0952 23.6108 -78.3489 -68.0952 24.0719 -78.3489 -68.0952 24.0719 -78.3489 -68.0952 24.0719 -69.1645 26.9456 22.245 -69.1645 26.9456 22.245 -69.1645 26.9456 22.245 -69.1645 -68.0952 22.245 -69.1645 -68.0952 22.245 -69.1645 -68.0952 22.245 -65.0153 26.9456 20.0272 -65.0153 26.9456 20.0272 -65.0153 26.9456 20.0272 -65.0153 -68.0952 20.0272 -65.0153 -68.0952 20.0272 -65.0153 -68.0952 20.0272 -61.3784 26.9456 17.0425 -61.3784 26.9456 17.0425 -61.3784 26.9456 17.0425 -61.3784 -68.0952 17.0425 -61.3784 -68.0952 17.0425 -61.3784 -68.0952 17.0425 -58.3937 26.9456 13.4056 -58.3937 26.9456 13.4056 -58.3937 26.9456 13.4056 -58.3937 -68.0952 13.4056 -58.3937 -68.0952 13.4056 -58.3937 -68.0952 13.4056 -56.1758 26.9456 9.25631 -56.1758 26.9456 9.25631 -56.1758 26.9456 9.25631 -56.1758 -68.0952 9.25631 -56.1758 -68.0952 9.25631 -56.1758 -68.0952 9.25631 -54.8101 26.9456 4.75408 -54.8101 26.9456 4.75408 -54.8101 26.9456 4.75408 -54.8101 -68.0952 4.75407 -54.8101 -68.0952 4.75407 -54.8101 -68.0952 4.75407 -54.3489 26.9456 0.0719087 -54.3489 26.9456 0.0719087 -54.3489 26.9456 0.0719087 -54.3489 -68.0952 0.0719038 -54.3489 -68.0952 0.0719038 -54.3489 -68.0952 0.0719038 -102.349 26.9456 0.0719087 -102.349 26.9456 0.0719087 -102.349 26.9456 0.0719087 -102.349 -68.0952 0.0719038 -102.349 -68.0952 0.0719038 -102.349 -68.0952 0.0719038 -101.888 26.9456 4.75408 -101.888 26.9456 4.75408 -101.888 26.9456 4.75408 -101.888 -68.0952 4.75407 -101.888 -68.0952 4.75407 -101.888 -68.0952 4.75407 -100.522 26.9456 9.25631 -100.522 26.9456 9.25631 -100.522 26.9456 9.25631 -100.522 -68.0952 9.25631 -100.522 -68.0952 9.25631 -100.522 -68.0952 9.25631 -98.3042 26.9456 13.4056 -98.3042 26.9456 13.4056 -98.3042 26.9456 13.4056 -98.3042 -68.0952 13.4056 -98.3042 -68.0952 13.4056 -98.3042 -68.0952 13.4056 -95.3195 26.9456 17.0425 -95.3195 26.9456 17.0425 -95.3195 26.9456 17.0425 -95.3195 -68.0952 17.0425 -95.3195 -68.0952 17.0425 -95.3195 -68.0952 17.0425 -91.6826 26.9456 20.0272 -91.6826 26.9456 20.0272 -91.6826 26.9456 20.0272 -91.6826 -68.0952 20.0272 -91.6826 -68.0952 20.0272 -91.6826 -68.0952 20.0272 -87.5333 26.9456 22.245 -87.5333 26.9456 22.245 -87.5333 26.9456 22.245 -87.5333 -68.0952 22.245 -87.5333 -68.0952 22.245 -87.5333 -68.0952 22.245 -83.0311 26.9456 23.6108 -83.0311 26.9456 23.6108 -83.0311 26.9456 23.6108 -83.0311 -68.0952 23.6108 -83.0311 -68.0952 23.6108 -83.0311 -68.0952 23.6108 -158.349 -100.084 0.0719063 65.6511 -4.08406 0.0719063 65.6511 11.9159 0.0719063 -174.62 -84.0841 0.0719063 -174.62 -68.0841 0.0719063 65.6511 -12.0841 0.0719063 57.6452 -20.0841 0.0719063 -174.62 -60.0841 0.0719063 -158.349 -44.0841 0.0719063 -158.349 -44.0841 0.0719063 -166.484 -52.0841 0.0719063 -166.484 -52.0841 0.0719063 -78.3489 -212.084 0.0719063 -62.3489 -212.084 0.0719063 -86.3489 -212.084 0.0719063 -94.3489 -204.084 0.0719063 65.6511 3.91595 0.0719063 257.651 3.91594 0.0719063 273.651 3.91594 0.0719063 -174.62 -76.0841 0.0719063 -70.3489 -212.084 0.0719063 -70.3489 -199.58 0.0719063 -70.3489 -207.133 0.0719063 -78.3489 -209.048 0.0719063 -78.3489 -197.763 0.0719063 -79.2964 -197.763 0.0719063 -79.2964 -209.048 0.0719063 -74.4219 -199.258 0.0719063 -73.7382 -199.372 0.0719063 -73.1243 -199.555 0.0719063 -72.5791 -199.801 0.0719063 -72.1017 -200.105 0.0719063 -71.6912 -200.462 0.0719063 -71.3464 -200.867 0.0719063 -71.0666 -201.313 0.0719063 -70.8506 -201.795 0.0719063 -70.6976 -202.308 0.0719063 -70.6065 -202.847 0.0719063 -70.5763 -203.406 0.0719063 -70.595 -203.78 0.0719063 -70.6558 -204.198 0.0719063 -70.7656 -204.646 0.0719063 -70.9311 -205.109 0.0719063 -71.1595 -205.572 0.0719063 -71.4574 -206.02 0.0719063 -71.8319 -206.44 0.0719063 -72.2898 -206.816 0.0719063 -72.838 -207.133 0.0719063 -73.4835 -207.378 0.0719063 -74.233 -207.536 0.0719063 -75.0936 -207.592 0.0719063 -77.6748 -207.592 0.0719063 -77.6748 -199.219 0.0719063 -75.1763 -199.219 0.0719063 -74.895 -209.048 0.0719063 -73.9951 -208.992 0.0719063 -73.1586 -208.831 0.0719063 -72.3884 -208.574 0.0719063 -71.6874 -208.229 0.0719063 -71.0583 -207.805 0.0719063 -70.5039 -207.313 0.0719063 -70.8786 -199.076 0.0719063 -71.5011 -198.634 0.0719063 -72.2139 -198.27 0.0719063 -73.0188 -197.996 0.0719063 -73.9174 -197.823 0.0719063 -74.9115 -197.763 0.0719063 -70.0271 -206.76 0.0719063 -69.6307 -206.156 0.0719063 -69.3175 -205.509 0.0719063 -69.0903 -204.829 0.0719063 -68.9519 -204.125 0.0719063 -68.9051 -203.406 0.0719063 -68.9437 -202.735 0.0719063 -69.0605 -202.063 0.0719063 -69.2572 -201.4 0.0719063 -69.5357 -200.759 0.0719063 -69.8976 -200.15 0.0719063 -161.98 -76.0841 0.0719063 -169.533 -76.0841 0.0719063 -160.164 -68.0841 0.0719063 -171.448 -68.0841 0.0719063 -161.659 -72.0112 0.0719063 -161.772 -72.6948 0.0719063 -161.955 -73.3088 0.0719063 -162.201 -73.854 0.0719063 -162.506 -74.3313 0.0719063 -162.863 -74.7419 0.0719063 -163.267 -75.0866 0.0719063 -163.713 -75.3664 0.0719063 -164.195 -75.5824 0.0719063 -164.709 -75.7354 0.0719063 -165.247 -75.8266 0.0719063 -165.806 -75.8567 0.0719063 -166.18 -75.838 0.0719063 -166.599 -75.7772 0.0719063 -167.046 -75.6675 0.0719063 -167.509 -75.5019 0.0719063 -167.972 -75.2735 0.0719063 -168.42 -74.9756 0.0719063 -168.84 -74.6011 0.0719063 -169.216 -74.1432 0.0719063 -169.534 -73.595 0.0719063 -169.779 -72.9496 0.0719063 -169.936 -72.2 0.0719063 -169.992 -71.3395 0.0719063 -169.992 -68.7582 0.0719063 -161.62 -68.7582 0.0719063 -161.62 -71.2567 0.0719063 -171.448 -71.538 0.0719063 -171.393 -72.438 0.0719063 -171.232 -73.2744 0.0719063 -170.974 -74.0446 0.0719063 -170.629 -74.7456 0.0719063 -170.206 -75.3747 0.0719063 -169.713 -75.9291 0.0719063 -161.477 -75.5544 0.0719063 -161.034 -74.9319 0.0719063 -160.671 -74.2191 0.0719063 -160.397 -73.4142 0.0719063 -160.224 -72.5156 0.0719063 -160.164 -71.5215 0.0719063 -169.16 -76.4059 0.0719063 -168.556 -76.8023 0.0719063 -167.909 -77.1155 0.0719063 -167.229 -77.3428 0.0719063 -166.525 -77.4812 0.0719063 -165.806 -77.5279 0.0719063 -165.135 -77.4894 0.0719063 -164.463 -77.3726 0.0719063 -163.8 -77.1758 0.0719063 -163.159 -76.8973 0.0719063 -162.55 -76.5354 0.0719063 -160.164 -67.1366 0.0719063 -171.448 -67.1366 0.0719063 52.6871 3.91595 0.0719063 63.9719 3.91595 0.0719063 54.6021 -4.08405 0.0719063 62.1551 -4.08405 0.0719063 62.4767 -0.0111408 0.0719063 62.3631 -0.694828 0.0719063 62.1804 -1.30877 0.0719063 61.9342 -1.85394 0.0719063 61.6298 -2.33131 0.0719063 61.2727 -2.74186 0.0719063 60.8684 -3.08657 0.0719063 60.4223 -3.36642 0.0719063 59.9399 -3.58238 0.0719063 59.4267 -3.73543 0.0719063 58.888 -3.82654 0.0719063 58.3295 -3.85669 0.0719063 57.9551 -3.83796 0.0719063 57.5368 -3.77717 0.0719063 57.089 -3.66743 0.0719063 56.6264 -3.50185 0.0719063 56.1636 -3.27353 0.0719063 55.7151 -2.97558 0.0719063 55.2956 -2.6011 0.0719063 54.9196 -2.14319 0.0719063 54.6018 -1.59497 0.0719063 54.3567 -0.949537 0.0719063 54.199 -0.200001 0.0719063 54.1432 0.660542 0.0719063 54.1432 3.24182 0.0719063 62.5157 3.24182 0.0719063 62.5157 0.743273 0.0719063 52.6871 0.461987 0.0719063 52.7428 -0.43796 0.0719063 52.9039 -1.27442 0.0719063 53.1615 -2.04457 0.0719063 53.5064 -2.74561 0.0719063 53.9297 -3.37472 0.0719063 54.4224 -3.92908 0.0719063 62.6588 -3.55442 0.0719063 63.101 -2.93191 0.0719063 63.4649 -2.21909 0.0719063 63.7389 -1.41422 0.0719063 63.9117 -0.515591 0.0719063 63.9719 0.478529 0.0719063 63.9719 4.86339 0.0719063 52.6871 4.86339 0.0719063 54.9754 -4.40588 0.0719063 55.5797 -4.8023 0.0719063 56.2262 -5.11552 0.0719063 56.9061 -5.34274 0.0719063 57.6101 -5.48114 0.0719063 58.3295 -5.5279 0.0719063 59.0001 -5.48935 0.0719063 59.6724 -5.37255 0.0719063 60.335 -5.17577 0.0719063 60.9763 -4.89729 0.0719063 61.585 -4.53539 0.0719063 273.651 27.1159 0.0719063 273.651 28.7159 0.0719063 257.651 27.1159 0.0719063 257.651 28.7159 0.0719063 257.651 11.1159 0.0719063 257.651 12.7159 0.0719063 273.651 11.1159 0.0719063 273.651 12.7159 0.0719063 257.651 123.116 0.0719063 273.651 123.116 0.0719063 273.651 91.1159 0.0719063 273.651 92.7159 0.0719063 257.651 91.1159 0.0719063 257.651 92.7159 0.0719063 257.651 75.1159 0.0719063 257.651 76.7159 0.0719063 273.651 75.1159 0.0719063 273.651 76.7159 0.0719063 273.651 43.1159 0.0719063 273.651 44.7159 0.0719063 257.651 43.1159 0.0719063 257.651 44.7159 0.0719063 273.651 107.116 0.0719063 273.651 108.716 0.0719063 257.651 107.116 0.0719063 257.651 108.716 0.0719063 273.651 59.1159 0.0719063 273.651 60.7159 0.0719063 257.651 59.1159 0.0719063 257.651 60.7159 0.0719063 257.651 -3.68406 0.0719063 273.651 -3.68406 0.0719063 65.6511 -3.68406 0.0719063 -161.549 -84.0841 0.0719063 -78.3489 -197.755 0.0719063 -158.349 -100.084 0.0719063 -174.62 -84.0841 0.0719063 -174.62 -68.0841 0.0719063 -174.62 -60.0841 0.0719063 -158.349 -44.0841 0.0719063 -166.484 -52.0841 0.0719063 -166.484 -52.0841 0.0719063 -174.62 -76.0841 0.0719063 273.651 3.91594 0.0719063 273.651 27.1159 0.0719063 273.651 28.7159 0.0719063 273.651 11.1159 0.0719063 273.651 12.7159 0.0719063 273.651 123.116 0.0719063 273.651 91.1159 0.0719063 273.651 92.7159 0.0719063 273.651 75.1159 0.0719063 273.651 76.7159 0.0719063 273.651 43.1159 0.0719063 273.651 44.7159 0.0719063 273.651 107.116 0.0719063 273.651 108.716 0.0719063 273.651 59.1159 0.0719063 273.651 60.7159 0.0719063 273.651 -3.68406 0.0719063 -94.3489 -197.085 0.0719063 -101.365 -197.068 0.0719063 -79.5783 -197.113 0.0719063 -62.3489 -197.136 0.0719063 -77.1258 -197.117 0.0719063 -86.3489 -197.104 0.0719063 -47.4211 -197.156 0.0719063 -70.3489 -197.126 0.0719063 56.6459 -21.0826 0.0719063 55.6467 -22.0811 0.0719063 54.6474 -23.0796 0.0719063 53.6481 -24.0782 0.0719063 52.6489 -25.0767 0.0719063 51.6496 -26.0752 0.0719063 50.6503 -27.0738 0.0719063 50.7177 26.8493 0.0719063 51.7844 25.7826 0.0719063 52.8511 24.7159 0.0719063 53.9177 23.6493 0.0719063 54.9844 22.5826 0.0719063 56.0511 21.516 0.0719063 57.1177 20.4493 0.0719063 58.1844 19.3826 0.0719063 59.2511 18.3159 0.0719063 60.3177 17.2493 0.0719063 61.3844 16.1826 0.0719063 62.4511 15.1159 0.0719063 63.5177 14.0493 0.0719063 64.5844 12.9826 0.0719063 -159.39 -76.0841 0.0719063 -159.425 -99.0263 0.0719063 -159.406 -86.2274 0.0719063 -159.379 -68.0841 0.0719063 -159.399 -81.9343 0.0719063 -159.367 -60.0841 0.0719063 -159.344 -45.0628 0.0719063 -159.344 -45.0628 0.0719063 -159.355 -52.0841 0.0719063 -159.344 -45.0628 0.0719063 -159.344 -45.0628 0.0719063 50.6672 -4.08405 0.0719063 50.6541 -12.0841 0.0719063 50.6411 -20.0841 0.0719063 50.6933 11.9159 0.0719063 50.6296 -27.0945 0.0719063 50.6803 3.91595 0.0719063 -95.1285 -197.083 0.0719063 -95.9081 -197.081 0.0719063 -96.6877 -197.079 0.0719063 -97.4673 -197.077 0.0719063 -98.2469 -197.075 0.0719063 -99.0265 -197.073 0.0719063 -99.8061 -197.071 0.0719063 -100.586 -197.07 0.0719063 -93.4601 -204.973 0.0719063 -92.5712 -205.862 0.0719063 -91.6823 -206.751 0.0719063 -90.7934 -207.64 0.0719063 -89.9045 -208.529 0.0719063 -89.0156 -209.417 0.0719063 -88.1267 -210.306 0.0719063 -87.2378 -211.195 0.0719063 -93.4601 -197.087 0.0719063 -92.5712 -197.089 0.0719063 -91.6823 -197.091 0.0719063 -90.7934 -197.093 0.0719063 -89.9045 -197.095 0.0719063 -89.0156 -197.098 0.0719063 -88.1267 -197.1 0.0719063 -87.2378 -197.102 0.0719063 -81.5423 -197.111 0.0719063 -85.5478 -197.105 0.0719063 -84.7467 -197.106 0.0719063 -83.9456 -197.107 0.0719063 -83.1445 -197.108 0.0719063 -82.3434 -197.11 0.0719063 -75.1401 -197.119 0.0719063 -74.3416 -197.12 0.0719063 -73.5431 -197.121 0.0719063 -72.7445 -197.122 0.0719063 -71.946 -197.123 0.0719063 -71.1475 -197.125 0.0719063 -69.3489 -197.127 0.0719063 -68.3489 -197.128 0.0719063 -67.3489 -197.13 0.0719063 -66.3489 -197.131 0.0719063 -65.3489 -197.132 0.0719063 -64.3489 -197.134 0.0719063 -63.3489 -197.135 0.0719063 -61.3538 -197.138 0.0719063 -60.3586 -197.139 0.0719063 -59.3634 -197.14 0.0719063 -58.3682 -197.142 0.0719063 -57.373 -197.143 0.0719063 -56.3778 -197.144 0.0719063 -55.3826 -197.146 0.0719063 -54.3874 -197.147 0.0719063 -53.3922 -197.148 0.0719063 -52.397 -197.15 0.0719063 -51.4018 -197.151 0.0719063 -50.4066 -197.152 0.0719063 -49.4115 -197.154 0.0719063 -48.4163 -197.155 0.0719063</float_array>
                    <technique_common>
                        <accessor count="525" source="#shape0-lib-positions-array" stride="3">
                            <param name="X" type="float"/>
                            <param name="Y" type="float"/>
                            <param name="Z" type="float"/>
                        </accessor>
                    </technique_common>
                </source>
                <source id="shape0-lib-normals" name="normal">
                    <float_array id="shape0-lib-normals-array" count="1404">0.0980175 -5.99163e-08 0.995185 0.0980171 -7.99794e-08 0.995185 0.290285 -7.68183e-08 0.95694 0.290285 -7.67802e-08 0.95694 0.471396 -7.07962e-08 0.881921 0.471397 -5.11868e-08 0.881921 0.634393 -4.654e-08 0.77301 0.634393 -4.69212e-08 0.77301 0.77301 -3.81944e-08 0.634394 0.77301 -3.62573e-08 0.634394 0.881922 -2.8381e-08 0.471396 0.881922 -2.34606e-08 0.471396 0.956941 -1.4564e-08 0.290283 0.956941 -1.38631e-08 0.290283 0.995185 -4.91776e-09 0.0980183 0.995185 -5.33196e-09 0.0980183 -0.995185 -5.07144e-09 0.0980183 -0.995185 -5.33196e-09 0.0980183 -0.95694 -1.45642e-08 0.290286 -0.95694 -1.49295e-08 0.290286 -0.881923 -2.36507e-08 0.471394 -0.881923 -2.77262e-08 0.471394 -0.773009 -3.81945e-08 0.634395 -0.773009 -3.83901e-08 0.634395 -0.634393 -4.654e-08 0.77301 -0.634393 -4.69212e-08 0.77301 -0.471397 -5.30971e-08 0.881921 -0.471397 -7.03819e-08 0.881921 -0.290284 -7.68183e-08 0.956941 -0.290284 -7.67801e-08 0.956941 -0.0980175 -7.98884e-08 0.995185 -0.0980171 -5.97179e-08 0.995185 0 1 0 0 1 0 0 -1 0 0 -1 0 0 1 0 0 1 0 0 -1 0 0 -1 0 0 1 0 0 1 0 0 -1 0 0 -1 0 0 1 0 0 1 0 0 -1 0 0 -1 0 0 1 0 0 1 0 0 -1 0 0 -1 0 0 1 0 0 1 0 0 -1 0 0 -1 0 0 1 0 0 1 0 0 -1 0 0 -1 0 0 1 0 0 1 0 0 -1 0 0 -1 0 0 5.17397e-08 -1 0 5.17397e-08 -1 0 1 0 0 1 0 0 -1 0 0 -1 0 0 1 0 0 1 0 0 -1 0 0 -1 0 0 1 0 0 1 0 0 -1 0 0 -1 0 0 1 0 0 1 0 0 -1 0 0 -1 0 0 1 0 0 1 0 0 -1 0 0 -1 0 0 1 0 0 1 0 0 -1 0 0 -1 0 0 1 0 0 1 0 0 -1 0 0 -1 0 0 1 0 0 1 0 0 -1 0 0 -1 0 0 5.17397e-08 -1 0 5.17397e-08 -1 -0.995185 5.16618e-09 -0.0980169 -0.995185 4.67181e-09 -0.0980169 -0.956941 1.29155e-08 -0.290284 -0.956941 1.45641e-08 -0.290284 -0.881921 2.32478e-08 -0.471397 -0.881921 2.36509e-08 -0.471397 -0.773011 3.22886e-08 -0.634393 -0.773011 3.81944e-08 -0.634393 -0.634393 4.64956e-08 -0.773011 -0.634393 4.65401e-08 -0.773011 -0.471397 5.29534e-08 -0.881921 -0.471397 7.07962e-08 -0.881921 -0.290284 7.62011e-08 -0.956941 -0.290285 5.76138e-08 -0.95694 -0.0980175 5.9734e-08 -0.995185 -0.0980175 5.99163e-08 -0.995185 0.0980175 6.00569e-08 -0.995185 0.0980175 5.99163e-08 -0.995185 0.290284 5.81195e-08 -0.956941 0.290285 7.68183e-08 -0.95694 0.471397 7.1035e-08 -0.881921 0.471397 5.30971e-08 -0.881921 0.634393 4.64956e-08 -0.773011 0.634393 4.654e-08 -0.773011 0.773011 3.87464e-08 -0.634393 0.773011 3.18287e-08 -0.634393 0.881921 2.45394e-08 -0.471397 0.881921 2.36509e-08 -0.471397 0.995185 5.07137e-09 -0.0980169 0.956941 1.54985e-08 -0.290284 0.995185 4.67181e-09 -0.0980169 0.956941 1.4207e-08 -0.290284 0 0 1 0 0 1 0 0 1 0 0 1 0 0 1 0 0 1 0 0 1 0 0 1 0 0 1 0 0 1 0 0 1 0 0 1 0 0 1 0 0 1 0 0 1 0 0 1 0 0 1 0 0 1 0 0 1 0 0 1 0 0 1 0 0 1 0 0 1 0 0 1 0 0 1 0 0 1 0 0 1 0 0 1 0 0 1 0 0 1 0 0 1 0 0 1 0 0 1 0 0 1 0 0 1 0 0 1 0 0 1 0 0 1 0 0 1 0 0 1 0 0 1 0 0 1 0 0 1 0 0 1 0 0 1 0 0 1 0 0 1 0 0 1 0 0 1 0 0 1 0 0 1 0 0 1 0 0 1 0 0 1 0 0 1 0 0 1 0 0 1 0 0 1 0 0 1 0 0 1 0 0 1 0 0 1 0 0 1 0 0 1 0 0 1 0 0 1 0 0 1 0 0 1 0 0 1 0 0 1 0 0 1 0 0 1 0 0 1 0 0 1 0 0 1 0 0 1 0 0 1 0 0 1 0 0 1 0 0 1 0 0 1 0 0 1 0 0 1 0 0 1 0 0 1 0 0 1 0 0 1 0 0 1 0 0 1 0 0 1 0 0 1 0 0 1 0 0 1 0 0 1 0 0 1 0 0 1 0 0 1 0 0 1 0 0 1 0 0 1 0 0 1 0 0 1 0 0 1 0 0 1 0 0 1 0 0 1 0 0 1 0 0 1 0 0 1 0 0 1 0 0 1 0 0 1 0 0 1 0 0 1 0 0 1 0 0 1 0 0 1 0 0 1 0 0 1 0 0 1 0 0 1 0 0 1 0 0 1 0 0 1 0 0 1 0 0 1 0 0 1 0 0 1 0 0 1 0 0 1 0 0 1 0 0 1 0 0 1 0 0 1 0 0 1 0 0 1 0 0 1 0 0 1 0 0 1 0 0 1 0 0 1 0 0 1 0 0 1 0 0 1 0 0 1 0 0 1 0 0 1 0 0 1 0 0 1 0 0 0 0 0 0 0 0 0 0 0 0 0 0 -1 0 0 0 0 0 -1 0 0 0 0 0 0 0 0 0 0 0 0 0 0 0 0 0 0 0 0 0 0 0 0 0 0 0 0 0 0 0 0 0 0 0 0 0 0 0 0 0 0 0 0 0 0 0 0 0 0 0 0 0 0 0 0 0 0 0 0 0 0 0 0 0 0 0 0 0 0 0 1 0 0 1 0 0 1 0 0 1 0 0 1 0 0 1 0 0 1 0 0 1 0 0 1 0 0 1 0 0 1 0 0 1 0 0 1 0 0 1 0 0 1 0 0 1 0 0 1 0 0 1 0 0 1 0 0 1 0 0 1 0 0 1 0 0 1 0 0 1 0 0 1 0 0 1 0 0 1 0 0 1 0 0 1 0 0 1 0 0 1 0 0 1 0 0 1 0 0 1 0 0 1 0 0 1 0 0 1 0 0 1 0 0 1 0 0 1 0 0 1 0 0 1 0 0 1 0 0 1 0 0 1 0 0 1 0 0 1 0 0 1 0 0 1 0 0 1 0 0 1 0 0 1 0 0 1 0 0 1 0 0 1 0 0 1 0 0 1 0 0 1 0 0 1 0 0 1 0 0 1 0 0 1 0 0 1 0 0 1 0 0 1 0 0 1 0 0 1 0 0 1 0 0 1 0 0 1 0 0 1 0 0 1 0 0 1 0 0 1 0 0 1 0 0 0 0 0 1 0 0 -1 0 0 0 0 0 1 0 0 1 0 0 1 0 0 1 0 0 1 0 0 1 0 0 1 0 0 1 0 0 1 0 0 1 0 0 1 0 0 1 0 0 1 0 0 1 0 0 1 0 0 1 0 0 1 0 0 1 0 0 1 0 0 1 0 0 1 0 0 1 0 0 1 0 0 1 0 0 1 0 0 1 0 0 1 0 0 1 0 0 1 0 0 1 0 0 1 0 0 1 0 0 1 0 0 1 0 0 1 0 0 1 0 0 1 0 0 1 0 0 1 0 0 1 0 0 1 0 0 1 0 0 1 0 0 1 0 0 1 0 0 1 0 0 1 0 0 1 0 0 1 0 0 1 0 0 1 0 0 1 0 0 1 0 0 1 0 0 1 0 0 1 0 0 1 0 0 1 0 0 1 0 0 1 0 0 1 0 0 1 0 0 1 0 0 1 0 0 1 0 0 1 0 0 1 0 0 1 0 0 1 0 0 1 0 0 1 0 0 1 0 0 1 0 0 1 0 0 1 0 0 1 0 0 1 0 0 1</float_array>
                    <technique_common>
                        <accessor count="468" source="#shape0-lib-normals-array" stride="3">
                            <param name="X" type="float"/>
                            <param name="Y" type="float"/>
                            <param name="Z" type="float"/>
                        </accessor>
                    </technique_common>
                </source>
                <source id="shape0-lib-vcolor" name="vcolor">
                    <float_array id="shape0-lib-vcolor-array" count="2100">0 0 1 1 0 0 1 1 0 0 1 1 0 0 1 1 0 0 1 1 0 0 1 1 0 0 1 1 0 0 1 1 0 0 1 1 0 0 1 1 0 0 1 1 0 0 1 1 0 0 1 1 0 0 1 1 0 0 1 1 0 0 1 1 0 0 1 1 0 0 1 1 0 0 1 1 0 0 1 1 0 0 1 1 0 0 1 1 0 0 1 1 0 0 1 1 0 0 1 1 0 0 1 1 0 0 1 1 0 0 1 1 0 0 1 1 0 0 1 1 0 0 1 1 0 0 1 1 0 0 1 1 0 0 1 1 0 0 1 1 0 0 1 1 0 0 1 1 0 0 1 1 0 0 1 1 0 0 1 1 0 0 1 1 0 0 1 1 0 0 1 1 0 0 1 1 0 0 1 1 0 0 1 1 0 0 1 1 0 0 1 1 0 0 1 1 0 0 1 1 0 0 1 1 0 0 1 1 0 0 1 1 0 0 1 1 0 0 1 1 0 0 1 1 0 0 1 1 0 0 1 1 0 0 1 1 0 0 1 1 0 0 1 1 0 0 1 1 0 0 1 1 0 0 1 1 0 0 1 1 0 0 1 1 0 0 1 1 0 0 1 1 0 0 1 1 0 0 1 1 0 0 1 1 0 0 1 1 0 0 1 1 0 0 1 1 0 0 1 1 0 0 1 1 0 0 1 1 0 0 1 1 0 0 1 1 0 0 1 1 0 0 1 1 0 0 1 1 0 0 1 1 0 0 1 1 0 0 1 1 0 0 1 1 0 0 1 1 0 0 1 1 0 0 1 1 0 0 1 1 0 0 1 1 0 0 1 1 0 0 1 1 0 0 1 1 0 0 1 1 0 0 1 1 0 0 1 1 0 0 1 1 0 0 1 1 0 0 1 1 0 0 1 1 0 0 1 1 0 0 1 1 0 0 1 1 0 0 1 1 0 0 1 1 0 0 1 1 0 0 1 1 0 0 1 1 0 0 1 1 0 0 1 1 0 0 1 1 0 0 1 1 0 0 1 1 0 0 1 1 0 0 1 1 0 0 1 1 0 0 1 1 0 0 1 1 0 0 1 1 0 0 1 1 0 0 1 1 0 0 1 1 0 0 1 1 0 0 1 1 0 0 1 1 0 0 1 1 0 0 1 1 0 0 1 1 0 0 1 1 0 0 1 1 0 0 1 1 0 0 1 1 0 0 1 1 0 0 1 1 0 0 1 1 0 0 1 1 0 0 1 1 0 0 1 1 0 0 1 1 0 0 1 1 0 0 1 1 0 0 1 1 0 0 1 1 0 0 1 1 0 0 1 1 0 0 1 1 0 0 1 1 0 0 1 1 0 0 1 1 0 0 1 1 0 0 1 1 0 0 1 1 0 0 1 1 0 0 1 1 0 0 1 1 0 0 1 1 0 0 1 1 0 0 1 1 0 0 1 1 0 0 1 1 0 0 1 1 0 0 1 1 0 0 1 1 0 0 1 1 0 0 1 1 0 0 1 1 0 0 1 1 0 0 1 1 0 0 1 1 0 0 1 1 0 0 1 1 0 0 1 1 0 0 1 1 0 0 1 1 0 0 1 1 0 0 1 1 0 0 1 1 0 0 1 1 0 0 1 1 0 0 1 1 0 0 1 1 0 0 1 1 0 0 1 1 0 0 1 1 0 0 1 1 0 0 1 1 0 0 1 1 0 0 1 1 0 0 1 1 0 0 1 1 0 0 1 1 0 0 1 1 0 0 1 1 0 0 1 1 0 0 1 1 0 0 1 1 0 0 1 1 0 0 1 1 0 0 1 1 0 0 1 1 0 0 1 1 0 0 1 1 0 0 1 1 0 0 1 1 0 0 1 1 0 0 1 1 0 0 1 1 0 0 1 1 0 0 1 1 0 0 1 1 0 0 1 1 0 0 1 1 0 0 1 1 0 0 1 1 0 0 1 1 0 0 1 1 0 0 1 1 0 0 1 1 0 0 1 1 0 0 1 1 0 0 1 1 0 0 1 1 0 0 1 1 0 0 1 1 0 0 1 1 0 0 1 1 0 0 1 1 0 0 1 1 0 0 1 1 0 0 1 1 0 0 1 1 0 0 1 1 0 0 1 1 0 0 1 1 0 0 1 1 0 0 1 1 0 0 1 1 0 0 1 1 0 0 1 1 0 0 1 1 0 0 1 1 0 0 1 1 0 0 1 1 0 0 1 1 0 0 1 1 0 0 1 1 0 0 1 1 0 0 1 1 0 0 1 1 0 0 1 1 0 0 1 1 0 0 1 1 0 0 1 1 0 0 1 1 0 0 1 1 0 0 1 1 0 0 1 1 0 0 1 1 0 0 1 1 0 0 1 1 0 0 1 1 0 0 1 1 0 0 1 1 0 0 1 1 0 0 1 1 0 0 1 1 0 0 1 1 0 0 1 1 0 0 1 1 0 0 1 1 0 0 1 1 0 0 1 1 0 0 1 1 0 0 1 1 0 0 1 1 0 0 1 1 0 0 1 1 0 0 1 1 0 0 1 1 0 0 1 1 0 0 1 1 0 0 1 1 0 0 1 1 0 0 1 1 0 0 1 1 0 0 1 1 0 0 1 1 0 0 1 1 0 0 1 1 0 0 1 1 0 0 1 1 0 0 1 1 0 0 1 1 0 0 1 1 0 0 1 1 0 0 1 1 0 0 1 1 0 0 1 1 0 0 1 1 0 0 1 1 0 0 1 1 0 0 1 1 0 0 1 1 0 0 1 1 0 0 1 1 0 0 1 1 0 0 1 1 0 0 1 1 0 0 1 1 0 0 1 1 0 0 1 1 0 0 1 1 0 0 1 1 0 0 1 1 0 0 1 1 0 0 1 1 0 0 1 1 0 0 1 1 0 0 1 1 0 0 1 1 0 0 1 1 0 0 1 1 0 0 1 1 0 0 1 1 0 0 1 1 0 0 1 1 0 0 1 1 0 0 1 1 0 0 1 1 0 0 1 1 0 0 1 1 0 0 1 1 0 0 1 1 0 0 1 1 0 0 1 1 0 0 1 1 0 0 1 1 0 0 1 1 0 0 1 1 0 0 1 1 0 0 1 1 0 0 1 1 0 0 1 1 0 0 1 1 0 0 1 1 0 0 1 1 0 0 1 1 0 0 1 1 0 0 1 1 0 0 1 1 0 0 1 1 0 0 1 1 0 0 1 1 0 0 1 1 0 0 1 1 0 0 1 1 0 0 1 1 0 0 1 1 0 0 1 1 0 0 1 1 0 0 1 1 0 0 1 1 0 0 1 1 0 0 1 1 0 0 1 1 0 0 1 1 0 0 1 1 0 0 1 1 0 0 1 1 0 0 1 1 0 0 1 1 0 0 1 1 0 0 1 1 0 0 1 1 0 0 1 1 0 0 1 1 0 0 1 1 0 0 1 1 0 0 1 1 0 0 1 1 0 0 1 1 0 0 1 1 0 0 1 1 0 0 1 1 0 0 1 1 0 0 1 1 0 0 1 1 0 0 1 1 0 0 1 1 0 0 1 1 0 0 1 1 0 0 1 1 0 0 1 1 0 0 1 1 0 0 1 1 0 0 1 1 0 0 1 1 0 0 1 1 0 0 1 1 0 0 1 1 0 0 1 1 0 0 1 1 0 0 1 1 0 0 1 1 0 0 1 1 0 0 1 1 0 0 1 1 0 0 1 1 0 0 1 1 0 0 1 1 0 0 1 1 0 0 1 1 0 0 1 1 0 0 1 1 0 0 1 1 0 0 1 1 0 0 1 1 0 0 1 1 0 0 1 1 0 0 1 1 0 0 1 1 0 0 1 1 0 0 1 1 0 0 1 1 0 0 1 1 0 0 1 1 0 0 1 1 0 0 1 1 0 0 1 1 0 0 1 1 0 0 1 1 0 0 1 1 0 0 1 1 0 0 1 1 0 0 1 1 0 0 1 1 0 0 1 1 0 0 1 1 0 0 1 1 0 0 1 1 0 0 1 1 0 0 1 1 0 0 1 1 0 0 1 1 0 0 1 1 0 0 1 1 0 0 1 1 0 0 1 1 0 0 1 1 0 0 1 1 0 0 1 1 0 0 1 1 0 0 1 1 0 0 1 1 0 0 1 1 0 0 1 1 0 0 1 1 0 0 1 1 0 0 1 1 0 0 1 1 0 0 1 1 0 0 1 1 0 0 1 1 0 0 1 1 0 0 1 1 0 0 1 1 0 0 1 1 0 0 1 1 0 0 1 1 0 0 1 1 0 0 1 1 0 0 1 1 0 0 1 1 0 0 1 1 0 0 1 1 0 0 1 1 0 0 1 1 0 0 1 1 0 0 1 1 0 0 1 1 0 0 1 1 0 0 1 1 0 0 1 1 0 0 1 1 0 0 1 1 0 0 1 1 0 0 1 1 0 0 1 1 0 0 1 1 0 0 1 1 0 0 1 1 0 0 1 1 0 0 1 1 0 0 1 1 0 0 1 1 0 0 1 1 0 0 1 1 0 0 1 1 0 0 1 1 0 0 1 1 0 0 1 1 0 0 1 1 0 0 1 1 0 0 1 1 0 0 1 1 0 0 1 1 0 0 1 1 0 0 1 1 0 0 1 1 0 0 1 1 0 0 1 1 0 0 1 1 0 0 1 1 0 0 1 1 0 0 1 1 0 0 1 1 0 0 1 1 0 0 1 1 0 0 1 1 0 0 1 1 0 0 1 1 0 0 1 1 0 0 1 1 0 0 1 1</float_array>
                    <technique_common>
                        <accessor count="525" source="#shape0-lib-vcolor-array" stride="4">
                            <param name="R" type="float"/>
                            <param name="G" type="float"/>
                            <param name="B" type="float"/>
                            <param name="A" type="float"/>
                        </accessor>
                    </technique_common>
                </source>
                <source id="shape0-lib-map" name="map">
                    <float_array id="shape0-lib-map-array" count="2808">1 0.5 1 1 0.96875 1 1 0.5 0.96875 1 0.96875 0.5 0.96875 0.5 0.96875 1 0.9375 1 0.96875 0.5 0.9375 1 0.9375 0.5 0.9375 0.5 0.9375 1 0.90625 1 0.9375 0.5 0.90625 1 0.90625 0.5 0.90625 0.5 0.90625 1 0.875 1 0.90625 0.5 0.875 1 0.875 0.5 0.875 0.5 0.875 1 0.84375 1 0.875 0.5 0.84375 1 0.84375 0.5 0.84375 0.5 0.84375 1 0.8125 1 0.84375 0.5 0.8125 1 0.8125 0.5 0.8125 0.5 0.8125 1 0.78125 1 0.8125 0.5 0.78125 1 0.78125 0.5 0.78125 0.5 0.78125 1 0.75 1 0.78125 0.5 0.75 1 0.75 0.5 0.25 0.5 0.25 1 0.21875 1 0.25 0.5 0.21875 1 0.21875 0.5 0.21875 0.5 0.21875 1 0.1875 1 0.21875 0.5 0.1875 1 0.1875 0.5 0.1875 0.5 0.1875 1 0.15625 1 0.1875 0.5 0.15625 1 0.15625 0.5 0.15625 0.5 0.15625 1 0.125 1 0.15625 0.5 0.125 1 0.125 0.5 0.125 0.5 0.125 1 0.09375 1 0.125 0.5 0.09375 1 0.09375 0.5 0.09375 0.5 0.09375 1 0.0625 1 0.09375 0.5 0.0625 1 0.0625 0.5 0.0625 0.5 0.0625 1 0.03125 1 0.0625 0.5 0.03125 1 0.03125 0.5 0.03125 0.5 0.03125 1 0 1 0.03125 0.5 0 1 0 0.5 0.788659 0.444353 0.75 0.448161 0.75 0.49 0.788659 0.444353 0.75 0.49 0.796822 0.485388 0.25 0.448161 0.288659 0.444354 0.296822 0.485388 0.25 0.448161 0.296822 0.485388 0.25 0.49 0.825833 0.433077 0.788659 0.444353 0.796822 0.485388 0.825833 0.433077 0.796822 0.485388 0.841844 0.471731 0.288659 0.444354 0.325833 0.433077 0.341844 0.471731 0.288659 0.444354 0.341844 0.471731 0.296822 0.485388 0.860092 0.414765 0.825833 0.433077 0.841844 0.471731 0.860092 0.414765 0.841844 0.471731 0.883337 0.449553 0.325833 0.433077 0.360092 0.414765 0.383337 0.449553 0.325833 0.433077 0.383337 0.449553 0.341844 0.471731 0.890121 0.390121 0.860092 0.414765 0.883337 0.449553 0.890121 0.390121 0.883337 0.449553 0.919706 0.419706 0.360092 0.414765 0.390121 0.390121 0.419706 0.419706 0.360092 0.414765 0.419706 0.419706 0.383337 0.449553 0.914765 0.360092 0.890121 0.390121 0.919706 0.419706 0.914765 0.360092 0.919706 0.419706 0.949553 0.383337 0.390121 0.390121 0.414765 0.360092 0.449553 0.383337 0.390121 0.390121 0.449553 0.383337 0.419706 0.419706 0.933077 0.325833 0.914765 0.360092 0.949553 0.383337 0.933077 0.325833 0.949553 0.383337 0.971731 0.341844 0.414765 0.360092 0.433077 0.325833 0.471731 0.341844 0.414765 0.360092 0.471731 0.341844 0.449553 0.383337 0.944354 0.288659 0.933077 0.325833 0.971731 0.341844 0.944354 0.288659 0.971731 0.341844 0.985388 0.296822 0.433077 0.325833 0.444353 0.288659 0.485388 0.296822 0.433077 0.325833 0.485388 0.296822 0.471731 0.341844 0.948161 0.25 0.944354 0.288659 0.985388 0.296822 0.948161 0.25 0.985388 0.296822 0.99 0.25 0.444353 0.288659 0.448161 0.25 0.49 0.25 0.444353 0.288659 0.49 0.25 0.485388 0.296822 0.49 0.25 0.448161 0.25 0.948161 0.25 0.49 0.25 0.948161 0.25 0.99 0.25 0.555647 0.288659 0.551839 0.25 0.51 0.25 0.555647 0.288659 0.51 0.25 0.514612 0.296822 0.0518389 0.25 0.0556465 0.288659 0.0146115 0.296822 0.0518389 0.25 0.0146115 0.296822 0.01 0.25 0.566923 0.325833 0.555647 0.288659 0.514612 0.296822 0.566923 0.325833 0.514612 0.296822 0.528269 0.341844 0.0556465 0.288659 0.066923 0.325833 0.0282689 0.341844 0.0556465 0.288659 0.0282689 0.341844 0.0146115 0.296822 0.585235 0.360092 0.566923 0.325833 0.528269 0.341844 0.585235 0.360092 0.528269 0.341844 0.550447 0.383337 0.066923 0.325833 0.0852351 0.360092 0.0504473 0.383337 0.066923 0.325833 0.0504473 0.383337 0.0282689 0.341844 0.609879 0.390121 0.585235 0.360092 0.550447 0.383337 0.609879 0.390121 0.550447 0.383337 0.580294 0.419706 0.0852351 0.360092 0.109879 0.390121 0.0802944 0.419706 0.0852351 0.360092 0.0802944 0.419706 0.0504473 0.383337 0.639908 0.414765 0.609879 0.390121 0.580294 0.419706 0.639908 0.414765 0.580294 0.419706 0.616663 0.449553 0.109879 0.390121 0.139908 0.414765 0.116663 0.449553 0.109879 0.390121 0.116663 0.449553 0.0802944 0.419706 0.674167 0.433077 0.639908 0.414765 0.616663 0.449553 0.674167 0.433077 0.616663 0.449553 0.658156 0.471731 0.139908 0.414765 0.174167 0.433077 0.158156 0.471731 0.139908 0.414765 0.158156 0.471731 0.116663 0.449553 0.711341 0.444354 0.674167 0.433077 0.658156 0.471731 0.711341 0.444354 0.658156 0.471731 0.703178 0.485388 0.174167 0.433077 0.211341 0.444353 0.203178 0.485388 0.174167 0.433077 0.203178 0.485388 0.158156 0.471731 0.75 0.448161 0.711341 0.444354 0.703178 0.485388 0.75 0.448161 0.703178 0.485388 0.75 0.49 0.211341 0.444353 0.25 0.448161 0.25 0.49 0.211341 0.444353 0.25 0.49 0.203178 0.485388 0.01 0.25 0.51 0.25 0.551839 0.25 0.01 0.25 0.551839 0.25 0.0518389 0.25 0.944354 0.288659 0.948161 0.25 0.448161 0.25 0.944354 0.288659 0.448161 0.25 0.444353 0.288659 0.933077 0.325833 0.944354 0.288659 0.444353 0.288659 0.933077 0.325833 0.444353 0.288659 0.433077 0.325833 0.914765 0.360092 0.933077 0.325833 0.433077 0.325833 0.914765 0.360092 0.433077 0.325833 0.414765 0.360092 0.890121 0.390121 0.914765 0.360092 0.414765 0.360092 0.890121 0.390121 0.414765 0.360092 0.390121 0.390121 0.860092 0.414765 0.890121 0.390121 0.390121 0.390121 0.860092 0.414765 0.390121 0.390121 0.360092 0.414765 0.825833 0.433077 0.860092 0.414765 0.360092 0.414765 0.825833 0.433077 0.360092 0.414765 0.325833 0.433077 0.788659 0.444353 0.825833 0.433077 0.325833 0.433077 0.788659 0.444353 0.325833 0.433077 0.288659 0.444354 0.75 0.448161 0.788659 0.444353 0.288659 0.444354 0.75 0.448161 0.288659 0.444354 0.25 0.448161 0.711341 0.444354 0.75 0.448161 0.25 0.448161 0.711341 0.444354 0.25 0.448161 0.211341 0.444353 0.674167 0.433077 0.711341 0.444354 0.211341 0.444353 0.674167 0.433077 0.211341 0.444353 0.174167 0.433077 0.639908 0.414765 0.674167 0.433077 0.174167 0.433077 0.639908 0.414765 0.174167 0.433077 0.139908 0.414765 0.609879 0.390121 0.639908 0.414765 0.139908 0.414765 0.609879 0.390121 0.139908 0.414765 0.109879 0.390121 0.585235 0.360092 0.609879 0.390121 0.109879 0.390121 0.585235 0.360092 0.109879 0.390121 0.0852351 0.360092 0.566923 0.325833 0.585235 0.360092 0.0852351 0.360092 0.566923 0.325833 0.0852351 0.360092 0.066923 0.325833 0.0518389 0.25 0.551839 0.25 0.555647 0.288659 0.555647 0.288659 0.566923 0.325833 0.066923 0.325833 0.0556465 0.288659 0.0518389 0.25 0.555647 0.288659 0.066923 0.325833 0.0556465 0.288659 0.555647 0.288659 1 0.275 1 0.275 1 0.274516 1 0.275 1 0.274516 1 0.272783 1 0.25 1 0.25 1 0.275 1 0.260794 1 0.25 1 0.275 1 0.275 1 0.272783 1 0.270817 1 0.275 1 0.270817 1 0.268627 1 0.263606 1 0.260794 1 0.275 1 0.275 1 0.268627 1 0.26622 1 0.26622 1 0.263606 1 0.275 1 0.252107 1 0.252107 1 0.260173 1 0.260173 1 0.262862 1 0.265205 1 0.265205 1 0.267222 1 0.268935 1 0.268935 1 0.270366 1 0.271536 1 0.271536 1 0.272467 1 0.273181 1 0.273181 1 0.273698 1 0.274041 1 0.274041 1 0.274231 1 0.274289 1 0.274289 1 0.274195 1 0.273911 1 0.273911 1 0.273432 1 0.272757 1 0.272757 1 0.271883 1 0.270806 1 0.270806 1 0.269523 1 0.268031 1 0.268031 1 0.266327 1 0.264409 1 0.264409 1 0.262272 1 0.259915 1 0.259915 1 0.252107 1 0.260173 1 0.260173 1 0.265205 1 0.268935 1 0.268935 1 0.271536 1 0.273181 1 0.273181 1 0.274041 1 0.274289 1 0.274289 1 0.273911 1 0.272757 1 0.272757 1 0.270806 1 0.268031 1 0.268031 1 0.264409 1 0.259915 1 0.259915 1 0.260173 1 0.268935 1 0.268935 1 0.273181 1 0.274289 1 0.274289 1 0.272757 1 0.268031 1 0.268031 1 0.259915 1 0.268935 1 0.268935 1 0.274289 1 0.268031 0.725 0 0.725 0 0.724516 0 0.725 0 0.724516 0 0.722783 0 0.7 0 0.7 0 0.725 0 0.710794 0 0.7 0 0.725 0 0.725 0 0.722783 0 0.720817 0 0.725 0 0.720817 0 0.718627 0 0.713606 0 0.710794 0 0.725 0 0.725 0 0.718627 0 0.71622 0 0.71622 0 0.713606 0 0.725 0 0.702107 0 0.710173 0 0.712862 0 0.712862 0 0.715205 0 0.717222 0 0.717222 0 0.718935 0 0.720366 0 0.720366 0 0.721536 0 0.722467 0 0.722467 0 0.723181 0 0.723698 0 0.723698 0 0.724041 0 0.724231 0 0.724231 0 0.72429 0 0.724195 0 0.724195 0 0.723911 0 0.723432 0 0.723432 0 0.722757 0 0.721883 0 0.721883 0 0.720806 0 0.719523 0 0.719523 0 0.718031 0 0.716327 0 0.716327 0 0.714409 0 0.712272 0 0.712272 0 0.709915 0 0.702107 0 0.702107 0 0.702107 0 0.712862 0 0.712862 0 0.717222 0 0.720366 0 0.720366 0 0.722467 0 0.723698 0 0.723698 0 0.724231 0 0.724195 0 0.724195 0 0.723432 0 0.721883 0 0.721883 0 0.719523 0 0.716327 0 0.716327 0 0.712272 0 0.702107 0 0.702107 0 0.712862 0 0.720366 0 0.720366 0 0.723698 0 0.724195 0 0.724195 0 0.721883 0 0.716327 0 0.716327 0 0.702107 0 0.720366 0 0.720366 0 0.724195 0 0.716327 0 0.475 0.7 0.475 0.694753 0.485742 0.694753 0.475 0.7 0.485742 0.694753 0.488849 0.694565 0.5 0.689075 0.5 0.7 0.49875 0.7 0.49875 0.7 0.475 0.7 0.488849 0.694565 0.49875 0.7 0.488849 0.694565 0.491657 0.694025 0.498345 0.690649 0.5 0.689075 0.49875 0.7 0.4964 0.692031 0.498345 0.690649 0.49875 0.7 0.49875 0.7 0.491657 0.694025 0.494172 0.693168 0.494172 0.693168 0.4964 0.692031 0.49875 0.7 0.499289 0.67712 0.499195 0.678866 0.49891 0.680549 0.49891 0.680549 0.498432 0.682153 0.497757 0.68366 0.497757 0.68366 0.496883 0.685054 0.495806 0.686318 0.495806 0.686318 0.494523 0.687434 0.493031 0.688385 0.493031 0.688385 0.491327 0.689154 0.489409 0.689725 0.489409 0.689725 0.487272 0.69008 0.484915 0.690202 0.484915 0.690202 0.477107 0.690202 0.477107 0.664038 0.477107 0.664038 0.485173 0.664038 0.487862 0.664212 0.487862 0.664212 0.490205 0.664705 0.492222 0.665471 0.492222 0.665471 0.493935 0.666464 0.495366 0.667639 0.495366 0.667639 0.496536 0.66895 0.497467 0.670351 0.497467 0.670351 0.498181 0.671798 0.498698 0.673243 0.498698 0.673243 0.499041 0.674643 0.499231 0.67595 0.499231 0.67595 0.499289 0.67712 0.49891 0.680549 0.49891 0.680549 0.497757 0.68366 0.495806 0.686318 0.495806 0.686318 0.493031 0.688385 0.489409 0.689725 0.489409 0.689725 0.484915 0.690202 0.477107 0.664038 0.477107 0.664038 0.487862 0.664212 0.492222 0.665471 0.492222 0.665471 0.495366 0.667639 0.497467 0.670351 0.497467 0.670351 0.498698 0.673243 0.499231 0.67595 0.499231 0.67595 0.49891 0.680549 0.495806 0.686318 0.495806 0.686318 0.489409 0.689725 0.477107 0.664038 0.477107 0.664038 0.492222 0.665471 0.497467 0.670351 0.497467 0.670351 0.499231 0.67595 0.495806 0.686318 0.495806 0.686318 0.477107 0.664038 0.497467 0.670351 0.4025 1 0.4475 1 0.4475 1 0.4025 1 0.4475 1 0.4025 1 0.3525 1 0.3975 1 0.3975 1 0.3525 1 0.3975 1 0.3525 1 0.4525 1 0.475 1 0.475 1 0.4525 1 0.475 1 0.4525 1 0.1025 1 0.1475 1 0.1475 1 0.1025 1 0.1475 1 0.1025 1 0.2025 1 0.2475 1 0.2475 1 0.2025 1 0.2475 1 0.2025 1 0.1525 1 0.1975 1 0.1975 1 0.1525 1 0.1975 1 0.1525 1 0.2525 1 0.2975 1 0.2975 1 0.2525 1 0.2975 1 0.2525 1 0.3025 1 0.3475 1 0.3475 1 0.3025 1 0.3475 1 0.3025 1 0.475 1 0.49875 1 0.49875 1 0.475 1 0.49875 1 0.475 1 0.75 0 0.75 0 0.743282 0 0.743282 0 0.725 0 0.725 0 0.743282 0 0.725 0 0.72641 0 0.725 0 0.75 0 0.743282 0 0.726006 0 0.725 0 0.725 0 0.727245 0 0.726006 0 0.725 0 0.743282 0 0.72641 0 0.727541 0 0.743282 0 0.727541 0 0.728412 0 0.727245 0 0.725 0 0.743282 0 0.728223 0 0.727245 0 0.743282 0 0.743282 0 0.728412 0 0.729027 0 0.743282 0 0.729027 0 0.729392 0 0.728933 0 0.728223 0 0.743282 0 0.729366 0 0.728933 0 0.743282 0 0.743282 0 0.729392 0 0.729512 0 0.743282 0 0.729512 0 0.729366 0 1 0.25 1 0.25 1 0.246158 1 0.25 1 0.246158 1 0.240021 1 0.247039 1 0.25 1 0.240021 1 0.23251 1 0.230007 1 0.227503 1 0.227503 1 0.225 1 0.225 1 0.225 1 0.25 1 0.25 1 0.247039 1 0.247039 1 0.240021 1 0.225 1 0.25 1 0.247039 1 0.23251 1 0.227503 1 0.225 1 0.240021 1 0.237517 1 0.235014 1 0.235014 1 0.23251 1 0.225 1 0.225 1 0.247039 1 0.240021 1 0.240021 1 0.235014 1 0.225 0.675 0 0.65 0 0.65 0 0.675 0 0.65 0 0.675 0 0.725 0 0.7 0 0.7 0 0.725 0 0.7 0 0.725 0 0.628058 0 0.625 0 0.628058 0 0.65 0 0.65 0 0.628058 0 0.628058 0 0.628058 0 0.65 0 0.7 0 0.675 0 0.675 0 0.7 0 0.675 0 0.7 0 0.8 0 0.796694 0 0.8 0 0.75 0 0.725 0 0.725 0 0.75 0 0.725 0 0.75 0 0.4525 1 0.475 1 0.475 1 0.4525 1 0.475 1 0.4525 1 0.2525 1 0.2975 1 0.2975 1 0.2525 1 0.2975 1 0.2525 1 0.3025 1 0.3475 1 0.3475 1 0.3025 1 0.3475 1 0.3025 1 0.1025 1 0.1475 1 0.1475 1 0.1025 1 0.1475 1 0.1025 1 0.4025 1 0.4475 1 0.4475 1 0.4025 1 0.4475 1 0.4025 1 0.2025 1 0.2475 1 0.2475 1 0.2025 1 0.2475 1 0.2025 1 0.3525 1 0.3975 1 0.3975 1 0.3525 1 0.3975 1 0.3525 1 0.1525 1 0.1975 1 0.1975 1 0.1525 1 0.1975 1 0.1525 1 0.475 1 0.49875 1 0.49875 1 0.475 1 0.49875 1 0.475 1 1 0.2 1 0.2 1 0.197564 1 0.2 1 0.197564 1 0.195128 1 0.18051 1 0.178074 1 0.2 1 0.182946 1 0.18051 1 0.2 1 0.2 1 0.195128 1 0.192691 1 0.192691 1 0.190255 1 0.187819 1 0.185383 1 0.182946 1 0.2 1 0.192691 1 0.187819 1 0.185383 1 0.192691 1 0.185383 1 0.2 1 0.253822 1 0.246158 1 0.25 1 0.202778 1 0.2 1 0.2 1 0.202778 1 0.2 1 0.202778 1 0.275 1 0.275 1 0.272505 1 0.275 1 0.272505 1 0.270009 1 0.273345 1 0.275 1 0.270009 1 0.273345 1 0.270009 1 0.267514 1 0.2714 1 0.273345 1 0.267514 1 0.2714 1 0.267514 1 0.265018 1 0.269172 1 0.2714 1 0.265018 1 0.262523 1 0.260028 1 0.253822 1 0.269172 1 0.265018 1 0.262523 1 0.266657 1 0.269172 1 0.262523 1 0.262523 1 0.253822 1 0.25 1 0.25 1 0.25 1 0.260742 1 0.263849 1 0.266657 1 0.262523 1 0.262523 1 0.25 1 0.260742 1 0.262523 1 0.260742 1 0.263849 1 0.3 1 0.34665 1 0.34354 1 0.30933 1 0.30622 1 0.30311 1 0.30311 1 0.3 1 0.3 1 0.3 1 0.34354 1 0.34043 1 0.30933 1 0.30311 1 0.3 1 0.3 1 0.34043 1 0.33732 1 0.3 1 0.33732 1 0.33421 1 0.31244 1 0.30933 1 0.3 1 0.31555 1 0.31244 1 0.3 1 0.3 1 0.33421 1 0.3311 1 0.3 1 0.3311 1 0.32799 1 0.31866 1 0.31555 1 0.3 1 0.32799 1 0.32488 1 0.32177 1 0.32177 1 0.31866 1 0.3 1 0.32799 1 0.32177 1 0.3 1 0.3 1 0.3 1 0.296875 1 0.3 1 0.296875 1 0.29375 1 0.275 1 0.275 1 0.3 1 0.276006 1 0.275 1 0.3 1 0.3 1 0.29375 1 0.290625 1 0.3 1 0.290625 1 0.2875 1 0.277244 1 0.276006 1 0.3 1 0.278223 1 0.277244 1 0.3 1 0.3 1 0.2875 1 0.284375 1 0.3 1 0.284375 1 0.28125 1 0.278933 1 0.278223 1 0.3 1 0.279366 1 0.278933 1 0.3 1 0.3 1 0.28125 1 0.278125 1 0.278125 1 0.275 1 0.275 1 0.278125 1 0.275 1 0.27641 1 0.279512 1 0.279366 1 0.3 1 0.279391 1 0.279512 1 0.3 1 0.3 1 0.278125 1 0.27641 1 0.3 1 0.27641 1 0.277541 1 0.279027 1 0.279391 1 0.3 1 0.3 1 0.277541 1 0.278412 1 0.278412 1 0.279027 1 0.3 0.796694 0 0.756698 0 0.75 0 0.796694 0 0.75 0 0.75 0 0.7 0 0.7 0 0.675 0 0.675 0 0.675 0 0.7 0 0.7 0 0.7 0 0.697039 0 0.697039 0 0.7 0 0.675 0 0.675 0 0.7 0 0.697039 0 0.675 0 0.697039 0 0.697039 0 0.65 0 0.628058 0 0.65 0 0.675 0 0.65 0 0.65 0 0.675 0 0.65 0 0.675 0 0.625 0 0.625 0 0.628058 0 0.756698 0 0.743282 0 0.75 0 0.8 0 0.796694 0 0.75 0 0.8 0 0.75 0 0.75 0 0.725 0 0.7 0 0.7 0 0.725 0 0.7 0 0.710742 0 0.723345 0 0.725 0 0.725 0 0.7214 0 0.723345 0 0.725 0 0.725 0 0.710742 0 0.713848 0 0.725 0 0.713848 0 0.716657 0 0.719172 0 0.7214 0 0.725 0 0.725 0 0.716657 0 0.719172 0 0.475 0.659487 0.475 0.653216 0.5 0.653175 0.5 0.653175 0.5 0.665472 0.499516 0.66491 0.5 0.653175 0.499516 0.66491 0.497783 0.663371 0.485794 0.659487 0.475 0.659487 0.5 0.653175 0.488606 0.659662 0.485794 0.659487 0.5 0.653175 0.5 0.653175 0.497783 0.663371 0.495817 0.662048 0.5 0.653175 0.495817 0.662048 0.493627 0.66097 0.49122 0.660165 0.488606 0.659662 0.5 0.653175 0.5 0.653175 0.493627 0.66097 0.49122 0.660165 0.55 0.653094 0.564556 0.653058 0.564513 0.653123 0.564513 0.653123 0.56244 0.656245 0.560367 0.659368 0.560367 0.659368 0.558293 0.662491 0.55622 0.665614 0.55622 0.665614 0.554147 0.668736 0.552073 0.671859 0.552073 0.671859 0.55 0.674982 0.55 0.653094 0.55 0.653094 0.564513 0.653123 0.560367 0.659368 0.55622 0.665614 0.552073 0.671859 0.55 0.653094 0.55 0.653094 0.560367 0.659368 0.55622 0.665614 0.45 0.7 0.45 0.653257 0.475 0.653216 0.475 0.653216 0.475 0.659487 0.472039 0.659487 0.472039 0.694753 0.475 0.694753 0.475 0.7 0.45 0.7 0.475 0.653216 0.472039 0.659487 0.472039 0.694753 0.475 0.7 0.45 0.7 0.472039 0.659487 0.472039 0.694753 0.45 0.7 0.5 0.665472 0.5 0.653175 0.525 0.653135 0.525 0.653135 0.525 0.7 0.5 0.7 0.5 0.7 0.5 0.689075 0.50141 0.687294 0.5 0.7 0.50141 0.687294 0.502541 0.685391 0.501006 0.666638 0.5 0.665472 0.525 0.653135 0.502244 0.668527 0.501006 0.666638 0.525 0.653135 0.525 0.653135 0.5 0.7 0.502541 0.685391 0.525 0.653135 0.502541 0.685391 0.503412 0.683387 0.503223 0.670547 0.502244 0.668527 0.525 0.653135 0.503933 0.672672 0.503223 0.670547 0.525 0.653135 0.525 0.653135 0.503412 0.683387 0.504026 0.681317 0.525 0.653135 0.504026 0.681317 0.504391 0.679216 0.504366 0.674872 0.503933 0.672672 0.525 0.653135 0.525 0.653135 0.504391 0.679216 0.504512 0.67712 0.525 0.653135 0.504512 0.67712 0.504366 0.674872 0.406667 0.656667 0.403333 0.653333 0.45 0.653257 0.45 0.653257 0.45 0.7 0.446667 0.696667 0.446667 0.696667 0.443333 0.693333 0.44 0.69 0.44 0.69 0.436667 0.686667 0.433333 0.683333 0.433333 0.683333 0.43 0.68 0.426667 0.676667 0.41 0.66 0.406667 0.656667 0.45 0.653257 0.45 0.653257 0.446667 0.696667 0.44 0.69 0.45 0.653257 0.44 0.69 0.433333 0.683333 0.413333 0.663333 0.41 0.66 0.45 0.653257 0.416667 0.666667 0.413333 0.663333 0.45 0.653257 0.45 0.653257 0.433333 0.683333 0.426667 0.676667 0.426667 0.676667 0.423333 0.673333 0.42 0.67 0.42 0.67 0.416667 0.666667 0.45 0.653257 0.45 0.653257 0.426667 0.676667 0.42 0.67 0.525 0.653135 0.55 0.653094 0.55 0.674982 0.525 0.653135 0.55 0.674982 0.525 0.7 1 0.225 1 0.222222 1 0.222222 1 0.225 1 0.222222 1 0.225 1 0.222222 1 0.219444 1 0.219444 1 0.222222 1 0.219444 1 0.222222 1 0.219444 1 0.216667 1 0.216667 1 0.219444 1 0.216667 1 0.219444 1 0.216667 1 0.213889 1 0.213889 1 0.216667 1 0.213889 1 0.216667 1 0.213889 1 0.211111 1 0.211111 1 0.213889 1 0.211111 1 0.213889 1 0.211111 1 0.208333 1 0.208333 1 0.211111 1 0.208333 1 0.211111 1 0.208333 1 0.205556 1 0.205556 1 0.208333 1 0.205556 1 0.208333 1 0.205556 1 0.202778 1 0.202778 1 0.205556 1 0.202778 1 0.205556</float_array>
                    <technique_common>
                        <accessor count="1404" source="#shape0-lib-map-array" stride="2">
                            <param name="U" type="float"/>
                            <param name="V" type="float"/>
                        </accessor>
                    </technique_common>
                </source>
                <vertices id="shape0-lib-vertices">
                    <input semantic="POSITION" source="#shape0-lib-positions"/>
                </vertices>
                <triangles count="468" material="material0">
                    <input offset="0" semantic="VERTEX" source="#shape0-lib-vertices"/>
                    <input offset="1" semantic="COLOR" source="#shape0-lib-vcolor"/>
                    <input offset="2" semantic="NORMAL" source="#shape0-lib-normals"/>
                    <input offset="3" semantic="TEXCOORD" source="#shape0-lib-map"/>
                    <p>69 69 0 0 78 78 0 1 75 75 0 2 69 69 1 3 75 75 1 4 72 72 1 5 73 73 2 6 76 76 2 7 84 84 2 8 73 73 3 9 84 84 3 10 81 81 3 11 82 82 4 12 85 85 4 13 90 90 4 14 82 82 5 15 90 90 5 16 87 87 5 17 88 88 6 18 91 91 6 19 96 96 6 20 88 88 7 21 96 96 7 22 93 93 7 23 94 94 8 24 97 97 8 25 102 102 8 26 94 94 9 27 102 102 9 28 99 99 9 29 100 100 10 30 103 103 10 31 108 108 10 32 100 100 11 33 108 108 11 34 105 105 11 35 106 106 12 36 109 109 12 37 114 114 12 38 106 106 13 39 114 114 13 40 111 111 13 41 112 112 14 42 115 115 14 43 121 121 14 44 112 112 15 45 121 121 15 46 118 118 15 47 124 124 16 48 127 127 16 49 133 133 16 50 124 124 17 51 133 133 17 52 130 130 17 53 129 129 18 54 132 132 18 55 139 139 18 56 129 129 19 57 139 139 19 58 136 136 19 59 135 135 20 60 138 138 20 61 145 145 20 62 135 135 21 63 145 145 21 64 142 142 21 65 141 141 22 66 144 144 22 67 151 151 22 68 141 141 23 69 151 151 23 70 148 148 23 71 147 147 24 72 150 150 24 73 157 157 24 74 147 147 25 75 157 157 25 76 154 154 25 77 153 153 26 78 156 156 26 79 163 163 26 80 153 153 27 81 163 163 27 82 160 160 27 83 159 159 28 84 162 162 28 85 169 169 28 86 159 159 29 87 169 169 29 88 166 166 29 89 165 165 30 90 168 168 30 91 79 79 30 92 165 165 31 93 79 79 31 94 70 70 31 95 5 5 32 96 1 1 32 97 68 68 32 98 5 5 33 99 68 68 33 100 71 71 33 101 3 3 34 102 7 7 34 103 74 74 34 104 3 3 35 105 74 74 35 106 77 77 35 107 9 9 36 108 5 5 36 109 71 71 36 110 9 9 37 111 71 71 37 112 80 80 37 113 7 7 38 114 11 11 38 115 83 83 38 116 7 7 39 117 83 83 39 118 74 74 39 119 13 13 40 120 9 9 40 121 80 80 40 122 13 13 41 123 80 80 41 124 86 86 41 125 11 11 42 126 15 15 42 127 89 89 42 128 11 11 43 129 89 89 43 130 83 83 43 131 17 17 44 132 13 13 44 133 86 86 44 134 17 17 45 135 86 86 45 136 92 92 45 137 15 15 46 138 19 19 46 139 95 95 46 140 15 15 47 141 95 95 47 142 89 89 47 143 21 21 48 144 17 17 48 145 92 92 48 146 21 21 49 147 92 92 49 148 98 98 49 149 19 19 50 150 23 23 50 151 101 101 50 152 19 19 51 153 101 101 51 154 95 95 51 155 25 25 52 156 21 21 52 157 98 98 52 158 25 25 53 159 98 98 53 160 104 104 53 161 23 23 54 162 27 27 54 163 107 107 54 164 23 23 55 165 107 107 55 166 101 101 55 167 29 29 56 168 25 25 56 169 104 104 56 170 29 29 57 171 104 104 57 172 110 110 57 173 27 27 58 174 31 31 58 175 113 113 58 176 27 27 59 177 113 113 59 178 107 107 59 179 33 33 60 180 29 29 60 181 110 110 60 182 33 33 61 183 110 110 61 184 117 117 61 185 31 31 62 186 35 35 62 187 120 120 62 188 31 31 63 189 120 120 63 190 113 113 63 191 119 119 64 192 34 34 64 193 32 32 64 194 119 119 65 195 32 32 65 196 116 116 65 197 41 41 66 198 37 37 66 199 123 123 66 200 41 41 67 201 123 123 67 202 128 128 67 203 39 39 68 204 43 43 68 205 131 131 68 206 39 39 69 207 131 131 69 208 126 126 69 209 45 45 70 210 41 41 70 211 128 128 70 212 45 45 71 213 128 128 71 214 134 134 71 215 43 43 72 216 47 47 72 217 137 137 72 218 43 43 73 219 137 137 73 220 131 131 73 221 49 49 74 222 45 45 74 223 134 134 74 224 49 49 75 225 134 134 75 226 140 140 75 227 47 47 76 228 51 51 76 229 143 143 76 230 47 47 77 231 143 143 77 232 137 137 77 233 53 53 78 234 49 49 78 235 140 140 78 236 53 53 79 237 140 140 79 238 146 146 79 239 51 51 80 240 55 55 80 241 149 149 80 242 51 51 81 243 149 149 81 244 143 143 81 245 57 57 82 246 53 53 82 247 146 146 82 248 57 57 83 249 146 146 83 250 152 152 83 251 55 55 84 252 59 59 84 253 155 155 84 254 55 55 85 255 155 155 85 256 149 149 85 257 61 61 86 258 57 57 86 259 152 152 86 260 61 61 87 261 152 152 87 262 158 158 87 263 59 59 88 264 63 63 88 265 161 161 88 266 59 59 89 267 161 161 89 268 155 155 89 269 65 65 90 270 61 61 90 271 158 158 90 272 65 65 91 273 158 158 91 274 164 164 91 275 63 63 92 276 67 67 92 277 167 167 92 278 63 63 93 279 167 167 93 280 161 161 93 281 1 1 94 282 65 65 94 283 164 164 94 284 1 1 95 285 164 164 95 286 68 68 95 287 67 67 96 288 3 3 96 289 77 77 96 290 67 67 97 291 77 77 97 292 167 167 97 293 125 125 98 294 122 122 98 295 36 36 98 296 125 125 99 297 36 36 99 298 38 38 99 299 28 28 100 300 32 32 100 301 34 34 100 302 28 28 101 303 34 34 101 304 30 30 101 305 24 24 102 306 28 28 102 307 30 30 102 308 24 24 103 309 30 30 103 310 26 26 103 311 20 20 104 312 24 24 104 313 26 26 104 314 20 20 105 315 26 26 105 316 22 22 105 317 16 16 106 318 20 20 106 319 22 22 106 320 16 16 107 321 22 22 107 322 18 18 107 323 12 12 108 324 16 16 108 325 18 18 108 326 12 12 109 327 18 18 109 328 14 14 109 329 8 8 110 330 12 12 110 331 14 14 110 332 8 8 111 333 14 14 111 334 10 10 111 335 4 4 112 336 8 8 112 337 10 10 112 338 4 4 113 339 10 10 113 340 6 6 113 341 0 0 114 342 4 4 114 343 6 6 114 344 0 0 115 345 6 6 115 346 2 2 115 347 64 64 116 348 0 0 116 349 2 2 116 350 64 64 117 351 2 2 117 352 66 66 117 353 60 60 118 354 64 64 118 355 66 66 118 356 60 60 119 357 66 66 119 358 62 62 119 359 56 56 120 360 60 60 120 361 62 62 120 362 56 56 121 363 62 62 121 364 58 58 121 365 52 52 122 366 56 56 122 367 58 58 122 368 52 52 123 369 58 58 123 370 54 54 123 371 48 48 124 372 52 52 124 373 54 54 124 374 48 48 125 375 54 54 125 376 50 50 125 377 44 44 126 378 48 48 126 379 50 50 126 380 44 44 127 381 50 50 127 382 46 46 127 383 38 38 128 384 36 36 128 385 40 40 128 386 40 40 129 387 44 44 129 388 46 46 129 389 42 42 130 390 38 38 130 391 40 40 130 392 46 46 131 393 42 42 131 394 40 40 131 395 190 190 132 396 192 192 132 397 230 230 132 398 190 190 133 399 230 230 133 400 229 229 133 401 193 193 134 402 182 182 134 403 190 190 134 404 224 224 135 405 193 193 135 406 190 190 135 407 190 190 136 408 229 229 136 409 228 228 136 410 190 190 137 411 228 228 137 412 227 227 137 413 225 225 138 414 224 224 138 415 190 190 138 416 190 190 139 417 227 227 139 418 226 226 139 419 226 226 140 420 225 225 140 421 190 190 140 422 222 222 141 423 221 221 141 424 220 220 141 425 220 220 142 426 219 219 142 427 218 218 142 428 218 218 143 429 217 217 143 430 216 216 143 431 216 216 144 432 215 215 144 433 214 214 144 434 214 214 145 435 213 213 145 436 212 212 145 437 212 212 146 438 211 211 146 439 210 210 146 440 210 210 147 441 209 209 147 442 208 208 147 443 208 208 148 444 207 207 148 445 206 206 148 446 206 206 149 447 205 205 149 448 204 204 149 449 204 204 150 450 203 203 150 451 202 202 150 452 202 202 151 453 201 201 151 454 200 200 151 455 200 200 152 456 199 199 152 457 198 198 152 458 198 198 153 459 197 197 153 460 223 223 153 461 223 223 154 462 222 222 154 463 220 220 154 464 220 220 155 465 218 218 155 466 216 216 155 467 216 216 156 468 214 214 156 469 212 212 156 470 212 212 157 471 210 210 157 472 208 208 157 473 208 208 158 474 206 206 158 475 204 204 158 476 204 204 159 477 202 202 159 478 200 200 159 479 200 200 160 480 198 198 160 481 223 223 160 482 223 223 161 483 220 220 161 484 216 216 161 485 216 216 162 486 212 212 162 487 208 208 162 488 208 208 163 489 204 204 163 490 200 200 163 491 200 200 164 492 223 223 164 493 216 216 164 494 216 216 165 495 208 208 165 496 200 200 165 497 189 189 166 498 249 249 166 499 285 285 166 500 189 189 167 501 285 285 167 502 284 284 167 503 251 251 168 504 174 174 168 505 189 189 168 506 279 279 169 507 251 251 169 508 189 189 169 509 189 189 170 510 284 284 170 511 283 283 170 512 189 189 171 513 283 283 171 514 282 282 171 515 280 280 172 516 279 279 172 517 189 189 172 518 189 189 173 519 282 282 173 520 281 281 173 521 281 281 174 522 280 280 174 523 189 189 174 524 276 276 175 525 275 275 175 526 274 274 175 527 274 274 176 528 273 273 176 529 272 272 176 530 272 272 177 531 271 271 177 532 270 270 177 533 270 270 178 534 269 269 178 535 268 268 178 536 268 268 179 537 267 267 179 538 266 266 179 539 266 266 180 540 265 265 180 541 264 264 180 542 264 264 181 543 263 263 181 544 262 262 181 545 262 262 182 546 261 261 182 547 260 260 182 548 260 260 183 549 259 259 183 550 258 258 183 551 258 258 184 552 257 257 184 553 256 256 184 554 256 256 185 555 255 255 185 556 254 254 185 557 254 254 186 558 253 253 186 559 252 252 186 560 252 252 187 561 278 278 187 562 277 277 187 563 277 277 188 564 276 276 188 565 274 274 188 566 274 274 189 567 272 272 189 568 270 270 189 569 270 270 190 570 268 268 190 571 266 266 190 572 266 266 191 573 264 264 191 574 262 262 191 575 262 262 192 576 260 260 192 577 258 258 192 578 258 258 193 579 256 256 193 580 254 254 193 581 254 254 194 582 252 252 194 583 277 277 194 584 277 277 195 585 274 274 195 586 270 270 195 587 270 270 196 588 266 266 196 589 262 262 196 590 262 262 197 591 258 258 197 592 254 254 197 593 254 254 198 594 277 277 198 595 270 270 198 596 270 270 199 597 262 262 199 598 254 254 199 599 186 186 200 600 306 306 200 601 348 348 200 602 186 186 201 603 348 348 201 604 347 347 201 605 308 308 202 606 171 171 202 607 394 394 202 608 394 394 203 609 186 186 203 610 347 347 203 611 394 394 204 612 347 347 204 613 346 346 204 614 343 343 205 615 308 308 205 616 394 394 205 617 344 344 206 618 343 343 206 619 394 394 206 620 394 394 207 621 346 346 207 622 345 345 207 623 345 345 208 624 344 344 208 625 394 394 208 626 320 320 209 627 319 319 209 628 318 318 209 629 318 318 210 630 317 317 210 631 316 316 210 632 316 316 211 633 315 315 211 634 314 314 211 635 314 314 212 636 313 313 212 637 312 312 212 638 312 312 213 639 311 311 213 640 310 310 213 641 310 310 214 642 309 309 214 643 335 335 214 644 335 335 215 645 334 334 215 646 333 333 215 647 333 333 216 648 332 332 216 649 331 331 216 650 331 331 217 651 330 330 217 652 329 329 217 653 329 329 218 654 328 328 218 655 327 327 218 656 327 327 219 657 326 326 219 658 325 325 219 659 325 325 220 660 324 324 220 661 323 323 220 662 323 323 221 663 322 322 221 664 321 321 221 665 321 321 222 666 320 320 222 667 318 318 222 668 318 318 223 669 316 316 223 670 314 314 223 671 314 314 224 672 312 312 224 673 310 310 224 674 310 310 225 675 335 335 225 676 333 333 225 677 333 333 226 678 331 331 226 679 329 329 226 680 329 329 227 681 327 327 227 682 325 325 227 683 325 325 228 684 323 323 228 685 321 321 228 686 321 321 229 687 318 318 229 688 314 314 229 689 314 314 230 690 310 310 230 691 333 333 230 692 333 333 231 693 329 329 231 694 325 325 231 695 325 325 232 696 321 321 232 697 314 314 232 698 314 314 233 699 333 333 233 700 325 325 233 701 364 364 234 702 367 367 234 703 369 369 234 704 364 364 235 705 369 369 235 706 362 362 235 707 382 382 236 708 365 365 236 709 363 363 236 710 382 382 237 711 363 363 237 712 380 380 237 713 366 366 238 714 187 187 238 715 188 188 238 716 366 366 239 717 188 188 239 718 368 368 239 719 370 370 240 720 387 387 240 721 385 385 240 722 370 370 241 723 385 385 241 724 371 371 241 725 374 374 242 726 377 377 242 727 379 379 242 728 374 374 243 729 379 379 243 730 372 372 243 731 386 386 244 732 375 375 244 733 373 373 244 734 386 386 245 735 373 373 245 736 384 384 245 737 376 376 246 738 391 391 246 739 389 389 246 740 376 376 247 741 389 389 247 742 378 378 247 743 390 390 248 744 383 383 248 745 381 381 248 746 390 390 249 747 381 381 249 748 388 388 249 749 187 187 250 750 392 392 250 751 393 393 250 752 187 187 251 753 393 393 251 754 188 188 251 755 173 173 252 756 395 395 252 757 455 455 252 758 455 455 253 759 451 451 253 760 248 248 253 761 455 455 254 762 248 248 254 763 302 302 254 764 189 189 255 765 173 173 255 766 455 455 255 767 292 292 256 768 249 249 256 769 189 189 256 770 293 293 257 771 292 292 257 772 189 189 257 773 455 455 258 774 302 302 258 775 301 301 258 776 455 455 259 777 301 301 259 778 300 300 259 779 293 293 260 780 189 189 260 781 455 455 260 782 294 294 261 783 293 293 261 784 455 455 261 785 455 455 262 786 300 300 262 787 299 299 262 788 455 455 263 789 299 299 263 790 298 298 263 791 295 295 264 792 294 294 264 793 455 455 264 794 296 296 265 795 295 295 265 796 455 455 265 797 455 455 266 798 298 298 266 799 297 297 266 800 455 455 267 801 297 297 267 802 296 296 267 803 194 194 268 804 396 396 268 805 424 424 268 806 194 194 269 807 424 424 269 808 492 492 269 809 195 195 270 810 194 194 270 811 492 492 270 812 495 495 271 813 494 494 271 814 493 493 271 815 493 493 272 816 427 427 272 817 184 184 272 818 184 184 273 819 182 182 273 820 193 193 273 821 196 196 274 822 195 195 274 823 492 492 274 824 184 184 275 825 193 193 275 826 196 196 275 827 495 495 276 828 493 493 276 829 184 184 276 830 492 492 277 831 497 497 277 832 496 496 277 833 496 496 278 834 495 495 278 835 184 184 278 836 184 184 279 837 196 196 279 838 492 492 279 839 492 492 280 840 496 496 280 841 184 184 280 842 177 177 281 843 180 180 281 844 402 402 281 845 177 177 282 846 402 402 282 847 400 400 282 848 189 189 283 849 174 174 283 850 399 399 283 851 189 189 284 852 399 399 284 853 404 404 284 854 461 461 285 855 179 179 285 856 458 458 285 857 403 403 286 858 181 181 286 859 461 461 286 860 461 461 287 861 458 458 287 862 403 403 287 863 174 174 288 864 177 177 288 865 400 400 288 866 174 174 289 867 400 400 289 868 399 399 289 869 170 170 290 870 452 452 290 871 397 397 290 872 173 173 291 873 189 189 291 874 404 404 291 875 173 173 292 876 404 404 292 877 398 398 292 878 368 368 293 879 188 188 293 880 405 405 293 881 368 368 294 882 405 405 294 883 408 408 294 884 378 378 295 885 389 389 295 886 420 420 295 887 378 378 296 888 420 420 296 889 413 413 296 890 388 388 297 891 381 381 297 892 416 416 297 893 388 388 298 894 416 416 298 895 419 419 298 896 371 371 299 897 385 385 299 898 418 418 299 899 371 371 300 900 418 418 300 901 410 410 300 902 362 362 301 903 369 369 301 904 409 409 301 905 362 362 302 906 409 409 302 907 406 406 302 908 372 372 303 909 379 379 303 910 414 414 303 911 372 372 304 912 414 414 304 913 411 411 304 914 380 380 305 915 363 363 305 916 407 407 305 917 380 380 306 918 407 407 306 919 415 415 306 920 384 384 307 921 373 373 307 922 412 412 307 923 384 384 308 924 412 412 308 925 417 417 308 926 188 188 309 927 393 393 309 928 421 421 309 929 188 188 310 930 421 421 310 931 405 405 310 932 185 185 311 933 422 422 311 934 468 468 311 935 185 185 312 936 468 468 312 937 469 469 312 938 475 475 313 939 423 423 313 940 185 185 313 941 474 474 314 942 475 475 314 943 185 185 314 944 185 185 315 945 469 469 315 946 470 470 315 947 470 470 316 948 471 471 316 949 472 472 316 950 473 473 317 951 474 474 317 952 185 185 317 953 470 470 318 954 472 472 318 955 473 473 318 956 470 470 319 957 473 473 319 958 185 185 319 959 426 426 320 960 424 424 320 961 396 396 320 962 484 484 321 963 422 422 321 964 185 185 321 965 484 484 322 966 185 185 322 967 476 476 322 968 191 191 323 969 429 429 323 970 503 503 323 971 191 191 324 972 503 503 324 973 502 502 324 974 231 231 325 975 191 191 325 976 502 502 325 977 231 231 326 978 502 502 326 979 501 501 326 980 232 232 327 981 231 231 327 982 501 501 327 983 232 232 328 984 501 501 328 985 500 500 328 986 233 233 329 987 232 232 329 988 500 500 329 989 499 499 330 990 498 498 330 991 426 426 330 992 233 233 331 993 500 500 331 994 499 499 331 995 234 234 332 996 233 233 332 997 499 499 332 998 499 499 333 999 426 426 333 1000 396 396 333 1001 396 396 334 1002 194 194 334 1003 236 236 334 1004 235 235 335 1005 234 234 335 1006 499 499 335 1007 499 499 336 1008 396 396 336 1009 236 236 336 1010 499 499 337 1011 236 236 337 1012 235 235 337 1013 183 183 338 1014 428 428 338 1015 524 524 338 1016 513 513 339 1017 512 512 339 1018 511 511 339 1019 511 511 340 1020 425 425 340 1021 183 183 340 1022 183 183 341 1023 524 524 341 1024 523 523 341 1025 513 513 342 1026 511 511 342 1027 183 183 342 1028 183 183 343 1029 523 523 343 1030 522 522 343 1031 183 183 344 1032 522 522 344 1033 521 521 344 1034 514 514 345 1035 513 513 345 1036 183 183 345 1037 515 515 346 1038 514 514 346 1039 183 183 346 1040 183 183 347 1041 521 521 347 1042 520 520 347 1043 183 183 348 1044 520 520 348 1045 519 519 348 1046 516 516 349 1047 515 515 349 1048 183 183 349 1049 519 519 350 1050 518 518 350 1051 517 517 350 1052 517 517 351 1053 516 516 351 1054 183 183 351 1055 519 519 352 1056 517 517 352 1057 183 183 352 1058 183 183 353 1059 425 425 353 1060 510 510 353 1061 183 183 354 1062 510 510 354 1063 509 509 354 1064 192 192 355 1065 190 190 355 1066 183 183 355 1067 237 237 356 1068 192 192 356 1069 183 183 356 1070 183 183 357 1071 509 509 357 1072 508 508 357 1073 183 183 358 1074 508 508 358 1075 507 507 358 1076 238 238 359 1077 237 237 359 1078 183 183 359 1079 239 239 360 1080 238 238 360 1081 183 183 360 1082 183 183 361 1083 507 507 361 1084 506 506 361 1085 183 183 362 1086 506 506 362 1087 505 505 362 1088 240 240 363 1089 239 239 363 1090 183 183 363 1091 241 241 364 1092 240 240 364 1093 183 183 364 1094 183 183 365 1095 505 505 365 1096 504 504 365 1097 504 504 366 1098 429 429 366 1099 191 191 366 1100 504 504 367 1101 191 191 367 1102 247 247 367 1103 242 242 368 1104 241 241 368 1105 183 183 368 1106 243 243 369 1107 242 242 369 1108 183 183 369 1109 183 183 370 1110 504 504 370 1111 247 247 370 1112 183 183 371 1113 247 247 371 1114 246 246 371 1115 244 244 372 1116 243 243 372 1117 183 183 372 1118 183 183 373 1119 246 246 373 1120 245 245 373 1121 245 245 374 1122 244 244 374 1123 183 183 374 1124 452 452 375 1125 453 453 375 1126 395 395 375 1127 452 452 376 1128 395 395 376 1129 173 173 376 1130 250 250 377 1131 454 454 377 1132 456 456 377 1133 456 456 378 1134 177 177 378 1135 174 174 378 1136 174 174 379 1137 251 251 379 1138 304 304 379 1139 303 303 380 1140 250 250 380 1141 456 456 380 1142 456 456 381 1143 174 174 381 1144 304 304 381 1145 456 456 382 1146 304 304 382 1147 303 303 382 1148 459 459 383 1149 460 460 383 1150 180 180 383 1151 456 456 384 1152 459 459 384 1153 180 180 384 1154 456 456 385 1155 180 180 385 1156 177 177 385 1157 178 178 386 1158 401 401 386 1159 457 457 386 1160 453 453 387 1161 455 455 387 1162 395 395 387 1163 397 397 388 1164 452 452 388 1165 173 173 388 1166 397 397 389 1167 173 173 389 1168 398 398 389 1169 451 451 390 1170 454 454 390 1171 250 250 390 1172 451 451 391 1173 250 250 391 1174 291 291 391 1175 286 286 392 1176 248 248 392 1177 451 451 392 1178 287 287 393 1179 286 286 393 1180 451 451 393 1181 451 451 394 1182 291 291 394 1183 290 290 394 1184 451 451 395 1185 290 290 395 1186 289 289 395 1187 288 288 396 1188 287 287 396 1189 451 451 396 1190 451 451 397 1191 289 289 397 1192 288 288 397 1193 305 305 398 1194 467 467 398 1195 462 462 398 1196 462 462 399 1197 307 307 399 1198 342 342 399 1199 462 462 400 1200 342 342 400 1201 341 341 400 1202 336 336 401 1203 305 305 401 1204 462 462 401 1205 337 337 402 1206 336 336 402 1207 462 462 402 1208 462 462 403 1209 341 341 403 1210 340 340 403 1211 462 462 404 1212 340 340 404 1213 339 339 404 1214 338 338 405 1215 337 337 405 1216 462 462 405 1217 462 462 406 1218 339 339 406 1219 338 338 406 1220 464 464 407 1221 466 466 407 1222 436 436 407 1223 436 436 408 1224 435 435 408 1225 434 434 408 1226 434 434 409 1227 433 433 409 1228 432 432 409 1229 432 432 410 1230 431 431 410 1231 430 430 410 1232 430 430 411 1233 176 176 411 1234 464 464 411 1235 464 464 412 1236 436 436 412 1237 434 434 412 1238 432 432 413 1239 430 430 413 1240 464 464 413 1241 464 464 414 1242 434 434 414 1243 432 432 414 1244 172 172 415 1245 465 465 415 1246 467 467 415 1247 467 467 416 1248 305 305 416 1249 350 350 416 1250 349 349 417 1251 306 306 417 1252 186 186 417 1253 172 172 418 1254 467 467 418 1255 350 350 418 1256 349 349 419 1257 186 186 419 1258 172 172 419 1259 350 350 420 1260 349 349 420 1261 172 172 420 1262 307 307 421 1263 462 462 421 1264 463 463 421 1265 463 463 422 1266 175 175 422 1267 171 171 422 1268 171 171 423 1269 308 308 423 1270 361 361 423 1271 171 171 424 1272 361 361 424 1273 360 360 424 1274 351 351 425 1275 307 307 425 1276 463 463 425 1277 352 352 426 1278 351 351 426 1279 463 463 426 1280 463 463 427 1281 171 171 427 1282 360 360 427 1283 463 463 428 1284 360 360 428 1285 359 359 428 1286 353 353 429 1287 352 352 429 1288 463 463 429 1289 354 354 430 1290 353 353 430 1291 463 463 430 1292 463 463 431 1293 359 359 431 1294 358 358 431 1295 463 463 432 1296 358 358 432 1297 357 357 432 1298 355 355 433 1299 354 354 433 1300 463 463 433 1301 463 463 434 1302 357 357 434 1303 356 356 434 1304 463 463 435 1305 356 356 435 1306 355 355 435 1307 438 438 436 1308 437 437 436 1309 465 465 436 1310 465 465 437 1311 172 172 437 1312 450 450 437 1313 450 450 438 1314 449 449 438 1315 448 448 438 1316 448 448 439 1317 447 447 439 1318 446 446 439 1319 446 446 440 1320 445 445 440 1321 444 444 440 1322 439 439 441 1323 438 438 441 1324 465 465 441 1325 465 465 442 1326 450 450 442 1327 448 448 442 1328 465 465 443 1329 448 448 443 1330 446 446 443 1331 440 440 444 1332 439 439 444 1333 465 465 444 1334 441 441 445 1335 440 440 445 1336 465 465 445 1337 465 465 446 1338 446 446 446 1339 444 444 446 1340 444 444 447 1341 443 443 447 1342 442 442 447 1343 442 442 448 1344 441 441 448 1345 465 465 448 1346 465 465 449 1347 444 444 449 1348 442 442 449 1349 463 463 450 1350 464 464 450 1351 176 176 450 1352 463 463 451 1353 176 176 451 1354 175 175 451 1355 427 427 452 1356 491 491 452 1357 483 483 452 1358 427 427 453 1359 483 483 453 1360 184 184 453 1361 491 491 454 1362 490 490 454 1363 482 482 454 1364 491 491 455 1365 482 482 455 1366 483 483 455 1367 490 490 456 1368 489 489 456 1369 481 481 456 1370 490 490 457 1371 481 481 457 1372 482 482 457 1373 489 489 458 1374 488 488 458 1375 480 480 458 1376 489 489 459 1377 480 480 459 1378 481 481 459 1379 488 488 460 1380 487 487 460 1381 479 479 460 1382 488 488 461 1383 479 479 461 1384 480 480 461 1385 487 487 462 1386 486 486 462 1387 478 478 462 1388 487 487 463 1389 478 478 463 1390 479 479 463 1391 486 486 464 1392 485 485 464 1393 477 477 464 1394 486 486 465 1395 477 477 465 1396 478 478 465 1397 485 485 466 1398 484 484 466 1399 476 476 466 1400 485 485 467 1401 476 476 467 1402 477 477 467 1403</p>
                </triangles>
            </mesh>
        </geometry>
    </library_geometries>
    <library_visual_scenes>
        <visual_scene id="VisualSceneNode" name="VisualScene">
            <node id="node" name="node">
                <instance_geometry url="#shape0-lib">
                    <bind_material>
                        <technique_common>
                            <instance_material symbol="material0" target="#material0">
                                <bind_vertex_input semantic="UVSET0" input_semantic="TEXCOORD"/>
                            </instance_material>
                        </technique_common>
                    </bind_material>
                </instance_geometry>
            </node>
        </visual_scene>
    </library_visual_scenes>
    <scene>
        <instance_visual_scene url="#VisualSceneNode"/>
    </scene>
</COLLADA>
