<?xml version="1.0" encoding="UTF-8"?>
<COLLADA xmlns="http://www.collada.org/2005/11/COLLADASchema" version="1.4.1">
    <asset>
        <contributor>
            <author>VCGLab</author>
            <authoring_tool>VCGLib | MeshLab</authoring_tool>
        </contributor>
        <created>Fri May 1 22:57:17 2026 GMT</created>
        <modified>Fri May 1 22:57:17 2026 GMT</modified>
        <up_axis>Y_UP</up_axis>
    </asset>
    <library_images>
        <image id="texture0" name="texture0">
            <init_from>notexture.png</init_from>
        </image>
    </library_images>
    <library_materials>
        <material id="material0" name="material0">
            <instance_effect url="#material0-fx"/>
        </material>
    </library_materials>
    <library_effects>
        <effect id="material0-fx">
            <profile_COMMON>
                <newparam sid="texture0-surface">
                    <surface type="2D">
                        <init_from>texture0</init_from>
                        <format>R8G8B8</format>
                    </surface>
                </newparam>
                <newparam sid="texture0-sampler">
                    <sampler2D>
                        <source>texture0-surface</source>
                        <minfilter>LINEAR</minfilter>
                        <magfilter>LINEAR</magfilter>
                    </sampler2D>
                </newparam>
                <technique sid="common">
                    <blinn>
                        <diffuse>
                            <texture texture="texture0-sampler" texcoord="UVSET0"/>
                        </diffuse>
                    </blinn>
                </technique>
            </profile_COMMON>
        </effect>
    </library_effects>
    <library_geometries>
        <geometry id="shape0-lib" name="shape0">
            <mesh>
                <source id="shape0-lib-positions" name="position">
                    <float_array id="shape0-lib-positions-array" count="576">16 -28.8 -1.47084 16 -28.8 -1.47084 16 -28.8 -1.47084 13.815 -29.0152 -1.47084 13.815 -29.0152 -1.47084 13.815 -29.0152 -1.47084 11.7139 -29.6525 -1.47084 11.7139 -29.6525 -1.47084 11.7139 -29.6525 -1.47084 9.77761 -30.6875 -1.47084 9.77761 -30.6875 -1.47084 9.77761 -30.6875 -1.47084 8.08041 -32.0804 -1.47084 8.08041 -32.0804 -1.47084 8.08041 -32.0804 -1.47084 6.68754 -33.7776 -1.47084 6.68754 -33.7776 -1.47084 6.68754 -33.7776 -1.47084 5.65255 -35.7139 -1.47084 5.65255 -35.7139 -1.47084 5.65255 -35.7139 -1.47084 5.01521 -37.815 -1.47084 5.01521 -37.815 -1.47084 5.01521 -37.815 -1.47084 4.8 -40 -1.47084 4.8 -40 -1.47084 4.8 -40 -1.47084 5.01521 -42.185 -1.47084 5.01521 -42.185 -1.47084 5.01521 -42.185 -1.47084 5.65255 -44.286 -1.47084 5.65255 -44.286 -1.47084 5.65255 -44.286 -1.47084 6.68754 -46.2224 -1.47084 6.68754 -46.2224 -1.47084 6.68754 -46.2224 -1.47084 8.08041 -47.9196 -1.47084 8.08041 -47.9196 -1.47084 8.08041 -47.9196 -1.47084 9.77761 -49.3125 -1.47084 9.77761 -49.3125 -1.47084 9.77761 -49.3125 -1.47084 11.7139 -50.3474 -1.47084 11.7139 -50.3474 -1.47084 11.7139 -50.3474 -1.47084 13.815 -50.9848 -1.47084 13.815 -50.9848 -1.47084 13.815 -50.9848 -1.47084 16 -51.2 -1.47084 16 -51.2 -1.47084 16 -51.2 -1.47084 18.185 -50.9848 -1.47084 18.185 -50.9848 -1.47084 18.185 -50.9848 -1.47084 20.2861 -50.3474 -1.47084 20.2861 -50.3474 -1.47084 20.2861 -50.3474 -1.47084 22.2224 -49.3125 -1.47084 22.2224 -49.3125 -1.47084 22.2224 -49.3125 -1.47084 23.9196 -47.9196 -1.47084 23.9196 -47.9196 -1.47084 23.9196 -47.9196 -1.47084 25.3125 -46.2224 -1.47084 25.3125 -46.2224 -1.47084 25.3125 -46.2224 -1.47084 26.3475 -44.286 -1.47084 26.3475 -44.286 -1.47084 26.3475 -44.286 -1.47084 26.9848 -42.185 -1.47084 26.9848 -42.185 -1.47084 26.9848 -42.185 -1.47084 27.2 -40 -1.47084 27.2 -40 -1.47084 27.2 -40 -1.47084 26.9848 -37.815 -1.47084 26.9848 -37.815 -1.47084 26.9848 -37.815 -1.47084 26.3475 -35.7139 -1.47084 26.3475 -35.7139 -1.47084 26.3475 -35.7139 -1.47084 25.3125 -33.7776 -1.47084 25.3125 -33.7776 -1.47084 25.3125 -33.7776 -1.47084 23.9196 -32.0804 -1.47084 23.9196 -32.0804 -1.47084 23.9196 -32.0804 -1.47084 22.2224 -30.6875 -1.47084 22.2224 -30.6875 -1.47084 22.2224 -30.6875 -1.47084 20.2861 -29.6525 -1.47084 20.2861 -29.6525 -1.47084 20.2861 -29.6525 -1.47084 18.185 -29.0152 -1.47084 18.185 -29.0152 -1.47084 18.185 -29.0152 -1.47084 13.815 -29.0152 3.9632 13.815 -29.0152 3.9632 13.815 -29.0152 3.9632 16 -28.8 3.9632 16 -28.8 3.9632 16 -28.8 3.9632 11.7139 -29.6525 3.9632 11.7139 -29.6525 3.9632 11.7139 -29.6525 3.9632 9.77761 -30.6875 3.9632 9.77761 -30.6875 3.9632 9.77761 -30.6875 3.9632 8.08041 -32.0804 3.9632 8.08041 -32.0804 3.9632 8.08041 -32.0804 3.9632 6.68754 -33.7776 3.9632 6.68754 -33.7776 3.9632 6.68754 -33.7776 3.9632 5.65255 -35.7139 3.9632 5.65255 -35.7139 3.9632 5.65255 -35.7139 3.9632 5.01521 -37.815 3.9632 5.01521 -37.815 3.9632 5.01521 -37.815 3.9632 4.8 -40 3.9632 4.8 -40 3.9632 4.8 -40 3.9632 5.01521 -42.185 3.9632 5.01521 -42.185 3.9632 5.01521 -42.185 3.9632 5.65255 -44.286 3.9632 5.65255 -44.286 3.9632 5.65255 -44.286 3.9632 6.68754 -46.2224 3.9632 6.68754 -46.2224 3.9632 6.68754 -46.2224 3.9632 8.08041 -47.9196 3.9632 8.08041 -47.9196 3.9632 8.08041 -47.9196 3.9632 9.77761 -49.3125 3.9632 9.77761 -49.3125 3.9632 9.77761 -49.3125 3.9632 11.7139 -50.3474 3.9632 11.7139 -50.3474 3.9632 11.7139 -50.3474 3.9632 13.815 -50.9848 3.9632 13.815 -50.9848 3.9632 13.815 -50.9848 3.9632 16 -51.2 3.9632 16 -51.2 3.9632 16 -51.2 3.9632 18.185 -50.9848 3.9632 18.185 -50.9848 3.9632 18.185 -50.9848 3.9632 20.2861 -50.3474 3.9632 20.2861 -50.3474 3.9632 20.2861 -50.3474 3.9632 22.2224 -49.3125 3.9632 22.2224 -49.3125 3.9632 22.2224 -49.3125 3.9632 23.9196 -47.9196 3.9632 23.9196 -47.9196 3.9632 23.9196 -47.9196 3.9632 25.3125 -46.2224 3.9632 25.3125 -46.2224 3.9632 25.3125 -46.2224 3.9632 26.3475 -44.286 3.9632 26.3475 -44.286 3.9632 26.3475 -44.286 3.9632 26.9848 -42.185 3.9632 26.9848 -42.185 3.9632 26.9848 -42.185 3.9632 27.2 -40 3.9632 27.2 -40 3.9632 27.2 -40 3.9632 26.9848 -37.815 3.9632 26.9848 -37.815 3.9632 26.9848 -37.815 3.9632 26.3475 -35.7139 3.9632 26.3475 -35.7139 3.9632 26.3475 -35.7139 3.9632 25.3125 -33.7776 3.9632 25.3125 -33.7776 3.9632 25.3125 -33.7776 3.9632 23.9196 -32.0804 3.9632 23.9196 -32.0804 3.9632 23.9196 -32.0804 3.9632 22.2224 -30.6875 3.9632 22.2224 -30.6875 3.9632 22.2224 -30.6875 3.9632 20.2861 -29.6525 3.9632 20.2861 -29.6525 3.9632 20.2861 -29.6525 3.9632 18.185 -29.0152 3.9632 18.185 -29.0152 3.9632 18.185 -29.0152 3.9632</float_array>
                    <technique_common>
                        <accessor count="192" source="#shape0-lib-positions-array" stride="3">
                            <param name="X" type="float"/>
                            <param name="Y" type="float"/>
                            <param name="Z" type="float"/>
                        </accessor>
                    </technique_common>
                </source>
                <source id="shape0-lib-normals" name="normal">
                    <float_array id="shape0-lib-normals-array" count="372">0 0 -1 0 0 -1 0 0 -1 0 0 -1 0 0 -1 0 0 -1 0 0 -1 0 0 -1 0 0 -1 0 0 -1 0 0 -1 0 0 -1 0 0 -1 0 0 -1 0 0 -1 0 0 -1 0 0 -1 0 0 -1 0 0 -1 0 0 -1 0 0 -1 0 0 -1 0 0 -1 0 0 -1 0 0 -1 0 0 -1 0 0 -1 0 0 -1 0 0 -1 0 0 -1 0 0 1 0 0 1 0 0 1 0 0 1 0 0 1 0 0 1 0 0 1 0 0 1 0 0 1 0 0 1 0 0 1 0 0 1 0 0 1 0 0 1 0 0 1 0 0 1 0 0 1 0 0 1 0 0 1 0 0 1 0 0 1 0 0 1 0 0 1 0 0 1 0 0 1 0 0 1 0 0 1 0 0 1 0 0 1 0 0 1 -0.290286 0.95694 0 -0.290286 0.95694 0 0.634393 0.773011 0 0.634393 0.773011 0 -0.098016 -0.995185 0 -0.098016 -0.995185 0 -0.471396 0.881922 0 -0.471396 0.881922 0 0.471396 0.881922 0 0.471396 0.881922 0 0.098016 -0.995185 0 0.098016 -0.995185 0 -0.634393 0.773011 0 -0.634393 0.773011 0 0.290286 0.95694 0 0.290286 0.95694 0 0.290286 -0.95694 0 0.290286 -0.95694 0 -0.77301 0.634394 0 -0.77301 0.634394 0 0.0980169 0.995185 0 0.0980169 0.995185 0 0.471396 -0.881922 0 0.471396 -0.881922 0 -0.881922 0.471396 0 -0.881922 0.471396 0 0.634393 -0.77301 0 0.634393 -0.77301 0 -0.95694 0.290285 0 -0.95694 0.290285 0 0.773011 -0.634393 0 0.773011 -0.634393 0 -0.995185 0.0980175 0 -0.995185 0.0980175 0 0.881921 -0.471397 0 0.881921 -0.471397 0 -0.995185 -0.0980175 0 -0.995185 -0.0980175 0 0.95694 -0.290285 0 0.95694 -0.290285 0 -0.95694 -0.290285 0 -0.95694 -0.290285 0 0.995185 -0.0980168 0 0.995185 -0.0980168 0 -0.881921 -0.471397 0 -0.881921 -0.471397 0 0.995185 0.0980168 0 0.995185 0.0980168 0 -0.77301 -0.634394 0 -0.77301 -0.634394 0 0.95694 0.290285 0 0.95694 0.290285 0 -0.634394 -0.77301 0 -0.634394 -0.77301 0 0.881921 0.471396 0 0.881921 0.471396 0 -0.471396 -0.881922 0 -0.471396 -0.881922 0 -0.0980169 0.995185 0 -0.0980169 0.995185 0 0.773011 0.634393 0 0.773011 0.634393 0 -0.290286 -0.95694 0 -0.290286 -0.95694 0</float_array>
                    <technique_common>
                        <accessor count="124" source="#shape0-lib-normals-array" stride="3">
                            <param name="X" type="float"/>
                            <param name="Y" type="float"/>
                            <param name="Z" type="float"/>
                        </accessor>
                    </technique_common>
                </source>
                <source id="shape0-lib-vcolor" name="vcolor">
                    <float_array id="shape0-lib-vcolor-array" count="768">0.0196078 0.8 0 1 0.0196078 0.8 0 1 0.0196078 0.8 0 1 0.0196078 0.8 0 1 0.0196078 0.8 0 1 0.0196078 0.8 0 1 0.0196078 0.8 0 1 0.0196078 0.8 0 1 0.0196078 0.8 0 1 0.0196078 0.8 0 1 0.0196078 0.8 0 1 0.0196078 0.8 0 1 0.0196078 0.8 0 1 0.0196078 0.8 0 1 0.0196078 0.8 0 1 0.0196078 0.8 0 1 0.0196078 0.8 0 1 0.0196078 0.8 0 1 0.0196078 0.8 0 1 0.0196078 0.8 0 1 0.0196078 0.8 0 1 0.0196078 0.8 0 1 0.0196078 0.8 0 1 0.0196078 0.8 0 1 0.0196078 0.8 0 1 0.0196078 0.8 0 1 0.0196078 0.8 0 1 0.0196078 0.8 0 1 0.0196078 0.8 0 1 0.0196078 0.8 0 1 0.0196078 0.8 0 1 0.0196078 0.8 0 1 0.0196078 0.8 0 1 0.0196078 0.8 0 1 0.0196078 0.8 0 1 0.0196078 0.8 0 1 0.0196078 0.8 0 1 0.0196078 0.8 0 1 0.0196078 0.8 0 1 0.0196078 0.8 0 1 0.0196078 0.8 0 1 0.0196078 0.8 0 1 0.0196078 0.8 0 1 0.0196078 0.8 0 1 0.0196078 0.8 0 1 0.0196078 0.8 0 1 0.0196078 0.8 0 1 0.0196078 0.8 0 1 0.0196078 0.8 0 1 0.0196078 0.8 0 1 0.0196078 0.8 0 1 0.0196078 0.8 0 1 0.0196078 0.8 0 1 0.0196078 0.8 0 1 0.0196078 0.8 0 1 0.0196078 0.8 0 1 0.0196078 0.8 0 1 0.0196078 0.8 0 1 0.0196078 0.8 0 1 0.0196078 0.8 0 1 0.0196078 0.8 0 1 0.0196078 0.8 0 1 0.0196078 0.8 0 1 0.0196078 0.8 0 1 0.0196078 0.8 0 1 0.0196078 0.8 0 1 0.0196078 0.8 0 1 0.0196078 0.8 0 1 0.0196078 0.8 0 1 0.0196078 0.8 0 1 0.0196078 0.8 0 1 0.0196078 0.8 0 1 0.0196078 0.8 0 1 0.0196078 0.8 0 1 0.0196078 0.8 0 1 0.0196078 0.8 0 1 0.0196078 0.8 0 1 0.0196078 0.8 0 1 0.0196078 0.8 0 1 0.0196078 0.8 0 1 0.0196078 0.8 0 1 0.0196078 0.8 0 1 0.0196078 0.8 0 1 0.0196078 0.8 0 1 0.0196078 0.8 0 1 0.0196078 0.8 0 1 0.0196078 0.8 0 1 0.0196078 0.8 0 1 0.0196078 0.8 0 1 0.0196078 0.8 0 1 0.0196078 0.8 0 1 0.0196078 0.8 0 1 0.0196078 0.8 0 1 0.0196078 0.8 0 1 0.0196078 0.8 0 1 0.0196078 0.8 0 1 0.0196078 0.8 0 1 0.0196078 0.8 0 1 0.0196078 0.8 0 1 0.0196078 0.8 0 1 0.0196078 0.8 0 1 0.0196078 0.8 0 1 0.0196078 0.8 0 1 0.0196078 0.8 0 1 0.0196078 0.8 0 1 0.0196078 0.8 0 1 0.0196078 0.8 0 1 0.0196078 0.8 0 1 0.0196078 0.8 0 1 0.0196078 0.8 0 1 0.0196078 0.8 0 1 0.0196078 0.8 0 1 0.0196078 0.8 0 1 0.0196078 0.8 0 1 0.0196078 0.8 0 1 0.0196078 0.8 0 1 0.0196078 0.8 0 1 0.0196078 0.8 0 1 0.0196078 0.8 0 1 0.0196078 0.8 0 1 0.0196078 0.8 0 1 0.0196078 0.8 0 1 0.0196078 0.8 0 1 0.0196078 0.8 0 1 0.0196078 0.8 0 1 0.0196078 0.8 0 1 0.0196078 0.8 0 1 0.0196078 0.8 0 1 0.0196078 0.8 0 1 0.0196078 0.8 0 1 0.0196078 0.8 0 1 0.0196078 0.8 0 1 0.0196078 0.8 0 1 0.0196078 0.8 0 1 0.0196078 0.8 0 1 0.0196078 0.8 0 1 0.0196078 0.8 0 1 0.0196078 0.8 0 1 0.0196078 0.8 0 1 0.0196078 0.8 0 1 0.0196078 0.8 0 1 0.0196078 0.8 0 1 0.0196078 0.8 0 1 0.0196078 0.8 0 1 0.0196078 0.8 0 1 0.0196078 0.8 0 1 0.0196078 0.8 0 1 0.0196078 0.8 0 1 0.0196078 0.8 0 1 0.0196078 0.8 0 1 0.0196078 0.8 0 1 0.0196078 0.8 0 1 0.0196078 0.8 0 1 0.0196078 0.8 0 1 0.0196078 0.8 0 1 0.0196078 0.8 0 1 0.0196078 0.8 0 1 0.0196078 0.8 0 1 0.0196078 0.8 0 1 0.0196078 0.8 0 1 0.0196078 0.8 0 1 0.0196078 0.8 0 1 0.0196078 0.8 0 1 0.0196078 0.8 0 1 0.0196078 0.8 0 1 0.0196078 0.8 0 1 0.0196078 0.8 0 1 0.0196078 0.8 0 1 0.0196078 0.8 0 1 0.0196078 0.8 0 1 0.0196078 0.8 0 1 0.0196078 0.8 0 1 0.0196078 0.8 0 1 0.0196078 0.8 0 1 0.0196078 0.8 0 1 0.0196078 0.8 0 1 0.0196078 0.8 0 1 0.0196078 0.8 0 1 0.0196078 0.8 0 1 0.0196078 0.8 0 1 0.0196078 0.8 0 1 0.0196078 0.8 0 1 0.0196078 0.8 0 1 0.0196078 0.8 0 1 0.0196078 0.8 0 1 0.0196078 0.8 0 1 0.0196078 0.8 0 1 0.0196078 0.8 0 1 0.0196078 0.8 0 1 0.0196078 0.8 0 1 0.0196078 0.8 0 1 0.0196078 0.8 0 1</float_array>
                    <technique_common>
                        <accessor count="192" source="#shape0-lib-vcolor-array" stride="4">
                            <param name="R" type="float"/>
                            <param name="G" type="float"/>
                            <param name="B" type="float"/>
                            <param name="A" type="float"/>
                        </accessor>
                    </technique_common>
                </source>
                <source id="shape0-lib-map" name="map">
                    <float_array id="shape0-lib-map-array" count="744">0 0 0 0 0 0 0 0 0 0 0 0 0 0 0 0 0 0 0 0 0 0 0 0 0 0 0 0 0 0 0 0 0 0 0 0 0 0 0 0 0 0 0 0 0 0 0 0 0 0 0 0 0 0 0 0 0 0 0 0 0 0 0 0 0 0 0 0 0 0 0 0 0 0 0 0 0 0 0 0 0 0 0 0 0 0 0 0 0 0 0 0 0 0 0 0 0 0 0 0 0 0 0 0 0 0 0 0 0 0 0 0 0 0 0 0 0 0 0 0 0 0 0 0 0 0 0 0 0 0 0 0 0 0 0 0 0 0 0 0 0 0 0 0 0 0 0 0 0 0 0 0 0 0 0 0 0 0 0 0 0 0 0 0 0 0 0 0 0 0 0 0 0 0 0 0 0 0 0 0 0 0 0 0 0 0 0 0 0 0 0 0 0 0 0 0 0 0 0 0 0 0 0 0 0 0 0 0 0 0 0 0 0 0 0 0 0 0 0 0 0 0 0 0 0 0 0 0 0 0 0 0 0 0 0 0 0 0 0 0 0 0 0 0 0 0 0 0 0 0 0 0 0 0 0 0 0 0 0 0 0 0 0 0 0 0 0 0 0 0 0 0 0 0 0 0 0 0 0 0 0 0 0 0 0 0 0 0 0 0 0 0 0 0 0 0 0 0 0 0 0 0 0 0 0 0 0 0 0 0 0 0 0 0 0 0 0 0 0 0 0 0 0 0 0 0 0 0 0 0 0 0 0 0 0 0 0 0 0 0 0 0 0 0 0 0 0 0 0 0 0 0 0 0 0 0 0 0 0 0 0 0 0 0 0 0 0 0 0 0 0 0 0 0 0 0 0 0 0 0 0 0 0 0 0 0 0 0 0 0 0 0 0 0 0 0 0 0 0 0 0 0 0 0 0 0 0 0 0 0 0 0 0 0 0 0 0 0 0 0 0 0 0 0 0 0 0 0 0 0 0 0 0 0 0 0 0 0 0 0 0 0 0 0 0 0 0 0 0 0 0 0 0 0 0 0 0 0 0 0 0 0 0 0 0 0 0 0 0 0 0 0 0 0 0 0 0 0 0 0 0 0 0 0 0 0 0 0 0 0 0 0 0 0 0 0 0 0 0 0 0 0 0 0 0 0 0 0 0 0 0 0 0 0 0 0 0 0 0 0 0 0 0 0 0 0 0 0 0 0 0 0 0 0 0 0 0 0 0 0 0 0 0 0 0 0 0 0 0 0 0 0 0 0 0 0 0 0 0 0 0 0 0 0 0 0 0 0 0 0 0 0 0 0 0 0 0 0 0 0 0 0 0 0 0 0 0 0 0 0 0 0 0 0 0 0 0 0 0 0 0 0 0 0 0 0 0 0 0 0 0 0 0 0 0 0 0 0 0 0 0 0 0 0 0 0 0 0 0 0 0 0 0 0 0 0 0 0 0 0 0 0 0 0 0 0 0 0 0 0 0 0 0 0 0 0 0 0 0 0 0 0 0 0 0 0 0 0 0 0 0 0 0 0 0 0 0 0 0 0 0 0 0 0 0 0 0 0 0 0 0 0 0 0 0 0 0 0 0 0 0 0 0 0 0 0 0 0 0 0 0 0 0 0 0 0 0 0 0 0 0 0 0 0 0 0 0 0 0 0 0 0 0 0 0 0 0 0 0 0 0 0 0 0</float_array>
                    <technique_common>
                        <accessor count="372" source="#shape0-lib-map-array" stride="2">
                            <param name="U" type="float"/>
                            <param name="V" type="float"/>
                        </accessor>
                    </technique_common>
                </source>
                <vertices id="shape0-lib-vertices">
                    <input semantic="POSITION" source="#shape0-lib-positions"/>
                </vertices>
                <triangles count="124" material="material0">
                    <input offset="0" semantic="VERTEX" source="#shape0-lib-vertices"/>
                    <input offset="1" semantic="COLOR" source="#shape0-lib-vcolor"/>
                    <input offset="2" semantic="NORMAL" source="#shape0-lib-normals"/>
                    <input offset="3" semantic="TEXCOORD" source="#shape0-lib-map"/>
                    <p>6 6 0 0 3 3 0 1 0 0 0 2 0 0 1 3 93 93 1 4 90 90 1 5 90 90 2 6 87 87 2 7 84 84 2 8 84 84 3 9 81 81 3 10 78 78 3 11 78 78 4 12 75 75 4 13 72 72 4 14 72 72 5 15 69 69 5 16 66 66 5 17 66 66 6 18 63 63 6 19 60 60 6 20 60 60 7 21 57 57 7 22 54 54 7 23 54 54 8 24 51 51 8 25 48 48 8 26 48 48 9 27 45 45 9 28 42 42 9 29 42 42 10 30 39 39 10 31 36 36 10 32 36 36 11 33 33 33 11 34 30 30 11 35 30 30 12 36 27 27 12 37 24 24 12 38 24 24 13 39 21 21 13 40 18 18 13 41 18 18 14 42 15 15 14 43 12 12 14 44 12 12 15 45 9 9 15 46 6 6 15 47 6 6 16 48 0 0 16 49 90 90 16 50 90 90 17 51 84 84 17 52 78 78 17 53 78 78 18 54 72 72 18 55 66 66 18 56 66 66 19 57 60 60 19 58 54 54 19 59 54 54 20 60 48 48 20 61 42 42 20 62 42 42 21 63 36 36 21 64 30 30 21 65 30 30 22 66 24 24 22 67 18 18 22 68 18 18 23 69 12 12 23 70 6 6 23 71 6 6 24 72 90 90 24 73 78 78 24 74 78 78 25 75 66 66 25 76 54 54 25 77 54 54 26 78 42 42 26 79 30 30 26 80 30 30 27 81 18 18 27 82 6 6 27 83 6 6 28 84 78 78 28 85 54 54 28 86 54 54 29 87 30 30 29 88 6 6 29 89 99 99 30 90 96 96 30 91 102 102 30 92 102 102 31 93 105 105 31 94 108 108 31 95 108 108 32 96 111 111 32 97 114 114 32 98 114 114 33 99 117 117 33 100 120 120 33 101 120 120 34 102 123 123 34 103 126 126 34 104 126 126 35 105 129 129 35 106 132 132 35 107 132 132 36 108 135 135 36 109 138 138 36 110 138 138 37 111 141 141 37 112 144 144 37 113 144 144 38 114 147 147 38 115 150 150 38 116 150 150 39 117 153 153 39 118 156 156 39 119 156 156 40 120 159 159 40 121 162 162 40 122 162 162 41 123 165 165 41 124 168 168 41 125 168 168 42 126 171 171 42 127 174 174 42 128 174 174 43 129 177 177 43 130 180 180 43 131 180 180 44 132 183 183 44 133 186 186 44 134 186 186 45 135 189 189 45 136 99 99 45 137 99 99 46 138 102 102 46 139 108 108 46 140 108 108 47 141 114 114 47 142 120 120 47 143 120 120 48 144 126 126 48 145 132 132 48 146 132 132 49 147 138 138 49 148 144 144 49 149 144 144 50 150 150 150 50 151 156 156 50 152 156 156 51 153 162 162 51 154 168 168 51 155 168 168 52 156 174 174 52 157 180 180 52 158 180 180 53 159 186 186 53 160 99 99 53 161 99 99 54 162 108 108 54 163 120 120 54 164 120 120 55 165 132 132 55 166 144 144 55 167 144 144 56 168 156 156 56 169 168 168 56 170 168 168 57 171 180 180 57 172 99 99 57 173 99 99 58 174 120 120 58 175 144 144 58 176 144 144 59 177 168 168 59 178 99 99 59 179 5 5 60 180 7 7 60 181 103 103 60 182 5 5 61 183 103 103 61 184 98 98 61 185 85 85 62 186 89 89 62 187 185 185 62 188 85 85 63 189 185 185 63 190 181 181 63 191 46 46 64 192 50 50 64 193 146 146 64 194 46 46 65 195 146 146 65 196 142 142 65 197 8 8 66 198 10 10 66 199 106 106 66 200 8 8 67 201 106 106 67 202 104 104 67 203 88 88 68 204 92 92 68 205 188 188 68 206 88 88 69 207 188 188 69 208 184 184 69 209 49 49 70 210 52 52 70 211 148 148 70 212 49 49 71 213 148 148 71 214 145 145 71 215 11 11 72 216 13 13 72 217 109 109 72 218 11 11 73 219 109 109 73 220 107 107 73 221 91 91 74 222 95 95 74 223 191 191 74 224 91 91 75 225 191 191 75 226 187 187 75 227 53 53 76 228 55 55 76 229 151 151 76 230 53 53 77 231 151 151 77 232 149 149 77 233 14 14 78 234 16 16 78 235 112 112 78 236 14 14 79 237 112 112 79 238 110 110 79 239 94 94 80 240 1 1 80 241 100 100 80 242 94 94 81 243 100 100 81 244 190 190 81 245 56 56 82 246 58 58 82 247 154 154 82 248 56 56 83 249 154 154 83 250 152 152 83 251 17 17 84 252 19 19 84 253 115 115 84 254 17 17 85 255 115 115 85 256 113 113 85 257 59 59 86 258 61 61 86 259 157 157 86 260 59 59 87 261 157 157 87 262 155 155 87 263 20 20 88 264 22 22 88 265 118 118 88 266 20 20 89 267 118 118 89 268 116 116 89 269 62 62 90 270 64 64 90 271 160 160 90 272 62 62 91 273 160 160 91 274 158 158 91 275 23 23 92 276 25 25 92 277 121 121 92 278 23 23 93 279 121 121 93 280 119 119 93 281 65 65 94 282 67 67 94 283 163 163 94 284 65 65 95 285 163 163 95 286 161 161 95 287 26 26 96 288 29 29 96 289 125 125 96 290 26 26 97 291 125 125 97 292 122 122 97 293 68 68 98 294 70 70 98 295 166 166 98 296 68 68 99 297 166 166 99 298 164 164 99 299 28 28 100 300 32 32 100 301 128 128 100 302 28 28 101 303 128 128 101 304 124 124 101 305 71 71 102 306 74 74 102 307 170 170 102 308 71 71 103 309 170 170 103 310 167 167 103 311 31 31 104 312 35 35 104 313 131 131 104 314 31 31 105 315 131 131 105 316 127 127 105 317 73 73 106 318 77 77 106 319 173 173 106 320 73 73 107 321 173 173 107 322 169 169 107 323 34 34 108 324 38 38 108 325 134 134 108 326 34 34 109 327 134 134 109 328 130 130 109 329 76 76 110 330 80 80 110 331 176 176 110 332 76 76 111 333 176 176 111 334 172 172 111 335 37 37 112 336 41 41 112 337 137 137 112 338 37 37 113 339 137 137 113 340 133 133 113 341 79 79 114 342 83 83 114 343 179 179 114 344 79 79 115 345 179 179 115 346 175 175 115 347 40 40 116 348 44 44 116 349 140 140 116 350 40 40 117 351 140 140 117 352 136 136 117 353 2 2 118 354 4 4 118 355 97 97 118 356 2 2 119 357 97 97 119 358 101 101 119 359 82 82 120 360 86 86 120 361 182 182 120 362 82 82 121 363 182 182 121 364 178 178 121 365 43 43 122 366 47 47 122 367 143 143 122 368 43 43 123 369 143 143 123 370 139 139 123 371</p>
                </triangles>
            </mesh>
        </geometry>
    </library_geometries>
    <library_visual_scenes>
        <visual_scene id="VisualSceneNode" name="VisualScene">
            <node id="node" name="node">
                <instance_geometry url="#shape0-lib">
                    <bind_material>
                        <technique_common>
                            <instance_material symbol="material0" target="#material0">
                                <bind_vertex_input semantic="UVSET0" input_semantic="TEXCOORD"/>
                            </instance_material>
                        </technique_common>
                    </bind_material>
                </instance_geometry>
            </node>
        </visual_scene>
    </library_visual_scenes>
    <scene>
        <instance_visual_scene url="#VisualSceneNode"/>
    </scene>
</COLLADA>
